%FSTAX23Y23*%
%MOIN*%
%SFA1B1*%

%IPPOS*%
%ADD46C,0.104330*%
%ADD47C,0.035910*%
%ADD48C,0.062130*%
%ADD49C,0.096460*%
%ADD50R,0.064960X0.064960*%
%ADD51C,0.064960*%
%ADD52C,0.061020*%
%ADD53C,0.040910*%
%LNpcb1-1*%
%LPD*%
G54D46*
X0454Y0418D03*
X04766D03*
X04992D03*
X05219D03*
X05445D03*
X05671D03*
X06006Y01817D03*
X05219D03*
X04431D03*
G54D47*
X01692Y02631D03*
Y02558D03*
X01547Y02631D03*
Y02558D03*
X0162Y02631D03*
Y02558D03*
X01656Y02667D03*
Y02595D03*
Y02522D03*
X01583Y02667D03*
Y02522D03*
Y02595D03*
G54D48*
X01834Y01385D03*
X01735D03*
Y01306D03*
X01834D03*
G54D49*
X01547Y012D03*
X02022D03*
G54D50*
X05305Y01145D03*
X0178Y03305D03*
X01765Y04785D03*
X02465D03*
X03165D03*
X03865D03*
X02375Y02555D03*
G54D51*
X05205Y01145D03*
X05105D03*
X0148Y03205D03*
Y03305D03*
X0158Y03205D03*
Y03305D03*
X0168Y03205D03*
Y03305D03*
X0178Y03205D03*
X01865Y04785D03*
X02565D03*
X03265D03*
X03975D03*
X02575Y02655D03*
Y02555D03*
X02475Y02655D03*
Y02555D03*
X02375Y02655D03*
G54D52*
X05057Y01482D03*
X05352Y01407D03*
G54D53*
X0186Y0146D03*
X0282Y035D03*
X02965Y0346D03*
X0336Y0327D03*
X03005Y0313D03*
X0288Y0173D03*
X0213Y0156D03*
X0211Y01825D03*
X01995Y0204D03*
X02105Y02385D03*
X0179Y0241D03*
X0169Y02765D03*
X0197Y03485D03*
Y03655D03*
X01635Y0357D03*
X0213Y039D03*
X0147Y03935D03*
X0129Y0397D03*
X01225Y0392D03*
X0202Y04315D03*
X0265Y0432D03*
X01745Y03975D03*
X022Y0459D03*
X02805Y0303D03*
X02585D03*
X0227Y02995D03*
X02605Y0152D03*
X02485Y015D03*
X018Y0156D03*
X0176Y016D03*
X02675Y0146D03*
X0192Y01705D03*
X01375Y024D03*
X0148Y0282D03*
X0212Y0321D03*
X05155Y0481D03*
X0349Y03025D03*
X02105D03*
X01725Y0288D03*
X0307Y0376D03*
X0434Y04805D03*
X046D03*
X01725Y02135D03*
X0192Y0176D03*
X03245Y04025D03*
X03195D03*
X03145D03*
X03295D03*
X01775Y021D03*
X01825Y0218D03*
X0167Y0222D03*
X0174Y02005D03*
X022Y02285D03*
X02125Y02315D03*
X0137Y03085D03*
X01965Y04715D03*
X01425Y03085D03*
X02025Y0474D03*
X0219Y0394D03*
X02269Y03891D03*
X02235Y0392D03*
X0292Y03695D03*
Y04455D03*
X01905Y02465D03*
X01745Y018D03*
X0185Y0424D03*
X0246Y0426D03*
X02685Y0402D03*
X01784Y01834D03*
X01525Y02875D03*
X0192Y0287D03*
M02*