%FSTAX23Y23*%
%MOIN*%
%SFA1B1*%

%IPPOS*%
%ADD15C,0.010000*%
%ADD81C,0.020000*%
%ADD82C,0.015000*%
%ADD83C,0.040000*%
%ADD84C,0.098430*%
%ADD85C,0.030000*%
%ADD86C,0.056220*%
%ADD87C,0.090550*%
%ADD88R,0.059060X0.059060*%
%ADD89C,0.059060*%
%ADD90C,0.055120*%
%ADD91C,0.035000*%
%LNpcb1-1*%
%LPD*%
G36*
X06491Y0251D02*
X0386D01*
Y01008*
X01008*
Y04991*
X06491*
Y0251*
G37*
%LNpcb1-2*%
%LPC*%
G36*
X03979Y04819D02*
X0397D01*
X03961Y04817*
X03953Y04812*
X03947Y04806*
X03942Y04798*
X0394Y04789*
Y0478*
X03942Y04771*
X03947Y04763*
X03953Y04757*
X03961Y04752*
X0397Y0475*
X03979*
X03988Y04752*
X03996Y04757*
X04002Y04763*
X04007Y04771*
X04009Y0478*
Y04789*
X04007Y04798*
X04002Y04806*
X03996Y04812*
X03988Y04817*
X03979Y04819*
G37*
G36*
X03899D02*
X0383D01*
Y0475*
X03899*
Y04819*
G37*
G36*
X03269D02*
X0326D01*
X03251Y04817*
X03243Y04812*
X03237Y04806*
X03232Y04798*
X0323Y04789*
Y0478*
X03232Y04771*
X03237Y04763*
X03243Y04757*
X03251Y04752*
X0326Y0475*
X03269*
X03278Y04752*
X03286Y04757*
X03292Y04763*
X03297Y04771*
X03299Y0478*
Y04789*
X03297Y04798*
X03292Y04806*
X03286Y04812*
X03278Y04817*
X03269Y04819*
G37*
G36*
X03199D02*
X0313D01*
Y0475*
X03199*
Y04819*
G37*
G36*
X02569D02*
X0256D01*
X02551Y04817*
X02543Y04812*
X02537Y04806*
X02532Y04798*
X0253Y04789*
Y0478*
X02532Y04771*
X02537Y04763*
X02543Y04757*
X02551Y04752*
X0256Y0475*
X02569*
X02578Y04752*
X02586Y04757*
X02592Y04763*
X02597Y04771*
X02599Y0478*
Y04789*
X02597Y04798*
X02592Y04806*
X02586Y04812*
X02578Y04817*
X02569Y04819*
G37*
G36*
X02499D02*
X0243D01*
Y0475*
X02499*
Y04819*
G37*
G36*
X01869D02*
X0186D01*
X01851Y04817*
X01843Y04812*
X01837Y04806*
X01832Y04798*
X0183Y04789*
Y0478*
X01832Y04771*
X01837Y04763*
X01843Y04757*
X01851Y04752*
X0186Y0475*
X01869*
X01878Y04752*
X01886Y04757*
X01892Y04763*
X01897Y04771*
X01899Y0478*
Y04789*
X01897Y04798*
X01892Y04806*
X01886Y04812*
X01878Y04817*
X01869Y04819*
G37*
G36*
X01799D02*
X0173D01*
Y0475*
X01799*
Y04819*
G37*
G36*
X02029Y04762D02*
X0202D01*
X02012Y04759*
X02005Y04752*
X02002Y04744*
Y04735*
X02003Y04732*
X01992Y04721*
X01986Y04722*
X01986Y04722*
X01984Y04727*
X01977Y04734*
X01969Y04737*
X0196*
X01952Y04734*
X01945Y04727*
X01942Y04719*
Y0471*
X01943Y04707*
X01362Y04127*
X0136Y04123*
X01359Y0412*
Y03105*
X01357Y03104*
X0135Y03097*
X01347Y03089*
Y0308*
X0135Y03072*
X01357Y03065*
X01365Y03062*
X01374*
X01382Y03065*
X01389Y03072*
X01392Y0308*
Y03089*
X01389Y03097*
X01382Y03104*
X0138Y03105*
Y04115*
X01957Y04693*
X0196Y04692*
X01966*
X01969Y04687*
X01422Y04141*
X0142Y04137*
X01419Y04134*
Y03107*
X01412Y03104*
X01405Y03097*
X01402Y03089*
Y0308*
X01405Y03072*
X01412Y03065*
X0142Y03062*
X01429*
X01437Y03065*
X01444Y03072*
X01447Y0308*
Y03089*
X01444Y03097*
X0144Y03101*
Y04129*
X02004Y04694*
X02006Y04697*
X02007Y04701*
Y04708*
X02017Y04718*
X0202Y04717*
X02029*
X02037Y0472*
X02044Y04727*
X02047Y04735*
Y04744*
X02044Y04752*
X02037Y04759*
X02029Y04762*
G37*
G36*
X02654Y04342D02*
X02645D01*
X02637Y04339*
X0263Y04332*
X02629Y0433*
X02036*
X02032Y04334*
X02024Y04337*
X02015*
X02007Y04334*
X02Y04327*
X0178*
X01775Y04326*
X0177Y04324*
X0167Y04224*
X01668Y04219*
X01667Y04215*
Y0404*
X01668Y04035*
X0167Y0403*
X01722Y03979*
Y0397*
X01725Y03962*
X01732Y03955*
X0174Y03952*
X01749*
X01757Y03955*
X01764Y03962*
X01767Y0397*
Y03979*
X01764Y03987*
X01757Y03994*
X01749Y03997*
X0174*
X01692Y04045*
Y04209*
X01785Y04302*
X02*
X02007Y04295*
X02015Y04292*
X02024*
X02032Y04295*
X02039Y04302*
X0204Y04304*
X02633*
X02637Y043*
X02645Y04297*
X02654*
X02662Y043*
X02669Y04307*
X02672Y04315*
Y04324*
X02669Y04332*
X02662Y04339*
X02654Y04342*
G37*
G36*
X02464Y04282D02*
X02455D01*
X02447Y04279*
X0244Y04272*
X02437Y04264*
Y04255*
X02437Y04255*
X01866*
X01862Y04259*
X01854Y04262*
X01845*
X01837Y04259*
X0183Y04252*
X01827Y04244*
Y04235*
X0183Y04227*
X01837Y0422*
X01845Y04217*
X01854*
X01862Y0422*
X01866Y04224*
X02458*
X02662Y0402*
Y04015*
X02665Y04007*
X02672Y04*
X0268Y03997*
X02689*
X02697Y04*
X02704Y04007*
X02707Y04015*
Y04024*
X02704Y04032*
X02697Y04039*
X02689Y04042*
X02684*
X02479Y04247*
X02482Y04255*
Y04264*
X02479Y04272*
X02472Y04279*
X02464Y04282*
G37*
G36*
X04773Y04234D02*
X04768D01*
Y04182*
X0482*
Y04187*
X04816Y042*
X04809Y04213*
X04799Y04223*
X04787Y0423*
X04773Y04234*
G37*
G36*
X04763D02*
X04759D01*
X04745Y0423*
X04733Y04223*
X04723Y04213*
X04715Y042*
X04712Y04187*
Y04182*
X04763*
Y04234*
G37*
G36*
X05679D02*
X05664D01*
X0565Y0423*
X05638Y04223*
X05628Y04213*
X05621Y042*
X05617Y04187*
Y04172*
X05621Y04159*
X05628Y04146*
X05638Y04136*
X0565Y04129*
X05664Y04125*
X05679*
X05692Y04129*
X05705Y04136*
X05715Y04146*
X05722Y04159*
X05726Y04172*
Y04187*
X05722Y042*
X05715Y04213*
X05705Y04223*
X05692Y0423*
X05679Y04234*
G37*
G36*
X05452D02*
X05438D01*
X05424Y0423*
X05412Y04223*
X05402Y04213*
X05394Y042*
X05391Y04187*
Y04172*
X05394Y04159*
X05402Y04146*
X05412Y04136*
X05424Y04129*
X05438Y04125*
X05452*
X05466Y04129*
X05478Y04136*
X05488Y04146*
X05496Y04159*
X05499Y04172*
Y04187*
X05496Y042*
X05488Y04213*
X05478Y04223*
X05466Y0423*
X05452Y04234*
G37*
G36*
X05226D02*
X05212D01*
X05198Y0423*
X05185Y04223*
X05175Y04213*
X05168Y042*
X05164Y04187*
Y04172*
X05168Y04159*
X05175Y04146*
X05185Y04136*
X05198Y04129*
X05212Y04125*
X05226*
X0524Y04129*
X05252Y04136*
X05262Y04146*
X05269Y04159*
X05273Y04172*
Y04187*
X05269Y042*
X05262Y04213*
X05252Y04223*
X0524Y0423*
X05226Y04234*
G37*
G36*
X04999D02*
X04985D01*
X04971Y0423*
X04959Y04223*
X04949Y04213*
X04942Y042*
X04938Y04187*
Y04172*
X04942Y04159*
X04949Y04146*
X04959Y04136*
X04971Y04129*
X04985Y04125*
X04999*
X05013Y04129*
X05026Y04136*
X05036Y04146*
X05043Y04159*
X05046Y04172*
Y04187*
X05043Y042*
X05036Y04213*
X05026Y04223*
X05013Y0423*
X04999Y04234*
G37*
G36*
X0482Y04177D02*
X04768D01*
Y04125*
X04773*
X04787Y04129*
X04799Y04136*
X04809Y04146*
X04816Y04159*
X0482Y04172*
Y04177*
G37*
G36*
X04763D02*
X04712D01*
Y04172*
X04715Y04159*
X04723Y04146*
X04733Y04136*
X04745Y04129*
X04759Y04125*
X04763*
Y04177*
G37*
G36*
X04547Y04234D02*
X04532D01*
X04519Y0423*
X04506Y04223*
X04496Y04213*
X04489Y042*
X04485Y04187*
Y04172*
X04489Y04159*
X04496Y04146*
X04506Y04136*
X04519Y04129*
X04532Y04125*
X04547*
X0456Y04129*
X04573Y04136*
X04583Y04146*
X0459Y04159*
X04594Y04172*
Y04187*
X0459Y042*
X04583Y04213*
X04573Y04223*
X0456Y0423*
X04547Y04234*
G37*
G36*
X02204Y04612D02*
X02195D01*
X02187Y04609*
X0218Y04602*
X02177Y04594*
Y04585*
X0218Y04577*
X02187Y0457*
X02195Y04567*
X02204*
X02325Y04445*
X0233Y04443*
X02335Y04442*
X029*
X02907Y04435*
Y03714*
X029Y03707*
X02897Y03699*
Y0369*
X029Y03682*
X02907Y03675*
X02915Y03672*
X02924*
X02932Y03675*
X02939Y03682*
X03005*
X03009Y03683*
X03014Y03685*
X03065Y03737*
X03074*
X03082Y0374*
X03089Y03747*
X03092Y03755*
Y03764*
X03089Y03772*
X03082Y03779*
X03074Y03782*
X03065*
X03057Y03779*
X0305Y03772*
X03047Y03764*
Y03755*
X02999Y03707*
X02939*
X02932Y03714*
Y04435*
X02939Y04442*
X02942Y0445*
Y04459*
X02939Y04467*
X02932Y04474*
X02924Y04477*
X02915*
X02907Y04474*
X029Y04467*
X0234*
X02222Y04585*
Y04585*
Y04594*
X02219Y04602*
X02212Y04609*
X02204Y04612*
G37*
G36*
X01484Y03339D02*
X01482D01*
Y03307*
X01514*
Y03309*
X01512Y03318*
X01507Y03326*
X01501Y03332*
X01493Y03337*
X01484Y03339*
G37*
G36*
X01477D02*
X01475D01*
X01466Y03337*
X01458Y03332*
X01452Y03326*
X01447Y03318*
X01445Y03309*
Y03307*
X01477*
Y03339*
G37*
G36*
X01684D02*
X01675D01*
X01666Y03337*
X01658Y03332*
X01652Y03326*
X01647Y03318*
X01645Y03309*
Y033*
X01647Y03291*
X01652Y03283*
X01658Y03277*
X01666Y03272*
X01675Y0327*
X01684*
X01693Y03272*
X01701Y03277*
X01707Y03283*
X01712Y03291*
X01714Y033*
Y03309*
X01712Y03318*
X01707Y03326*
X01701Y03332*
X01693Y03337*
X01684Y03339*
G37*
G36*
X01584D02*
X01575D01*
X01566Y03337*
X01558Y03332*
X01552Y03326*
X01547Y03318*
X01545Y03309*
Y033*
X01547Y03291*
X01552Y03283*
X01558Y03277*
X01566Y03272*
X01575Y0327*
X01584*
X01593Y03272*
X01601Y03277*
X01607Y03283*
X01612Y03291*
X01614Y033*
Y03309*
X01612Y03318*
X01607Y03326*
X01601Y03332*
X01593Y03337*
X01584Y03339*
G37*
G36*
X01514Y03302D02*
X01482D01*
Y0327*
X01484*
X01493Y03272*
X01501Y03277*
X01507Y03283*
X01512Y03291*
X01514Y033*
Y03302*
G37*
G36*
X01477D02*
X01445D01*
Y033*
X01447Y03291*
X01452Y03283*
X01458Y03277*
X01466Y03272*
X01475Y0327*
X01477*
Y03302*
G37*
G36*
X01814Y03339D02*
X01745D01*
Y03292*
X01719Y03266*
X01716Y03261*
X01715Y03255*
Y03223*
X0171Y03221*
X01707Y03226*
X01701Y03232*
X01693Y03237*
X01684Y03239*
X01675*
X01666Y03237*
X01658Y03232*
X01652Y03226*
X01647Y03218*
X01645Y03209*
Y032*
X01647Y03191*
X01652Y03183*
X01658Y03177*
X01666Y03172*
X01675Y0317*
X01684*
X01687Y03171*
X0169Y03166*
X01578Y03055*
X01545*
X01539Y03054*
X01534Y0305*
X01364Y0288*
X0136Y02875*
X01359Y0287*
Y02416*
X01355Y02412*
X01352Y02404*
Y02395*
X01355Y02387*
X01359Y02383*
Y01785*
X0136Y01779*
X01364Y01774*
X01694Y01444*
X01699Y0144*
X01705Y01439*
X01802*
X01808Y0144*
X01813Y01444*
X01813Y01444*
X01843*
X01847Y0144*
X01855Y01437*
X01864*
X01869Y01439*
X0266*
X02663Y0144*
X0267Y01437*
X02679*
X02687Y0144*
X02694Y01447*
X02697Y01455*
Y01464*
X02694Y01472*
X02687Y01479*
X02679Y01482*
X0267*
X02662Y01479*
X02655Y01472*
X02655Y01471*
X02654Y0147*
X02653Y0147*
X0188*
X01879Y01472*
X01872Y01479*
X01864Y01482*
X01855*
X01847Y01479*
X01843Y01475*
X01807*
X01801Y01474*
X01796Y0147*
X01796Y0147*
X01711*
X0139Y01791*
Y02383*
X01394Y02387*
X01397Y02395*
Y02404*
X01394Y02412*
X0139Y02416*
Y02863*
X01551Y03024*
X01585*
X0159Y03025*
X01595Y03029*
X01741Y03174*
X01744Y03179*
X01745Y03185*
X01746Y03185*
X0175Y03186*
X01752Y03183*
X01758Y03177*
X01766Y03172*
X01775Y0317*
X01784*
X01793Y03172*
X01801Y03177*
X01807Y03183*
X01812Y03191*
X01814Y032*
Y03209*
X01812Y03218*
X01807Y03226*
X01801Y03232*
X01793Y03237*
X01784Y03239*
X01775*
X01766Y03237*
X01758Y03232*
X01752Y03226*
X0175Y03223*
X01745Y03224*
Y03249*
X01767Y0327*
X01792*
X01864Y03199*
X01869Y03195*
X01875Y03194*
X02103*
X02107Y0319*
X02115Y03187*
X02124*
X02132Y0319*
X02139Y03197*
X02142Y03205*
Y03214*
X02139Y03222*
X02132Y03229*
X02124Y03232*
X02115*
X02107Y03229*
X02103Y03225*
X01881*
X01814Y03292*
Y03339*
G37*
G36*
X01584Y03239D02*
X01575D01*
X01566Y03237*
X01558Y03232*
X01552Y03226*
X01547Y03218*
X01545Y03209*
Y032*
X01547Y03191*
X01552Y03183*
X01558Y03177*
X01566Y03172*
X01575Y0317*
X01584*
X01593Y03172*
X01601Y03177*
X01607Y03183*
X01612Y03191*
X01614Y032*
Y03209*
X01612Y03218*
X01607Y03226*
X01601Y03232*
X01593Y03237*
X01584Y03239*
G37*
G36*
X01484D02*
X01475D01*
X01466Y03237*
X01458Y03232*
X01452Y03226*
X01447Y03218*
X01445Y03209*
Y032*
X01447Y03191*
X01452Y03183*
X01458Y03177*
X01466Y03172*
X01475Y0317*
X01484*
X01493Y03172*
X01501Y03177*
X01507Y03183*
X01512Y03191*
X01514Y032*
Y03209*
X01512Y03218*
X01507Y03226*
X01501Y03232*
X01493Y03237*
X01484Y03239*
G37*
G36*
X05159Y04832D02*
X0515D01*
X05142Y04829*
X05135Y04822*
X05132Y04814*
Y04805*
X05135Y04797*
X05142Y0479*
X05144Y04789*
Y04764*
X04955Y04575*
X04585*
X04581Y04574*
X04577Y04572*
X03527Y03522*
X03525Y03518*
X03524Y03515*
Y03129*
X03521Y03126*
X03516Y03128*
Y03532*
X04607Y04622*
X04609Y04626*
X0461Y0463*
Y04784*
X04612Y04785*
X04619Y04792*
X04622Y048*
Y04809*
X04619Y04817*
X04612Y04824*
X04604Y04827*
X04595*
X04587Y04824*
X0458Y04817*
X04577Y04809*
Y048*
X0458Y04792*
X04587Y04785*
X04589Y04784*
Y04634*
X03499Y03543*
X03497Y0354*
X03496Y03536*
Y03133*
X03495Y03132*
X0349Y03135*
Y0355*
X04347Y04407*
X04349Y04411*
X0435Y04415*
Y04784*
X04352Y04785*
X04359Y04792*
X04362Y048*
Y04809*
X04359Y04817*
X04352Y04824*
X04344Y04827*
X04335*
X04327Y04824*
X0432Y04817*
X04317Y04809*
Y048*
X0432Y04792*
X04327Y04785*
X04329Y04784*
Y04419*
X03472Y03562*
X0347Y03558*
X03469Y03555*
Y03131*
X0331Y02971*
X03305Y02973*
Y04004*
X03307Y04005*
X03314Y04012*
X03317Y0402*
Y04029*
X03314Y04037*
X03307Y04044*
X03299Y04047*
X0329*
X03282Y04044*
X03275Y04037*
X03272Y04029*
Y0402*
X03275Y04012*
X03282Y04005*
X03284Y04004*
Y02974*
X0326Y02949*
X03255Y02951*
Y04004*
X03257Y04005*
X03264Y04012*
X03267Y0402*
Y04029*
X03264Y04037*
X03257Y04044*
X03249Y04047*
X0324*
X03232Y04044*
X03225Y04037*
X03222Y04029*
Y0402*
X03225Y04012*
X03232Y04005*
X03234Y04004*
Y02952*
X0321Y02928*
X03205Y0293*
Y04004*
X03207Y04005*
X03214Y04012*
X03217Y0402*
Y04029*
X03214Y04037*
X03207Y04044*
X03199Y04047*
X0319*
X03182Y04044*
X03175Y04037*
X03172Y04029*
Y0402*
X03175Y04012*
X03182Y04005*
X03184Y04004*
Y0293*
X0316Y02906*
X03155Y02908*
Y04004*
X03157Y04005*
X03164Y04012*
X03167Y0402*
Y04029*
X03164Y04037*
X03157Y04044*
X03149Y04047*
X0314*
X03132Y04044*
X03125Y04037*
X03122Y04029*
Y0402*
X03125Y04012*
X03132Y04005*
X03134Y04004*
Y02909*
X0242Y02195*
X01939*
X01907Y02227*
X01903Y02229*
X019Y0223*
X0169*
X01689Y02232*
X01682Y02239*
X01674Y02242*
X01665*
X01657Y02239*
X0165Y02232*
X01647Y02224*
Y02215*
X0165Y02207*
X01657Y022*
X01665Y02197*
X01674*
X01682Y022*
X01689Y02207*
X0169Y02209*
X01895*
X0191Y02195*
X01908Y0219*
X01845*
X01844Y02192*
X01837Y02199*
X01829Y02202*
X0182*
X01812Y02199*
X01805Y02192*
X01802Y02184*
Y02175*
X01805Y02167*
X01812Y0216*
X0182Y02157*
X01829*
X01837Y0216*
X01844Y02167*
X01845Y02169*
X01907*
X01919Y02157*
X01922Y02155*
X01926Y02154*
X02429*
X02431Y02149*
X02427Y02145*
X01745*
X01744Y02147*
X01737Y02154*
X01729Y02157*
X0172*
X01712Y02154*
X01705Y02147*
X01702Y02139*
Y0213*
X01705Y02122*
X01712Y02115*
X0172Y02112*
X01729*
X01737Y02115*
X01744Y02122*
X01745Y02124*
X01763*
X01764Y02119*
X01762Y02119*
X01755Y02112*
X01752Y02104*
Y02095*
X01755Y02087*
X01762Y0208*
X0177Y02077*
X01779*
X01787Y0208*
X01794Y02087*
X01795Y02089*
X02228*
X0223Y02084*
X01927Y01781*
X01924Y01782*
X01915*
X01907Y01779*
X019Y01772*
X01897Y01764*
Y01755*
X019Y01747*
X01907Y0174*
X01915Y01737*
X01924*
X01932Y0174*
X01939Y01747*
X01942Y01755*
Y01764*
X01941Y01767*
X02244Y02069*
X02429*
X02431Y02064*
X02082Y01715*
X0194*
X01939Y01717*
X01932Y01724*
X01924Y01727*
X01915*
X01907Y01724*
X019Y01717*
X01897Y01709*
Y017*
X019Y01692*
X01907Y01685*
X01915Y01682*
X01924*
X01932Y01685*
X01939Y01692*
X0194Y01694*
X02086*
X0209Y01695*
X02093Y01697*
X03474Y03078*
X03479Y03076*
Y03045*
X03477Y03044*
X0347Y03037*
X03467Y03029*
Y0302*
X0347Y03012*
X03477Y03005*
X03485Y03002*
X03494*
X03502Y03005*
X03509Y03012*
X03512Y0302*
Y03029*
X03509Y03037*
X03502Y03044*
X035Y03045*
Y03076*
X03542Y03118*
X03544Y03121*
X03545Y03125*
Y0351*
X04589Y04554*
X0496*
X04963Y04555*
X04967Y04557*
X05162Y04752*
X05164Y04756*
X05165Y0476*
Y04789*
X05167Y0479*
X05174Y04797*
X05177Y04805*
Y04814*
X05174Y04822*
X05167Y04829*
X05159Y04832*
G37*
G36*
X02809Y03052D02*
X028D01*
X02792Y03049*
X02785Y03042*
X02784Y0304*
X02605*
X02604Y03042*
X02597Y03049*
X02589Y03052*
X0258*
X02572Y03049*
X02565Y03042*
X02562Y03034*
Y03025*
X02565Y03017*
X02572Y0301*
X0258Y03007*
X02589*
X02597Y0301*
X02604Y03017*
X02605Y03019*
X02784*
X02785Y03017*
X02792Y0301*
X028Y03007*
X02809*
X02817Y0301*
X02824Y03017*
X02827Y03025*
Y03034*
X02824Y03042*
X02817Y03049*
X02809Y03052*
G37*
G36*
X02109Y03047D02*
X021D01*
X02092Y03044*
X02085Y03037*
X02084Y03035*
X0187*
X01866Y03034*
X01862Y03032*
X01732Y02901*
X01729Y02902*
X0172*
X01712Y02899*
X01705Y02892*
X01702Y02884*
Y02875*
X01705Y02867*
X01712Y0286*
X0172Y02857*
X01729*
X01737Y0286*
X01744Y02867*
X01747Y02875*
Y02884*
X01746Y02887*
X01874Y03014*
X02084*
X02085Y03012*
X02092Y03005*
X021Y03002*
X02109*
X02117Y03005*
X02124Y03012*
X02127Y0302*
Y03029*
X02124Y03037*
X02117Y03044*
X02109Y03047*
G37*
G36*
X02194Y03962D02*
X02185D01*
X02177Y03959*
X0217Y03952*
X02167Y03944*
Y03935*
X0217Y03927*
X02177Y0392*
X02179Y03919*
Y0294*
X0218Y02936*
X02182Y02932*
X02444Y02671*
X02442Y02668*
X0244Y02659*
Y0265*
X02442Y02641*
X02444Y02638*
X02415Y02609*
X02019*
X02015Y02608*
X02012Y02606*
X01896Y02491*
X01894Y02488*
X01894Y02484*
X01892Y02484*
X01885Y02477*
X01882Y02469*
Y0246*
X01885Y02452*
X01892Y02445*
X019Y02442*
X01909*
X01917Y02445*
X01924Y02452*
X01927Y0246*
Y02469*
X01924Y02477*
X01918Y02483*
X02023Y02589*
X0234*
Y02534*
X02138Y02333*
X02137Y02334*
X02129Y02337*
X0212*
X02112Y02334*
X02105Y02327*
X02102Y02319*
Y0231*
X02105Y02302*
X02112Y02295*
X0212Y02292*
X02129*
X02137Y02295*
X02144Y02302*
X02147Y0231*
Y02313*
X02354Y0252*
X02409*
Y02589*
X02419*
X02423Y0259*
X02426Y02592*
X02458Y02624*
X02461Y02622*
X0247Y0262*
X02479*
X02488Y02622*
X02496Y02627*
X02502Y02633*
X02507Y02641*
X02509Y0265*
Y02659*
X02507Y02668*
X02502Y02676*
X02496Y02682*
X02488Y02687*
X02479Y02689*
X0247*
X02461Y02687*
X02458Y02685*
X022Y02944*
Y03919*
X02202Y0392*
X02207Y03926*
X0221Y03925*
X02212Y03923*
Y03915*
X02214Y03909*
Y02985*
X02215Y02981*
X02217Y02977*
X02505Y0269*
X02517Y02678*
Y02631*
X02477Y02591*
X02475Y02589*
X0247*
X02461Y02587*
X02453Y02582*
X02447Y02576*
X02442Y02568*
X0244Y02559*
Y0255*
X02442Y02541*
X02443Y0254*
X02208Y02305*
X02204Y02307*
X02195*
X02187Y02304*
X0218Y02297*
X02177Y02289*
Y0228*
X0218Y02272*
X02187Y02265*
X02195Y02262*
X02204*
X02212Y02265*
X02219Y02272*
X02222Y0228*
Y02289*
X02222Y0229*
X02457Y02525*
X02461Y02522*
X0247Y0252*
X02479*
X02488Y02522*
X02496Y02527*
X02502Y02533*
X02507Y02541*
X02509Y0255*
Y02559*
X02507Y02568*
X02502Y02576*
X02496Y02582*
X02534Y0262*
X02537Y02623*
X02537Y02627*
Y0264*
X02542Y02641*
X02547Y02633*
X02553Y02627*
X02561Y02622*
X0257Y0262*
X02572*
Y02655*
Y02689*
X0257*
X02561Y02687*
X02553Y02682*
X02547Y02676*
X02542Y02668*
X02537Y02669*
Y02682*
X02537Y02686*
X02534Y02689*
X02519Y02704*
X02235Y02989*
Y03897*
X02239*
X02243Y03898*
X02245Y03896*
X02247Y03895*
Y03886*
X0225Y03878*
X02256Y03872*
X02259Y03871*
Y03014*
X02257Y03014*
X0225Y03007*
X02247Y02999*
Y0299*
X0225Y02982*
X02257Y02975*
X02265Y02972*
X02274*
X02282Y02975*
X02289Y02982*
X02292Y0299*
Y02999*
X02289Y03007*
X02282Y03014*
X02279Y03015*
Y03871*
X02282Y03872*
X02288Y03878*
X02292Y03886*
Y03895*
X02288Y03903*
X02282Y0391*
X02274Y03913*
X02265*
X02261Y03912*
X02258Y03914*
X02257Y03915*
Y03924*
X02254Y03932*
X02247Y03939*
X02239Y03942*
X0223*
X02222Y03939*
X02217Y03933*
X02214Y03934*
X02212Y03936*
Y03944*
X02209Y03952*
X02202Y03959*
X02194Y03962*
G37*
G36*
X01529Y02897D02*
X0152D01*
X01512Y02894*
X01505Y02887*
X01504Y02885*
X01489*
X01485Y02884*
X01481Y02882*
X0144Y0284*
X01438Y02837*
X01437Y02833*
Y02097*
X01438Y02093*
X0144Y0209*
X01723Y01807*
X01722Y01804*
Y01795*
X01725Y01787*
X01732Y0178*
X0174Y01777*
X01749*
X01757Y0178*
X01764Y01787*
X01767Y01795*
Y01804*
X01764Y01812*
X01757Y01819*
X01749Y01822*
X0174*
X01737Y01821*
X01457Y02101*
Y02803*
X01462Y02805*
X01467Y028*
X01469Y02799*
Y02116*
X0147Y02112*
X01472Y02109*
X01613Y01968*
X01617Y01966*
X0162Y01965*
X01639*
X01763Y01841*
X01762Y01838*
Y01829*
X01765Y01821*
X01772Y01815*
X0178Y01811*
X01789*
X01797Y01815*
X01803Y01821*
X01807Y01829*
Y01838*
X01803Y01846*
X01797Y01853*
X01789Y01856*
X0178*
X01777Y01855*
X0165Y01982*
X01647Y01985*
X01643Y01985*
X01625*
X0149Y0212*
Y02799*
X01492Y028*
X01499Y02807*
X01502Y02815*
Y02824*
X01499Y02832*
X01492Y02839*
X01484Y02842*
X01478*
X01475Y02847*
X01493Y02864*
X01504*
X01505Y02862*
X01512Y02855*
X0152Y02852*
X01529*
X01537Y02855*
X01544Y02862*
X01547Y0287*
Y02879*
X01544Y02887*
X01537Y02894*
X01529Y02897*
G37*
G36*
X01924Y02892D02*
X01915D01*
X01907Y02889*
X019Y02882*
X01897Y02874*
Y02865*
X01898Y02862*
X01842Y02807*
X0184Y02803*
X01839Y028*
Y02594*
X01572Y02327*
X0157Y02323*
X01569Y0232*
Y0222*
X0157Y02216*
X01572Y02212*
X01731Y02054*
Y02053*
X0173Y02052*
X01729Y02048*
Y02025*
X01727Y02024*
X0172Y02017*
X01717Y02009*
Y02*
X0172Y01992*
X01727Y01985*
X01735Y01982*
X01744*
X01752Y01985*
X01759Y01992*
X01762Y02*
Y02009*
X01759Y02017*
X01752Y02024*
X0175Y02025*
Y02045*
X0175Y02046*
X01751Y0205*
Y02058*
X0175Y02062*
X01748Y02065*
X0159Y02224*
Y02315*
X01857Y02582*
X01859Y02586*
X0186Y0259*
Y02795*
X01912Y02848*
X01915Y02847*
X01924*
X01932Y0285*
X01939Y02857*
X01942Y02865*
Y02874*
X01939Y02882*
X01932Y02889*
X01924Y02892*
G37*
G36*
X0166Y02687D02*
X01658D01*
Y02669*
X01676*
Y02671*
X01673Y02678*
X01667Y02684*
X0166Y02687*
G37*
G36*
X01587D02*
X01586D01*
Y02669*
X01603*
Y02671*
X016Y02678*
X01595Y02684*
X01587Y02687*
G37*
G36*
X01653D02*
X01652D01*
X01644Y02684*
X01639Y02678*
X01636Y02671*
Y02669*
X01653*
Y02687*
G37*
G36*
X01581D02*
X01579D01*
X01572Y02684*
X01566Y02678*
X01563Y02671*
Y02669*
X01581*
Y02687*
G37*
G36*
X02579Y02689D02*
X02577D01*
Y02657*
X02609*
Y02659*
X02607Y02668*
X02602Y02676*
X02596Y02682*
X02588Y02687*
X02579Y02689*
G37*
G36*
X01676Y02664D02*
X01658D01*
Y02647*
X0166*
X01667Y0265*
X01673Y02655*
X01676Y02663*
Y02664*
G37*
G36*
X01653D02*
X01636D01*
Y02663*
X01639Y02655*
X01644Y0265*
X01652Y02647*
X01653*
Y02664*
G37*
G36*
X01603D02*
X01586D01*
Y02647*
X01587*
X01595Y0265*
X016Y02655*
X01603Y02663*
Y02664*
G37*
G36*
X01581D02*
X01563D01*
Y02663*
X01566Y02655*
X01572Y0265*
X01579Y02647*
X01581*
Y02664*
G37*
G36*
X01696Y02651D02*
X01694D01*
Y02633*
X01712*
Y02635*
X01709Y02642*
X01703Y02648*
X01696Y02651*
G37*
G36*
X01623D02*
X01622D01*
Y02633*
X0164*
Y02635*
X01636Y02642*
X01631Y02648*
X01623Y02651*
G37*
G36*
X01551D02*
X0155D01*
Y02633*
X01567*
Y02635*
X01564Y02642*
X01559Y02648*
X01551Y02651*
G37*
G36*
X01689D02*
X01688D01*
X0168Y02648*
X01675Y02642*
X01672Y02635*
Y02633*
X01689*
Y02651*
G37*
G36*
X01617D02*
X01616D01*
X01608Y02648*
X01603Y02642*
X016Y02635*
Y02633*
X01617*
Y02651*
G37*
G36*
X01545D02*
X01543D01*
X01536Y02648*
X0153Y02642*
X01527Y02635*
Y02633*
X01545*
Y02651*
G37*
G36*
X02609Y02652D02*
X02577D01*
Y0262*
X02579*
X02588Y02622*
X02596Y02627*
X02602Y02633*
X02607Y02641*
X02609Y0265*
Y02652*
G37*
G36*
X02379Y02689D02*
X0237D01*
X02361Y02687*
X02353Y02682*
X02347Y02676*
X02342Y02668*
X0234Y02659*
Y0265*
X02342Y02641*
X02347Y02633*
X02353Y02627*
X02361Y02622*
X0237Y0262*
X02379*
X02388Y02622*
X02396Y02627*
X02402Y02633*
X02407Y02641*
X02409Y0265*
Y02659*
X02407Y02668*
X02402Y02676*
X02396Y02682*
X02388Y02687*
X02379Y02689*
G37*
G36*
X01712Y02628D02*
X01694D01*
Y02611*
X01696*
X01703Y02614*
X01709Y02619*
X01712Y02627*
Y02628*
G37*
G36*
X01689D02*
X01672D01*
Y02627*
X01675Y02619*
X0168Y02614*
X01688Y02611*
X01689*
Y02628*
G37*
G36*
X0164D02*
X01622D01*
Y02611*
X01623*
X01631Y02614*
X01636Y02619*
X0164Y02627*
Y02628*
G37*
G36*
X01617D02*
X016D01*
Y02627*
X01603Y02619*
X01608Y02614*
X01616Y02611*
X01617*
Y02628*
G37*
G36*
X01567D02*
X0155D01*
Y02611*
X01551*
X01559Y02614*
X01564Y02619*
X01567Y02627*
Y02628*
G37*
G36*
X01545D02*
X01527D01*
Y02627*
X0153Y02619*
X01536Y02614*
X01543Y02611*
X01545*
Y02628*
G37*
G36*
X0166Y02615D02*
X01658D01*
Y02597*
X01676*
Y02598*
X01673Y02606*
X01667Y02611*
X0166Y02615*
G37*
G36*
X01587D02*
X01586D01*
Y02597*
X01603*
Y02598*
X016Y02606*
X01595Y02611*
X01587Y02615*
G37*
G36*
X01653D02*
X01652D01*
X01644Y02611*
X01639Y02606*
X01636Y02598*
Y02597*
X01653*
Y02615*
G37*
G36*
X01581D02*
X01579D01*
X01572Y02611*
X01566Y02606*
X01563Y02598*
Y02597*
X01581*
Y02615*
G37*
G36*
X01676Y02592D02*
X01658D01*
Y02575*
X0166*
X01667Y02578*
X01673Y02583*
X01676Y02591*
Y02592*
G37*
G36*
X01653D02*
X01636D01*
Y02591*
X01639Y02583*
X01644Y02578*
X01652Y02575*
X01653*
Y02592*
G37*
G36*
X01603D02*
X01586D01*
Y02575*
X01587*
X01595Y02578*
X016Y02583*
X01603Y02591*
Y02592*
G37*
G36*
X01581D02*
X01563D01*
Y02591*
X01566Y02583*
X01572Y02578*
X01579Y02575*
X01581*
Y02592*
G37*
G36*
X01696Y02578D02*
X01694D01*
Y02561*
X01712*
Y02562*
X01709Y0257*
X01703Y02575*
X01696Y02578*
G37*
G36*
X01623D02*
X01622D01*
Y02561*
X0164*
Y02562*
X01636Y0257*
X01631Y02575*
X01623Y02578*
G37*
G36*
X01551D02*
X0155D01*
Y02561*
X01567*
Y02562*
X01564Y0257*
X01559Y02575*
X01551Y02578*
G37*
G36*
X01689D02*
X01688D01*
X0168Y02575*
X01675Y0257*
X01672Y02562*
Y02561*
X01689*
Y02578*
G37*
G36*
X01617D02*
X01616D01*
X01608Y02575*
X01603Y0257*
X016Y02562*
Y02561*
X01617*
Y02578*
G37*
G36*
X01545D02*
X01543D01*
X01536Y02575*
X0153Y0257*
X01527Y02562*
Y02561*
X01545*
Y02578*
G37*
G36*
X01712Y02556D02*
X01694D01*
Y02538*
X01696*
X01703Y02541*
X01709Y02547*
X01712Y02554*
Y02556*
G37*
G36*
X01689D02*
X01672D01*
Y02554*
X01675Y02547*
X0168Y02541*
X01688Y02538*
X01689*
Y02556*
G37*
G36*
X0164D02*
X01622D01*
Y02538*
X01623*
X01631Y02541*
X01636Y02547*
X0164Y02554*
Y02556*
G37*
G36*
X01617D02*
X016D01*
Y02554*
X01603Y02547*
X01608Y02541*
X01616Y02538*
X01617*
Y02556*
G37*
G36*
X01567D02*
X0155D01*
Y02538*
X01551*
X01559Y02541*
X01564Y02547*
X01567Y02554*
Y02556*
G37*
G36*
X01545D02*
X01527D01*
Y02554*
X0153Y02547*
X01536Y02541*
X01543Y02538*
X01545*
Y02556*
G37*
G36*
X0166Y02542D02*
X01658D01*
Y02525*
X01676*
Y02526*
X01673Y02534*
X01667Y02539*
X0166Y02542*
G37*
G36*
X01587D02*
X01586D01*
Y02525*
X01603*
Y02526*
X016Y02534*
X01595Y02539*
X01587Y02542*
G37*
G36*
X01653D02*
X01652D01*
X01644Y02539*
X01639Y02534*
X01636Y02526*
Y02525*
X01653*
Y02542*
G37*
G36*
X01581D02*
X01579D01*
X01572Y02539*
X01566Y02534*
X01563Y02526*
Y02525*
X01581*
Y02542*
G37*
G36*
X02579Y02589D02*
X0257D01*
X02561Y02587*
X02553Y02582*
X02547Y02576*
X02542Y02568*
X0254Y02559*
Y0255*
X02542Y02541*
X02547Y02533*
X02553Y02527*
X02561Y02522*
X0257Y0252*
X02579*
X02588Y02522*
X02596Y02527*
X02602Y02533*
X02607Y02541*
X02609Y0255*
Y02559*
X02607Y02568*
X02602Y02576*
X02596Y02582*
X02588Y02587*
X02579Y02589*
G37*
G36*
X01676Y0252D02*
X01658D01*
Y02502*
X0166*
X01667Y02505*
X01673Y02511*
X01676Y02518*
Y0252*
G37*
G36*
X01653D02*
X01636D01*
Y02518*
X01639Y02511*
X01644Y02505*
X01652Y02502*
X01653*
Y0252*
G37*
G36*
X01603D02*
X01586D01*
Y02502*
X01587*
X01595Y02505*
X016Y02511*
X01603Y02518*
Y0252*
G37*
G36*
X01581D02*
X01563D01*
Y02518*
X01566Y02511*
X01572Y02505*
X01579Y02502*
X01581*
Y0252*
G37*
G36*
X02651Y01754D02*
X02568D01*
X02564Y01752*
X02563Y01748*
Y01672*
X02504*
X025Y0167*
X02498Y01667*
Y01576*
X025Y01572*
X02504Y01571*
X02846*
X0285Y01572*
X02852Y01576*
Y01667*
X0285Y0167*
X02846Y01672*
X02656*
Y01748*
X02655Y01752*
X02651Y01754*
G37*
G36*
X01838Y01418D02*
X01829D01*
X01821Y01416*
X01813Y01411*
X01807Y01405*
X01803Y01398*
X01801Y01389*
Y01381*
X01803Y01372*
X01807Y01365*
X01813Y01358*
X01821Y01354*
X01829Y01352*
X01838*
X01846Y01354*
X01854Y01358*
X0186Y01365*
X01865Y01372*
X01867Y01381*
Y01389*
X01865Y01398*
X0186Y01405*
X01854Y01411*
X01846Y01416*
X01838Y01418*
G37*
G36*
X0174D02*
X01731D01*
X01723Y01416*
X01715Y01411*
X01709Y01405*
X01704Y01398*
X01702Y01389*
Y01381*
X01704Y01372*
X01709Y01365*
X01715Y01358*
X01723Y01354*
X01731Y01352*
X0174*
X01748Y01354*
X01756Y01358*
X01762Y01365*
X01766Y01372*
X01768Y01381*
Y01389*
X01766Y01398*
X01762Y01405*
X01756Y01411*
X01748Y01416*
X0174Y01418*
G37*
G36*
X01838Y01339D02*
X01836D01*
Y01309*
X01867*
Y01311*
X01865Y01319*
X0186Y01327*
X01854Y01333*
X01846Y01337*
X01838Y01339*
G37*
G36*
X01831D02*
X01829D01*
X01821Y01337*
X01813Y01333*
X01807Y01327*
X01803Y01319*
X01801Y01311*
Y01309*
X01831*
Y01339*
G37*
G36*
X01867Y01304D02*
X01836D01*
Y01273*
X01838*
X01846Y01275*
X01854Y0128*
X0186Y01286*
X01865Y01293*
X01867Y01302*
Y01304*
G37*
G36*
X01831D02*
X01801D01*
Y01302*
X01803Y01293*
X01807Y01286*
X01813Y0128*
X01821Y01275*
X01829Y01273*
X01831*
Y01304*
G37*
G36*
X0174Y01339D02*
X01731D01*
X01723Y01337*
X01715Y01333*
X01709Y01327*
X01704Y01319*
X01702Y01311*
Y01302*
X01704Y01293*
X01709Y01286*
X01715Y0128*
X01723Y01275*
X01731Y01273*
X0174*
X01748Y01275*
X01756Y0128*
X01762Y01286*
X01766Y01293*
X01768Y01302*
Y01311*
X01766Y01319*
X01762Y01327*
X01756Y01333*
X01748Y01337*
X0174Y01339*
G37*
G36*
X02029Y01255D02*
X02014D01*
X02Y01251*
X01988Y01244*
X01977Y01233*
X0197Y01221*
X01966Y01207*
Y01192*
X0197Y01178*
X01977Y01166*
X01988Y01155*
X02Y01148*
X02014Y01144*
X02029*
X02043Y01148*
X02055Y01155*
X02066Y01166*
X02073Y01178*
X02077Y01192*
Y01207*
X02073Y01221*
X02066Y01233*
X02055Y01244*
X02043Y01251*
X02029Y01255*
G37*
G36*
X01555D02*
X0154D01*
X01526Y01251*
X01514Y01244*
X01503Y01233*
X01496Y01221*
X01492Y01207*
Y01192*
X01496Y01178*
X01503Y01166*
X01514Y01155*
X01526Y01148*
X0154Y01144*
X01555*
X01569Y01148*
X01581Y01155*
X01592Y01166*
X01599Y01178*
X01603Y01192*
Y01207*
X01599Y01221*
X01592Y01233*
X01581Y01244*
X01569Y01251*
X01555Y01255*
G37*
%LNpcb1-3*%
%LPD*%
G36*
X0243Y02119D02*
X0242Y0211D01*
X01795*
X01794Y02112*
X01787Y02119*
X01785Y02119*
X01786Y02124*
X02428*
X0243Y02119*
G37*
G54D15*
X03145Y02905D02*
Y04025D01*
X02425Y02185D02*
X03145Y02905D01*
X02585Y0303D02*
X02805D01*
X02269Y02995D02*
Y03891D01*
Y02995D02*
X0227Y02995D01*
X02512Y02697D02*
X02527Y02682D01*
X02512Y02697D02*
D01*
X0219Y0294D02*
Y0394D01*
X02225Y02985D02*
Y0391D01*
Y02985D02*
X02512Y02697D01*
X0219Y0294D02*
X02475Y02655D01*
X02527Y02661D02*
Y02682D01*
X02225Y0391D02*
X02235Y0392D01*
X0192Y01705D02*
X02086D01*
X01447Y02097D02*
Y02833D01*
X01489Y02875*
X0148Y02116D02*
Y0282D01*
X01489Y02875D02*
X01525D01*
X01447Y02097D02*
X01745Y018D01*
X0148Y02116D02*
X0162Y01975D01*
X0496Y04565D02*
X05155Y0476D01*
Y0481*
X04585Y04565D02*
X0496D01*
X03535Y03515D02*
X04585Y04565D01*
X03535Y03125D02*
Y03515D01*
X0349Y03025D02*
Y0308D01*
X03535Y03125*
X02086Y01705D02*
X03506Y03125D01*
Y03536*
X0224Y0208D02*
X02433D01*
X0348Y03126*
Y03555*
X0434Y04415*
X03506Y03536D02*
X046Y0463D01*
X0187Y03025D02*
X02105D01*
X01725Y0288D02*
X0187Y03025D01*
X0434Y04415D02*
Y04805D01*
X046Y0463D02*
Y04805D01*
X0192Y0176D02*
X0224Y0208D01*
X01725Y02135D02*
X02431D01*
X03195Y02926D02*
Y04025D01*
X01926Y02165D02*
X02433D01*
X02431Y02135D02*
X03245Y02948D01*
X02433Y02165D02*
X03195Y02926D01*
X01935Y02185D02*
X02425D01*
X03245Y02948D02*
Y04025D01*
X01775Y021D02*
X02424D01*
X03295Y0297*
Y04025*
X01911Y0218D02*
X01926Y02165D01*
X01825Y0218D02*
X01911D01*
X019Y0222D02*
X01935Y02185D01*
X0174Y02005D02*
Y02048D01*
X01741Y0205*
X0158Y0222D02*
Y0232D01*
Y0222D02*
X01741Y02058D01*
Y0205D02*
Y02058D01*
X0167Y0222D02*
X019D01*
X022Y02285D02*
X02202D01*
X02481Y02564*
X02484*
Y02584*
X02139Y02319D02*
X02375Y02555D01*
X02129Y02319D02*
X02139D01*
X02125Y02315D02*
X02129Y02319D01*
X0158Y0232D02*
X0185Y0259D01*
Y028*
X0137Y03085D02*
Y0412D01*
X01965Y04715*
X01997Y04701D02*
Y04712D01*
X0143Y04134D02*
X01997Y04701D01*
Y04712D02*
X02025Y0474D01*
X0143Y0309D02*
Y04134D01*
X01425Y03085D02*
X0143Y0309D01*
X02484Y02584D02*
X02527Y02627D01*
Y02661*
X02419Y02599D02*
X02475Y02655D01*
X02019Y02599D02*
X02419D01*
X01904Y02465D02*
Y02484D01*
X02019Y02599*
X01904Y02465D02*
X01905Y02465D01*
X01643Y01975D02*
X01784Y01834D01*
X0162Y01975D02*
X01643D01*
X0185Y028D02*
X0192Y0287D01*
G54D81*
X01807Y0146D02*
X0186D01*
X01705Y01455D02*
X01802D01*
X01807Y0146*
X0266Y01455D02*
X02665Y0146D01*
X02675*
X01855Y01455D02*
X0266D01*
X01375Y01785D02*
X01705Y01455D01*
X01375Y01785D02*
Y024D01*
Y0287*
X01545Y0304*
X0173Y03185D02*
Y03255D01*
X0178Y03305*
X01585Y0304D02*
X0173Y03185D01*
X01545Y0304D02*
X01585D01*
X01875Y0321D02*
X0212D01*
X0178Y03305D02*
X01875Y0321D01*
X02465Y0424D02*
X02685Y0402D01*
X0185Y0424D02*
X02465D01*
G54D82*
X0178Y04315D02*
X0202D01*
X02022Y04317*
X02647*
X0265Y0432*
X0168Y04215D02*
X0178Y04315D01*
X0168Y0404D02*
Y04215D01*
Y0404D02*
X01745Y03975D01*
X022Y0459D02*
X02335Y04455D01*
X0292*
X03005Y03695D02*
X0307Y0376D01*
X0292Y03695D02*
X03005D01*
X0292D02*
Y04455D01*
G54D83*
X05205Y01145D02*
Y01295D01*
X04805Y01398D02*
X04828Y01375D01*
X05125D02*
X05205Y01295D01*
X04805Y01398D02*
Y01444D01*
X04828Y01375D02*
X05125D01*
X04431Y01817D02*
X04805Y01444D01*
G54D84*
X0454Y0418D03*
X04766D03*
X04992D03*
X05219D03*
X05445D03*
X05671D03*
X06006Y01817D03*
X05219D03*
X04431D03*
G54D85*
X01692Y02631D03*
Y02558D03*
X01547Y02631D03*
Y02558D03*
X0162Y02631D03*
Y02558D03*
X01656Y02667D03*
Y02595D03*
Y02522D03*
X01583Y02667D03*
Y02522D03*
Y02595D03*
G54D86*
X01834Y01385D03*
X01735D03*
Y01306D03*
X01834D03*
G54D87*
X01547Y012D03*
X02022D03*
G54D88*
X05305Y01145D03*
X0178Y03305D03*
X01765Y04785D03*
X02465D03*
X03165D03*
X03865D03*
X02375Y02555D03*
G54D89*
X05205Y01145D03*
X05105D03*
X0148Y03205D03*
Y03305D03*
X0158Y03205D03*
Y03305D03*
X0168Y03205D03*
Y03305D03*
X0178Y03205D03*
X01865Y04785D03*
X02565D03*
X03265D03*
X03975D03*
X02575Y02655D03*
Y02555D03*
X02475Y02655D03*
Y02555D03*
X02375Y02655D03*
G54D90*
X05057Y01482D03*
X05352Y01407D03*
G54D91*
X0186Y0146D03*
X0282Y035D03*
X02965Y0346D03*
X0336Y0327D03*
X03005Y0313D03*
X0288Y0173D03*
X0213Y0156D03*
X0211Y01825D03*
X01995Y0204D03*
X02105Y02385D03*
X0179Y0241D03*
X0169Y02765D03*
X0197Y03485D03*
Y03655D03*
X01635Y0357D03*
X0213Y039D03*
X0147Y03935D03*
X0129Y0397D03*
X01225Y0392D03*
X0202Y04315D03*
X0265Y0432D03*
X01745Y03975D03*
X022Y0459D03*
X02805Y0303D03*
X02585D03*
X0227Y02995D03*
X02605Y0152D03*
X02485Y015D03*
X018Y0156D03*
X0176Y016D03*
X02675Y0146D03*
X0192Y01705D03*
X01375Y024D03*
X0148Y0282D03*
X0212Y0321D03*
X05155Y0481D03*
X0349Y03025D03*
X02105D03*
X01725Y0288D03*
X0307Y0376D03*
X0434Y04805D03*
X046D03*
X01725Y02135D03*
X0192Y0176D03*
X03245Y04025D03*
X03195D03*
X03145D03*
X03295D03*
X01775Y021D03*
X01825Y0218D03*
X0167Y0222D03*
X0174Y02005D03*
X022Y02285D03*
X02125Y02315D03*
X0137Y03085D03*
X01965Y04715D03*
X01425Y03085D03*
X02025Y0474D03*
X0219Y0394D03*
X02269Y03891D03*
X02235Y0392D03*
X0292Y03695D03*
Y04455D03*
X01905Y02465D03*
X01745Y018D03*
X0185Y0424D03*
X0246Y0426D03*
X02685Y0402D03*
X01784Y01834D03*
X01525Y02875D03*
X0192Y0287D03*
M02*