%FSTAX23Y23*%
%MOIN*%
%SFA1B1*%

%IPPOS*%
%ADD10C,0.007870*%
%ADD11C,0.005000*%
%ADD12C,0.006000*%
%ADD13C,0.003940*%
%ADD14C,0.000000*%
%ADD15C,0.010000*%
%ADD16C,0.008000*%
%ADD17C,0.002000*%
%ADD18C,0.003940*%
%LNpcb1-1*%
%LPD*%
G54D10*
X01323Y02215D02*
X01315D01*
X01323*
X02786Y03322D02*
X02778D01*
X02786*
X02312Y04073D02*
X02304D01*
X02312*
X01231Y03802D02*
X01223D01*
X01231*
X04928Y04855D02*
X0492D01*
X04928*
X03062Y01373D02*
X03054D01*
X03062*
X05055Y01195D02*
X05355D01*
X05055Y01095D02*
Y01195D01*
Y01095D02*
X05355D01*
Y01195*
X0143Y03355D02*
X0183D01*
X0143Y03155D02*
X0183D01*
Y03355*
X0143Y03155D02*
Y03355D01*
X01915Y04735D02*
Y04835D01*
X01715Y04735D02*
X01915D01*
X01715D02*
Y04835D01*
X01915*
X02615Y04735D02*
Y04835D01*
X02415Y04735D02*
X02615D01*
X02415D02*
Y04835D01*
X02615*
X03315Y04735D02*
Y04835D01*
X03115Y04735D02*
X03315D01*
X03115D02*
Y04835D01*
X03315*
X04025Y04735D02*
Y04835D01*
X03825Y04735D02*
X04025D01*
X03825D02*
Y04835D01*
X04025*
X02433Y02505D02*
X02625D01*
X02325D02*
X02625D01*
X02325Y02705D02*
X02625D01*
X02325Y02505D02*
Y02705D01*
X02625Y02505D02*
Y02705D01*
X02474Y01821D02*
X02513D01*
X02474Y01341D02*
Y01821D01*
X03025Y01302D02*
Y01821D01*
X02821D02*
X03025D01*
X02643D02*
X02734D01*
X02854Y01223D02*
X02966D01*
X02854D02*
Y01262D01*
X02533D02*
X02854D01*
G54D11*
X01889Y01387D02*
X01881D01*
X01889*
X0527Y04733D02*
X05284D01*
X0527Y04786D02*
X05284D01*
X02021Y02988D02*
X02033D01*
Y02889D02*
Y02988D01*
Y0228D02*
Y02378D01*
X02021Y0228D02*
X02033D01*
X01277Y02988D02*
X01289D01*
X01277Y0228D02*
Y02988D01*
Y0228D02*
X01289D01*
X01548Y01253D02*
Y01413D01*
X0187D02*
X02021D01*
Y01253D02*
Y01413D01*
X01548Y00795D02*
Y01144D01*
X02021Y00795D02*
Y01144D01*
X01548Y00795D02*
X02021D01*
X01548Y01413D02*
X01699D01*
X04899Y01555D02*
X0551D01*
X04899Y01334D02*
X0551D01*
X04899D02*
Y01555D01*
X0551Y01334D02*
Y01555D01*
X02792Y03538D02*
X03047D01*
Y03401D02*
Y03538D01*
X02792Y03401D02*
X03047D01*
X02792D02*
Y03538D01*
X02313Y03826D02*
Y03983D01*
X02096Y03826D02*
Y03983D01*
X01237Y04018D02*
X01492D01*
Y03881D02*
Y04018D01*
X01237Y03881D02*
X01492D01*
X01237D02*
Y04018D01*
X01934Y04388D02*
Y04394D01*
X01965Y04388D02*
Y04394D01*
Y04513D02*
Y04519D01*
X01934Y04513D02*
Y04519D01*
X02639Y0451D02*
Y04516D01*
X0267Y0451D02*
Y04516D01*
Y04388D02*
Y04394D01*
X02639Y04388D02*
Y04394D01*
X04995Y04786D02*
X05009D01*
X04995Y04733D02*
X05009D01*
X04999Y04872D02*
X05006D01*
X04999Y04837D02*
X05006D01*
X0472Y04786D02*
X04734D01*
X0472Y04733D02*
X04734D01*
X04445Y04786D02*
X04459D01*
X04445Y04733D02*
X04459D01*
G54D12*
X0332Y0448D02*
X0331Y04477D01*
X03302Y0447*
X033Y0446*
X03302Y0445*
X0331Y04442*
X0332Y0444*
Y04522D02*
X03315Y04532D01*
X03305Y04537*
X0312Y04398D02*
X03124Y04387D01*
X03135Y04383*
X03305D02*
X03315Y04387D01*
X0332Y04398*
X03135Y04537D02*
X03124Y04532D01*
X0312Y04522*
X0402Y04485D02*
X0401Y04482D01*
X04002Y04475*
X04Y04465*
X04002Y04455*
X0401Y04447*
X0402Y04445*
Y04527D02*
X04015Y04537D01*
X04005Y04542*
X0382Y04403D02*
X03824Y04392D01*
X03835Y04388*
X04005D02*
X04015Y04392D01*
X0402Y04403*
X03835Y04542D02*
X03824Y04537D01*
X0382Y04527*
X01671Y03846D02*
X01839D01*
X01671Y04054D02*
X01839D01*
X0332Y04398D02*
Y04522D01*
X0312Y04398D02*
Y04522D01*
X03135Y04537D02*
X03305D01*
X03135Y04383D02*
X03305D01*
X01661Y04379D02*
Y04547D01*
X01869Y04379D02*
Y04547D01*
X02574Y04376D02*
Y04544D01*
X02366Y04376D02*
Y04544D01*
X0402Y04403D02*
Y04527D01*
X0382Y04403D02*
Y04527D01*
X03835Y04542D02*
X04005D01*
X03835Y04388D02*
X04005D01*
G54D13*
X02127Y04756D03*
G54D14*
X05217Y0487D02*
X0521Y04875D01*
Y04866*
X05217Y0487*
X04667D02*
X0466Y04875D01*
Y04866*
X04667Y0487*
X04393D02*
X04386Y04875D01*
Y04866*
X04393Y0487*
G54D15*
X04274Y0166D02*
Y04416D01*
Y0166D02*
X06164D01*
X04274Y04416D02*
X06164D01*
Y0166D02*
Y04416D01*
X0516Y02915D02*
Y02974D01*
X0519*
X052Y02964*
Y02945*
X0519Y02935*
X0516*
X05259Y02964D02*
X05249Y02974D01*
X0523*
X0522Y02964*
Y02955*
X0523Y02945*
X05249*
X05259Y02935*
Y02925*
X05249Y02915*
X0523*
X0522Y02925*
X05279Y02915D02*
X05299D01*
X05289*
Y02974*
X05279Y02964*
X01625Y04082D02*
X01658Y04049D01*
X01625D02*
X01658Y04082D01*
X01625Y04065D02*
X01658D01*
X01641Y04049D02*
Y04082D01*
X01897Y04593D02*
X01864Y04559D01*
Y04593D02*
X01897Y04559D01*
X0188Y04593D02*
Y04559D01*
X01864Y04576D02*
X01897D01*
X02602Y0459D02*
X02569Y04556D01*
Y0459D02*
X02602Y04556D01*
X02585Y0459D02*
Y04556D01*
X02569Y04573D02*
X02602D01*
G54D16*
X01577Y01999D02*
Y02021D01*
X01609*
X01577Y01909D02*
Y01931D01*
Y01909D02*
X01609D01*
X01757D02*
X01789D01*
X01757D02*
Y01931D01*
Y02021D02*
X01789D01*
X01757Y01999D02*
Y02021D01*
X05126Y04745D02*
Y04784D01*
X05146*
X05153Y04778*
Y04765*
X05146Y04758*
X05126*
X0514D02*
X05153Y04745D01*
X05186D02*
Y04784D01*
X05166Y04765*
X05193*
X01593Y02824D02*
Y02791D01*
X016Y02785*
X01613*
X0162Y02791*
Y02824*
X01633Y02785D02*
X01646D01*
X01639*
Y02824*
X01633Y02818*
X01846Y03225D02*
X0188D01*
X01846Y03191*
Y03183*
X01855Y03175*
X01871*
X0188Y03183*
X0186Y03325D02*
X01843D01*
X01851*
Y03275*
X0186Y03283*
X0142Y03275D02*
X01386D01*
Y03283*
X0142Y03316*
Y03325*
Y03183D02*
X01411Y03175D01*
X01395*
X01386Y03183*
Y03191*
X01395Y032*
X01386Y03208*
Y03216*
X01395Y03225*
X01411*
X0142Y03216*
Y03208*
X01411Y032*
X0142Y03191*
Y03183*
X01411Y032D02*
X01395D01*
X02295Y02535D02*
X02311D01*
X02303*
Y02584*
X02295Y02576*
X02308Y02635D02*
X02275D01*
X02308Y02668*
Y02676*
X02299Y02684*
X02283*
X02275Y02676*
X02668Y02584D02*
X02635D01*
Y02559*
X02651Y02568*
X02659*
X02668Y02559*
Y02543*
X02659Y02535*
X02643*
X02635Y02543*
X02668Y02684D02*
X02651Y02676D01*
X02635Y02659*
Y02643*
X02643Y02635*
X02659*
X02668Y02643*
Y02651*
X02659Y02659*
X02635*
X01811Y01734D02*
Y01701D01*
X01818Y01695*
X01831*
X01838Y01701*
Y01734*
X01851Y01701D02*
X01858Y01695D01*
X01871*
X01878Y01701*
Y01728*
X01871Y01734*
X01858*
X01851Y01728*
Y01721*
X01858Y01715*
X01878*
X02026Y04744D02*
Y04711D01*
X02033Y04705*
X02046*
X02053Y04711*
Y04744*
X02066Y04738D02*
X02073Y04744D01*
X02086*
X02093Y04738*
Y04731*
X02086Y04725*
X02093Y04718*
Y04711*
X02086Y04705*
X02073*
X02066Y04711*
Y04718*
X02073Y04725*
X02066Y04731*
Y04738*
X02073Y04725D02*
X02086D01*
X01326Y03974D02*
Y03941D01*
X01333Y03935*
X01346*
X01353Y03941*
Y03974*
X01366D02*
X01393D01*
Y03968*
X01366Y03941*
Y03935*
X02886Y03494D02*
Y03461D01*
X02893Y03455*
X02906*
X02913Y03461*
Y03494*
X02953D02*
X02939Y03488D01*
X02926Y03475*
Y03461*
X02933Y03455*
X02946*
X02953Y03461*
Y03468*
X02946Y03475*
X02926*
X01731Y04494D02*
Y04461D01*
X01738Y04455*
X01751*
X01758Y04461*
Y04494*
X01798D02*
X01771D01*
Y04475*
X01784Y04481*
X01791*
X01798Y04475*
Y04461*
X01791Y04455*
X01778*
X01771Y04461*
X02436Y04489D02*
Y04456D01*
X02443Y0445*
X02456*
X02463Y04456*
Y04489*
X02496Y0445D02*
Y04489D01*
X02476Y0447*
X02503*
X01721Y03969D02*
Y03936D01*
X01728Y0393*
X01741*
X01748Y03936*
Y03969*
X01761Y03963D02*
X01768Y03969D01*
X01781*
X01788Y03963*
Y03956*
X01781Y0395*
X01774*
X01781*
X01788Y03943*
Y03936*
X01781Y0393*
X01768*
X01761Y03936*
X02171Y03924D02*
Y03891D01*
X02178Y03885*
X02191*
X02198Y03891*
Y03924*
X02238Y03885D02*
X02211D01*
X02238Y03911*
Y03918*
X02231Y03924*
X02218*
X02211Y03918*
X02301Y0277D02*
X02294Y02776D01*
X02281*
X02275Y0277*
Y02763*
X02281Y02756*
X02294*
X02301Y0275*
Y02743*
X02294Y02737*
X02281*
X02275Y02743*
X02341Y0277D02*
X02334Y02776D01*
X02321*
X02314Y0277*
Y02743*
X02321Y02737*
X02334*
X02341Y02743*
X02354Y02737D02*
Y02776D01*
X02374*
X02381Y0277*
Y02756*
X02374Y0275*
X02354*
X02368D02*
X02381Y02737D01*
X02421Y02776D02*
X02394D01*
Y02737*
X02421*
X02394Y02756D02*
X02408D01*
X02461Y02776D02*
X02434D01*
Y02737*
X02461*
X02434Y02756D02*
X02448D01*
X02474Y02737D02*
Y02776D01*
X02501Y02737*
Y02776*
X05153Y01425D02*
Y01464D01*
X05173*
X0518Y01458*
Y01445*
X05173Y01438*
X05153*
X05166D02*
X0518Y01425D01*
X05193Y01464D02*
Y01438D01*
X05206Y01425*
X05219Y01438*
Y01464*
X05233Y01425D02*
X05246D01*
X05239*
Y01464*
X05233Y01458*
X01985Y04439D02*
X02024D01*
Y04419*
X02018Y04413*
X02005*
X01998Y04419*
Y04439*
Y04426D02*
X01985Y04413D01*
Y044D02*
Y04386D01*
Y04393*
X02024*
X02018Y044*
X01985Y0434D02*
Y04366D01*
X02011Y0434*
X02018*
X02024Y04346*
Y0436*
X02018Y04366*
X01985Y04563D02*
X02024D01*
Y04543*
X02018Y04536*
X02005*
X01998Y04543*
Y04563*
Y04549D02*
X01985Y04536D01*
Y04523D02*
Y0451D01*
Y04516*
X02024*
X02018Y04523*
X01985Y0449D02*
Y04476D01*
Y04483*
X02024*
X02018Y0449*
X02695Y04444D02*
X02734D01*
Y04424*
X02728Y04418*
X02715*
X02708Y04424*
Y04444*
Y04431D02*
X02695Y04418D01*
Y04405D02*
Y04391D01*
Y04398*
X02734*
X02728Y04405*
Y04371D02*
X02734Y04365D01*
Y04351*
X02728Y04345*
X02701*
X02695Y04351*
Y04365*
X02701Y04371*
X02728*
X02695Y04548D02*
X02734D01*
Y04528*
X02728Y04521*
X02715*
X02708Y04528*
Y04548*
Y04534D02*
X02695Y04521D01*
X02701Y04508D02*
X02695Y04501D01*
Y04488*
X02701Y04481*
X02728*
X02734Y04488*
Y04501*
X02728Y04508*
X02721*
X02715Y04501*
Y04481*
X01526Y03765D02*
Y03804D01*
X01546*
X01553Y03798*
Y03785*
X01546Y03778*
X01526*
X0154D02*
X01553Y03765D01*
X01566Y03798D02*
X01573Y03804D01*
X01586*
X01593Y03798*
Y03791*
X01586Y03785*
X01593Y03778*
Y03771*
X01586Y03765*
X01573*
X01566Y03771*
Y03778*
X01573Y03785*
X01566Y03791*
Y03798*
X01573Y03785D02*
X01586D01*
X01526Y04085D02*
Y04124D01*
X01546*
X01553Y04118*
Y04105*
X01546Y04098*
X01526*
X0154D02*
X01553Y04085D01*
X01566Y04124D02*
X01593D01*
Y04118*
X01566Y04091*
Y04085*
X0169Y01868D02*
X01729D01*
Y01848*
X01723Y01841*
X0171*
X01703Y01848*
Y01868*
Y01854D02*
X0169Y01841D01*
X01729Y01801D02*
X01723Y01815D01*
X0171Y01828*
X01696*
X0169Y01821*
Y01808*
X01696Y01801*
X01703*
X0171Y01808*
Y01828*
X0187Y01868D02*
X01909D01*
Y01848*
X01903Y01841*
X0189*
X01883Y01848*
Y01868*
Y01854D02*
X0187Y01841D01*
X01909Y01801D02*
Y01828D01*
X0189*
X01896Y01815*
Y01808*
X0189Y01801*
X01876*
X0187Y01808*
Y01821*
X01876Y01828*
X04846Y0474D02*
Y04779D01*
X04866*
X04873Y04773*
Y0476*
X04866Y04753*
X04846*
X0486D02*
X04873Y0474D01*
X04886Y04773D02*
X04893Y04779D01*
X04906*
X04913Y04773*
Y04766*
X04906Y0476*
X049*
X04906*
X04913Y04753*
Y04746*
X04906Y0474*
X04893*
X04886Y04746*
X04571Y0474D02*
Y04779D01*
X04591*
X04598Y04773*
Y0476*
X04591Y04753*
X04571*
X04584D02*
X04598Y0474D01*
X04638D02*
X04611D01*
X04638Y04766*
Y04773*
X04631Y04779*
X04618*
X04611Y04773*
X04313Y0474D02*
Y04779D01*
X04333*
X0434Y04773*
Y0476*
X04333Y04753*
X04313*
X04326D02*
X0434Y0474D01*
X04353D02*
X04366D01*
X04359*
Y04779*
X04353Y04773*
X01598Y02046D02*
Y02073D01*
X01591Y02079*
X01578*
X01571Y02073*
Y02046*
X01578Y0204*
X01591*
X01585Y02053D02*
X01598Y0204D01*
X01591D02*
X01598Y02046D01*
X01638Y0204D02*
X01611D01*
X01638Y02066*
Y02073*
X01631Y02079*
X01618*
X01611Y02073*
X01775Y02046D02*
Y02073D01*
X01768Y02079*
X01755*
X01748Y02073*
Y02046*
X01755Y0204*
X01768*
X01761Y02053D02*
X01775Y0204D01*
X01768D02*
X01775Y02046D01*
X01788Y0204D02*
X01801D01*
X01794*
Y02079*
X01788Y02073*
X0537Y01178D02*
X05409D01*
Y01158*
X05403Y01151*
X0539*
X05383Y01158*
Y01178*
X05409Y01111D02*
Y01138D01*
X0539*
X05396Y01125*
Y01118*
X0539Y01111*
X05376*
X0537Y01118*
Y01131*
X05376Y01138*
X01641Y04765D02*
Y04804D01*
X01661*
X01668Y04798*
Y04785*
X01661Y04778*
X01641*
X01701Y04765D02*
Y04804D01*
X01681Y04785*
X01708*
X02336Y04765D02*
Y04804D01*
X02356*
X02363Y04798*
Y04785*
X02356Y04778*
X02336*
X02376Y04798D02*
X02383Y04804D01*
X02396*
X02403Y04798*
Y04791*
X02396Y04785*
X02389*
X02396*
X02403Y04778*
Y04771*
X02396Y04765*
X02383*
X02376Y04771*
X03036Y04765D02*
Y04804D01*
X03056*
X03063Y04798*
Y04785*
X03056Y04778*
X03036*
X03103Y04765D02*
X03076D01*
X03103Y04791*
Y04798*
X03096Y04804*
X03083*
X03076Y04798*
X03753Y04765D02*
Y04804D01*
X03773*
X0378Y04798*
Y04785*
X03773Y04778*
X03753*
X03793Y04765D02*
X03806D01*
X03799*
Y04804*
X03793Y04798*
X02488Y01912D02*
X02475D01*
X02481*
Y01879*
X02475Y01873*
X02468*
X02462Y01879*
X02528Y01873D02*
X02501D01*
X02528Y01899*
Y01906*
X02521Y01912*
X02508*
X02501Y01906*
X01605Y01374D02*
X01591D01*
X01598*
Y01341*
X01591Y01335*
X01585*
X01578Y01341*
X01618Y01335D02*
X01631D01*
X01624*
Y01374*
X01618Y01368*
X0317Y04484D02*
X03183D01*
X03176*
Y04445*
X0317*
X03183*
X0323Y04478D02*
X03223Y04484D01*
X0321*
X03203Y04478*
Y04451*
X0321Y04445*
X03223*
X0323Y04451*
X03269Y04445D02*
X03243D01*
X03269Y04471*
Y04478*
X03263Y04484*
X03249*
X03243Y04478*
X03866Y04489D02*
X0388D01*
X03873*
Y0445*
X03866*
X0388*
X03926Y04483D02*
X0392Y04489D01*
X03906*
X039Y04483*
Y04456*
X03906Y0445*
X0392*
X03926Y04456*
X03939Y0445D02*
X03953D01*
X03946*
Y04489*
X03939Y04483*
X01431Y03409D02*
Y0337D01*
X01451*
X01458Y03376*
Y03403*
X01451Y03409*
X01431*
X01471Y0337D02*
Y03409D01*
X01491*
X01498Y03403*
Y0339*
X01491Y03383*
X01471*
X01511Y0337D02*
Y03396D01*
X01524Y03409*
X01538Y03396*
Y0337*
Y0339*
X01511*
X01551Y03409D02*
Y0337D01*
X01571*
X01578Y03376*
Y03403*
X01571Y03409*
X01551*
X05126Y04874D02*
Y04835D01*
X05146*
X05153Y04841*
Y04868*
X05146Y04874*
X05126*
X05186Y04835D02*
Y04874D01*
X05166Y04855*
X05193*
X04846Y04874D02*
Y04835D01*
X04866*
X04873Y04841*
Y04868*
X04866Y04874*
X04846*
X04886Y04868D02*
X04893Y04874D01*
X04906*
X04913Y04868*
Y04861*
X04906Y04855*
X04899*
X04906*
X04913Y04848*
Y04841*
X04906Y04835*
X04893*
X04886Y04841*
X04571Y04874D02*
Y04835D01*
X04591*
X04598Y04841*
Y04868*
X04591Y04874*
X04571*
X04638Y04835D02*
X04611D01*
X04638Y04861*
Y04868*
X04631Y04874*
X04618*
X04611Y04868*
X04313Y04874D02*
Y04835D01*
X04333*
X0434Y04841*
Y04868*
X04333Y04874*
X04313*
X04353Y04835D02*
X04366D01*
X04359*
Y04874*
X04353Y04868*
X03195Y01603D02*
X03188Y01609D01*
X03175*
X03168Y01603*
Y01576*
X03175Y0157*
X03188*
X03195Y01576*
X03234Y0157D02*
X03208D01*
X03234Y01596*
Y01603*
X03228Y01609*
X03215*
X03208Y01603*
X03248Y0157D02*
X03261D01*
X03254*
Y01609*
X03248Y01603*
X01988Y04051D02*
X01994Y04058D01*
Y04071*
X01988Y04078*
X01961*
X01955Y04071*
Y04058*
X01961Y04051*
X01955Y04011D02*
Y04038D01*
X01981Y04011*
X01988*
X01994Y04018*
Y04031*
X01988Y04038*
Y03998D02*
X01994Y03991D01*
Y03978*
X01988Y03971*
X01961*
X01955Y03978*
Y03991*
X01961Y03998*
X01988*
X02063Y04048D02*
X02069Y04054D01*
Y04068*
X02063Y04074*
X02036*
X0203Y04068*
Y04054*
X02036Y04048*
X0203Y04035D02*
Y04021D01*
Y04028*
X02069*
X02063Y04035*
X02036Y04001D02*
X0203Y03995D01*
Y03981*
X02036Y03975*
X02063*
X02069Y03981*
Y03995*
X02063Y04001*
X02056*
X0205Y03995*
Y03975*
X01471Y02123D02*
X01465Y02129D01*
X01451*
X01445Y02123*
Y02096*
X01451Y0209*
X01465*
X01471Y02096*
X01485Y0209D02*
X01498D01*
X01491*
Y02129*
X01485Y02123*
X01518D02*
X01524Y02129D01*
X01538*
X01544Y02123*
Y02116*
X01538Y0211*
X01544Y02103*
Y02096*
X01538Y0209*
X01524*
X01518Y02096*
Y02103*
X01524Y0211*
X01518Y02116*
Y02123*
X01524Y0211D02*
X01538D01*
X01666Y04683D02*
X0166Y04689D01*
X01646*
X0164Y04683*
Y04656*
X01646Y0465*
X0166*
X01666Y04656*
X0168Y0465D02*
X01693D01*
X01686*
Y04689*
X0168Y04683*
X01713Y04689D02*
X01739D01*
Y04683*
X01713Y04656*
Y0465*
X02366Y04683D02*
X0236Y04689D01*
X02346*
X0234Y04683*
Y04656*
X02346Y0465*
X0236*
X02366Y04656*
X0238Y0465D02*
X02393D01*
X02386*
Y04689*
X0238Y04683*
X02439Y04689D02*
X02426Y04683D01*
X02413Y0467*
Y04656*
X02419Y0465*
X02433*
X02439Y04656*
Y04663*
X02433Y0467*
X02413*
X01973Y01508D02*
X01979Y01514D01*
Y01528*
X01973Y01534*
X01946*
X0194Y01528*
Y01514*
X01946Y01508*
X0194Y01495D02*
Y01481D01*
Y01488*
X01979*
X01973Y01495*
X01979Y01435D02*
Y01461D01*
X0196*
X01966Y01448*
Y01441*
X0196Y01435*
X01946*
X0194Y01441*
Y01455*
X01946Y01461*
X02448Y04053D02*
X02454Y04059D01*
Y04073*
X02448Y04079*
X02421*
X02415Y04073*
Y04059*
X02421Y04053*
X02415Y0404D02*
Y04026D01*
Y04033*
X02454*
X02448Y0404*
X02415Y03986D02*
X02454D01*
X02435Y04006*
Y0398*
X02373Y04053D02*
X02379Y04059D01*
Y04073*
X02373Y04079*
X02346*
X0234Y04073*
Y04059*
X02346Y04053*
X0234Y0404D02*
Y04026D01*
Y04033*
X02379*
X02373Y0404*
Y04006D02*
X02379Y04D01*
Y03986*
X02373Y0398*
X02366*
X0236Y03986*
Y03993*
Y03986*
X02353Y0398*
X02346*
X0234Y03986*
Y04*
X02346Y04006*
X01736Y04188D02*
X0173Y04194D01*
X01716*
X0171Y04188*
Y04161*
X01716Y04155*
X0173*
X01736Y04161*
X0175Y04155D02*
X01763D01*
X01756*
Y04194*
X0175Y04188*
X01809Y04155D02*
X01783D01*
X01809Y04181*
Y04188*
X01803Y04194*
X01789*
X01783Y04188*
X02027Y04663D02*
X0202Y04669D01*
X02007*
X02Y04663*
Y04636*
X02007Y0463*
X0202*
X02027Y04636*
X0204Y0463D02*
X02053D01*
X02047*
Y04669*
X0204Y04663*
X02073Y0463D02*
X02087D01*
X0208*
Y04669*
X02073Y04663*
X01568Y04488D02*
X01574Y04494D01*
Y04508*
X01568Y04514*
X01541*
X01535Y04508*
Y04494*
X01541Y04488*
X01535Y04475D02*
Y04461D01*
Y04468*
X01574*
X01568Y04475*
Y04441D02*
X01574Y04435D01*
Y04421*
X01568Y04415*
X01541*
X01535Y04421*
Y04435*
X01541Y04441*
X01568*
X02268Y04466D02*
X02274Y04473D01*
Y04486*
X02268Y04493*
X02241*
X02235Y04486*
Y04473*
X02241Y04466*
Y04453D02*
X02235Y04446D01*
Y04433*
X02241Y04426*
X02268*
X02274Y04433*
Y04446*
X02268Y04453*
X02261*
X02255Y04446*
Y04426*
X03028Y04471D02*
X03034Y04478D01*
Y04491*
X03028Y04498*
X03001*
X02995Y04491*
Y04478*
X03001Y04471*
X03028Y04458D02*
X03034Y04451D01*
Y04438*
X03028Y04431*
X03021*
X03015Y04438*
X03008Y04431*
X03001*
X02995Y04438*
Y04451*
X03001Y04458*
X03008*
X03015Y04451*
X03021Y04458*
X03028*
X03015Y04451D02*
Y04438D01*
X03693Y04483D02*
X03686Y04489D01*
X03673*
X03666Y04483*
Y04456*
X03673Y0445*
X03686*
X03693Y04456*
X03706Y04489D02*
X03733D01*
Y04483*
X03706Y04456*
Y0445*
X01433Y02198D02*
X01427Y02204D01*
X01413*
X01407Y02198*
Y02171*
X01413Y02165*
X01427*
X01433Y02171*
X01473Y02204D02*
X0146Y02198D01*
X01447Y02185*
Y02171*
X01453Y02165*
X01467*
X01473Y02171*
Y02178*
X01467Y02185*
X01447*
X02668Y03581D02*
X02674Y03588D01*
Y03601*
X02668Y03608*
X02641*
X02635Y03601*
Y03588*
X02641Y03581*
X02674Y03541D02*
Y03568D01*
X02655*
X02661Y03555*
Y03548*
X02655Y03541*
X02641*
X02635Y03548*
Y03561*
X02641Y03568*
X02743Y03587D02*
X02749Y03594D01*
Y03607*
X02743Y03614*
X02716*
X0271Y03607*
Y03594*
X02716Y03587*
X0271Y03554D02*
X02749D01*
X0273Y03574*
Y03547*
X03193Y03581D02*
X03199Y03588D01*
Y03601*
X03193Y03608*
X03166*
X0316Y03601*
Y03588*
X03166Y03581*
X03193Y03568D02*
X03199Y03561D01*
Y03548*
X03193Y03541*
X03186*
X0318Y03548*
Y03555*
Y03548*
X03173Y03541*
X03166*
X0316Y03548*
Y03561*
X03166Y03568*
X03118Y03581D02*
X03124Y03588D01*
Y03601*
X03118Y03608*
X03091*
X03085Y03601*
Y03588*
X03091Y03581*
X03085Y03541D02*
Y03568D01*
X03111Y03541*
X03118*
X03124Y03548*
Y03561*
X03118Y03568*
X05255Y04493D02*
X05248Y04499D01*
X05235*
X05228Y04493*
Y04466*
X05235Y0446*
X05248*
X05255Y04466*
X05268Y0446D02*
X05281D01*
X05274*
Y04499*
X05268Y04493*
G54D17*
X0312Y04523D02*
X0332D01*
X0382Y04528D02*
X0402D01*
G54D18*
X02137Y04754D02*
X02192D01*
X02137Y04695D02*
X02192D01*
M02*