G04*
G04 #@! TF.GenerationSoftware,Altium Limited,Altium Designer,22.10.1 (41)*
G04*
G04 Layer_Color=16711935*
%FSLAX25Y25*%
%MOIN*%
G70*
G04*
G04 #@! TF.SameCoordinates,B0F90622-4776-4CE2-9B4D-1A44F7B6D03D*
G04*
G04*
G04 #@! TF.FilePolarity,Positive*
G04*
G01*
G75*
%ADD10C,0.00787*%
%ADD11C,0.00500*%
%ADD12C,0.00600*%
%ADD15C,0.01000*%
%ADD16C,0.00800*%
%ADD17C,0.00200*%
%ADD18C,0.00394*%
%ADD92C,0.00400*%
%ADD93C,0.00197*%
G36*
X525591Y486289D02*
X524798D01*
Y487468D01*
X525591D01*
Y486289D01*
D02*
G37*
G36*
X470591Y486288D02*
X469801D01*
Y487468D01*
X470591D01*
Y486288D01*
D02*
G37*
G36*
X443185D02*
X442396D01*
Y487468D01*
X443185D01*
Y486288D01*
D02*
G37*
G36*
X472903Y485056D02*
X469355D01*
Y485943D01*
X472903D01*
Y485056D01*
D02*
G37*
G36*
X445498D02*
X441950D01*
Y485943D01*
X445498D01*
Y485056D01*
D02*
G37*
G36*
X527904Y485056D02*
X524355D01*
Y485943D01*
X527904D01*
Y485056D01*
D02*
G37*
G36*
X525295Y483825D02*
X524504D01*
Y484417D01*
X525295D01*
Y483825D01*
D02*
G37*
G36*
X470295Y483825D02*
X469504D01*
Y484417D01*
X470295D01*
Y483825D01*
D02*
G37*
G36*
X442890D02*
X442098D01*
Y484417D01*
X442890D01*
Y483825D01*
D02*
G37*
G36*
X475709Y485943D02*
X475856D01*
Y485057D01*
X475709D01*
Y483138D01*
X474921D01*
Y485057D01*
X473692D01*
Y485943D01*
X474924D01*
Y487862D01*
X475709D01*
Y485943D01*
D02*
G37*
G36*
X448303D02*
X448451D01*
Y485057D01*
X448303D01*
Y483138D01*
X447516D01*
Y485057D01*
X446286D01*
Y485943D01*
X447518D01*
Y487862D01*
X448303D01*
Y485943D01*
D02*
G37*
G36*
X530709D02*
X530856D01*
Y485056D01*
X530709D01*
Y483133D01*
X529925D01*
Y485056D01*
X528692D01*
Y485943D01*
X529924D01*
Y487862D01*
X530709D01*
Y485943D01*
D02*
G37*
G36*
X525787Y484565D02*
X525935D01*
Y483088D01*
X525737D01*
Y484415D01*
X525587D01*
Y484614D01*
X525787D01*
Y484565D01*
D02*
G37*
G36*
X470787D02*
X470935D01*
Y483086D01*
X470736D01*
Y484416D01*
X470588D01*
Y484614D01*
X470787D01*
Y484565D01*
D02*
G37*
G36*
X443382D02*
X443530D01*
Y483086D01*
X443330D01*
Y484416D01*
X443183D01*
Y484614D01*
X443382D01*
Y484565D01*
D02*
G37*
G36*
X400500Y454200D02*
X398500D01*
Y458700D01*
X400500D01*
Y454200D01*
D02*
G37*
G36*
X395500D02*
X393500D01*
Y458700D01*
X395500D01*
Y454200D01*
D02*
G37*
G36*
X385500D02*
X383500D01*
Y458700D01*
X385500D01*
Y454200D01*
D02*
G37*
G36*
X390500Y454100D02*
X388500D01*
Y458600D01*
X390500D01*
Y454100D01*
D02*
G37*
G36*
X330500Y453700D02*
X328500D01*
Y458200D01*
X330500D01*
Y453700D01*
D02*
G37*
G36*
X325500D02*
X323500D01*
Y458200D01*
X325500D01*
Y453700D01*
D02*
G37*
G36*
X315500D02*
X313500D01*
Y458200D01*
X315500D01*
Y453700D01*
D02*
G37*
G36*
X320500Y453600D02*
X318500D01*
Y458100D01*
X320500D01*
Y453600D01*
D02*
G37*
G36*
X400500Y434300D02*
X398500D01*
Y438800D01*
X400500D01*
Y434300D01*
D02*
G37*
G36*
X395500D02*
X393500D01*
Y438800D01*
X395500D01*
Y434300D01*
D02*
G37*
G36*
X390500D02*
X388500D01*
Y438800D01*
X390500D01*
Y434300D01*
D02*
G37*
G36*
X385500D02*
X383500D01*
Y438800D01*
X385500D01*
Y434300D01*
D02*
G37*
G36*
X330500Y433800D02*
X328500D01*
Y438300D01*
X330500D01*
Y433800D01*
D02*
G37*
G36*
X325500D02*
X323500D01*
Y438300D01*
X325500D01*
Y433800D01*
D02*
G37*
G36*
X320500D02*
X318500D01*
Y438300D01*
X320500D01*
Y433800D01*
D02*
G37*
G36*
X315500D02*
X313500D01*
Y438300D01*
X315500D01*
Y433800D01*
D02*
G37*
G36*
X183436Y199303D02*
X181131D01*
Y201100D01*
X183436D01*
Y199303D01*
D02*
G37*
G36*
X165436D02*
X163131D01*
Y201100D01*
X165436D01*
Y199303D01*
D02*
G37*
G36*
X175527Y195599D02*
X173231D01*
Y197400D01*
X175527D01*
Y195599D01*
D02*
G37*
G36*
X157527D02*
X155231D01*
Y197400D01*
X157527D01*
Y195599D01*
D02*
G37*
G36*
X183439Y191893D02*
X181131D01*
Y193700D01*
X183439D01*
Y191893D01*
D02*
G37*
G36*
X165438D02*
X163131D01*
Y193700D01*
X165438D01*
Y191893D01*
D02*
G37*
D10*
X132354Y221508D02*
X131567D01*
X132354D01*
X231258Y407331D02*
X230470D01*
X231258D01*
X492831Y485500D02*
X492043D01*
X492831D01*
X306224Y137307D02*
X305437D01*
X306224D01*
D11*
X523606Y473323D02*
Y478677D01*
X531874Y473323D02*
Y478677D01*
X523606D02*
X531874D01*
X523606Y473323D02*
X531874D01*
X127787Y228004D02*
X203378D01*
Y298870D01*
X127787D02*
X203378D01*
X127787Y228004D02*
Y298870D01*
X154819Y79528D02*
X202181D01*
X154819D02*
Y141378D01*
X202181Y79528D02*
Y141378D01*
X154819D02*
X202181D01*
X489988Y155524D02*
X551012D01*
Y133476D02*
Y155524D01*
X489988Y133476D02*
Y155524D01*
Y133476D02*
X551012D01*
X512587Y449890D02*
X519516D01*
X512587Y446110D02*
X519516D01*
X512587D02*
Y449890D01*
X519516Y446110D02*
Y449890D01*
X163728Y186776D02*
X167272D01*
X163728Y180083D02*
X167272D01*
Y186776D01*
X163728Y180083D02*
Y186776D01*
X181728Y180083D02*
Y186776D01*
X185272Y180083D02*
Y186776D01*
X181728Y180083D02*
X185272D01*
X181728Y186776D02*
X185272D01*
X311110Y155484D02*
X314890D01*
X311110Y162413D02*
X314890D01*
X311110Y155484D02*
Y162413D01*
X314890Y155484D02*
Y162413D01*
X279205Y353890D02*
X304795D01*
Y340110D02*
Y353890D01*
X279205Y340110D02*
X304795D01*
X279205D02*
Y353890D01*
X264122Y345409D02*
Y350134D01*
X266878Y345409D02*
Y350134D01*
X264122Y345409D02*
X266878D01*
X264122Y350134D02*
X266878D01*
X271110Y344587D02*
Y351516D01*
X274890Y344587D02*
Y351516D01*
X271110Y344587D02*
X274890D01*
X271110Y351516D02*
X274890D01*
X319378Y345638D02*
Y350362D01*
X316622Y345638D02*
Y350362D01*
X319378D01*
X316622Y345638D02*
X319378D01*
X312390Y344087D02*
Y351016D01*
X308610Y344087D02*
Y351016D01*
X312390D01*
X308610Y344087D02*
X312390D01*
X206890Y386984D02*
Y393913D01*
X203110Y386984D02*
Y393913D01*
X206890D01*
X203110Y386984D02*
X206890D01*
X199390Y387087D02*
Y394016D01*
X195610Y387087D02*
Y394016D01*
X199390D01*
X195610Y387087D02*
X199390D01*
X133409Y219878D02*
X138134D01*
X133409Y217122D02*
X138134D01*
X133409D02*
Y219878D01*
X138134Y217122D02*
Y219878D01*
X134535Y212890D02*
X141465D01*
X134535Y209110D02*
X141465D01*
X134535D02*
Y212890D01*
X141465Y209110D02*
Y212890D01*
X189622Y150134D02*
X192378D01*
X189622Y145410D02*
X192378D01*
Y150134D01*
X189622Y145410D02*
Y150134D01*
X245390Y387484D02*
Y394413D01*
X241610Y387484D02*
Y394413D01*
X245390D01*
X241610Y387484D02*
X245390D01*
X237890D02*
Y394413D01*
X234110Y387484D02*
Y394413D01*
X237890D01*
X234110Y387484D02*
X237890D01*
X172484Y413890D02*
X179413D01*
X172484Y410110D02*
X179413D01*
X172484D02*
Y413890D01*
X179413Y410110D02*
Y413890D01*
X230303Y382646D02*
Y398354D01*
X210697Y382646D02*
Y398354D01*
X230303D01*
X210697Y382646D02*
X230303D01*
X123705Y401890D02*
X149295D01*
Y388110D02*
Y401890D01*
X123705Y388110D02*
X149295D01*
X123705D02*
Y401890D01*
X153728Y398224D02*
Y404917D01*
X157272Y398224D02*
Y404917D01*
X153728Y398224D02*
X157272D01*
X153728Y404917D02*
X157272D01*
X153728Y384224D02*
X157272D01*
X153728Y390917D02*
X157272D01*
X153728Y384224D02*
Y390917D01*
X157272Y384224D02*
Y390917D01*
X375610Y443484D02*
Y450413D01*
X379390Y443484D02*
Y450413D01*
X375610Y443484D02*
X379390D01*
X375610Y450413D02*
X379390D01*
X305610Y443087D02*
Y450016D01*
X309390Y443087D02*
Y450016D01*
X305610Y443087D02*
X309390D01*
X305610Y450016D02*
X309390D01*
X212984Y466890D02*
X219913D01*
X212984Y463110D02*
X219913D01*
X212984D02*
Y466890D01*
X219913Y463110D02*
Y466890D01*
X193425Y435209D02*
X196575D01*
X193425Y443083D02*
X196575D01*
X193425Y435209D02*
Y443083D01*
X196575Y435209D02*
Y443083D01*
X193425Y455583D02*
X196575D01*
X193425Y447709D02*
X196575D01*
Y455583D01*
X193425Y447709D02*
Y455583D01*
X177484Y465110D02*
X184413D01*
X177484Y468890D02*
X184413D01*
Y465110D02*
Y468890D01*
X177484Y465110D02*
Y468890D01*
X163390Y442984D02*
Y449913D01*
X159610Y442984D02*
Y449913D01*
X163390D01*
X159610Y442984D02*
X163390D01*
X229610Y442484D02*
X233390D01*
X229610Y449413D02*
X233390D01*
X229610Y442484D02*
Y449413D01*
X233390Y442484D02*
Y449413D01*
X263925Y447417D02*
Y455291D01*
X267075Y447417D02*
Y455291D01*
X263925Y447417D02*
X267075D01*
X263925Y455291D02*
X267075D01*
Y435209D02*
Y443083D01*
X263925Y435209D02*
Y443083D01*
X267075D01*
X263925Y435209D02*
X267075D01*
X247484Y465110D02*
Y468890D01*
X254413Y465110D02*
Y468890D01*
X247484D02*
X254413D01*
X247484Y465110D02*
X254413D01*
X496126Y473323D02*
X504394D01*
X496126Y478677D02*
X504394D01*
Y473323D02*
Y478677D01*
X496126Y473323D02*
Y478677D01*
X496965Y483728D02*
Y487272D01*
X503657Y483728D02*
Y487272D01*
X496965D02*
X503657D01*
X496965Y483728D02*
X503657D01*
X468606Y473323D02*
X476874D01*
X468606Y478677D02*
X476874D01*
Y473323D02*
Y478677D01*
X468606Y473323D02*
Y478677D01*
X441106Y473323D02*
X449374D01*
X441106Y478677D02*
X449374D01*
Y473323D02*
Y478677D01*
X441106Y473323D02*
Y478677D01*
D12*
X174300Y404808D02*
X174681Y403972D01*
X175542Y403650D01*
X176378Y404031D01*
X176700Y404892D01*
X186308Y447500D02*
X185472Y447119D01*
X185150Y446258D01*
X185531Y445422D01*
X186392Y445100D01*
X256808Y447200D02*
X255972Y446819D01*
X255650Y445958D01*
X256031Y445122D01*
X256892Y444800D01*
X167700Y401600D02*
Y403400D01*
X163300D02*
X167700D01*
X163300Y401500D02*
Y403400D01*
Y401500D02*
X167700Y401600D01*
Y396600D02*
Y398400D01*
X163300D02*
X167700D01*
X163300Y396500D02*
Y398400D01*
Y396500D02*
X167700Y396600D01*
Y391600D02*
Y393400D01*
X163300D02*
X167700D01*
X163300Y391500D02*
Y393400D01*
Y391500D02*
X167700Y391600D01*
Y386600D02*
Y388400D01*
X163300D02*
X167700D01*
X163300Y386500D02*
Y388400D01*
Y386500D02*
X167700Y386600D01*
X183300D02*
Y388400D01*
Y386600D02*
X187700D01*
Y388500D01*
X183300Y388400D02*
X187700Y388500D01*
X183300Y391600D02*
Y393400D01*
Y391600D02*
X187700D01*
Y393500D01*
X183300Y393400D02*
X187700Y393500D01*
X183300Y396600D02*
Y398400D01*
Y396600D02*
X187700D01*
Y398500D01*
X183300Y398400D02*
X187700Y398500D01*
X183300Y401600D02*
Y403400D01*
Y401600D02*
X187700D01*
Y403500D01*
X183300Y403400D02*
X187700Y403500D01*
X167700Y385200D02*
X183300D01*
Y404800D01*
X174300D02*
X183300D01*
X167700D02*
X174300D01*
X167700Y385200D02*
Y404800D01*
X183100Y454100D02*
X184900D01*
Y458500D01*
X183000D02*
X184900D01*
X183000D02*
X183100Y454100D01*
X178100D02*
X179900D01*
Y458500D01*
X178000D02*
X179900D01*
X178000D02*
X178100Y454100D01*
X173100D02*
X174900D01*
Y458500D01*
X173000D02*
X174900D01*
X173000D02*
X173100Y454100D01*
X168100D02*
X169900D01*
Y458500D01*
X168000D02*
X169900D01*
X168000D02*
X168100Y454100D01*
Y438500D02*
X169900D01*
X168100Y434100D02*
Y438500D01*
Y434100D02*
X170000D01*
X169900Y438500D02*
X170000Y434100D01*
X173100Y438500D02*
X174900D01*
X173100Y434100D02*
Y438500D01*
Y434100D02*
X175000D01*
X174900Y438500D02*
X175000Y434100D01*
X178100Y438500D02*
X179900D01*
X178100Y434100D02*
Y438500D01*
Y434100D02*
X180000D01*
X179900Y438500D02*
X180000Y434100D01*
X183100Y438500D02*
X184900D01*
X183100Y434100D02*
Y438500D01*
Y434100D02*
X185000D01*
X184900Y438500D02*
X185000Y434100D01*
X166700Y438500D02*
Y454100D01*
Y438500D02*
X186300D01*
Y447500D01*
Y454100D01*
X166700D02*
X186300D01*
X237200Y453800D02*
X256800D01*
Y447200D02*
Y453800D01*
Y438200D02*
Y447200D01*
X237200Y438200D02*
X256800D01*
X237200D02*
Y453800D01*
X255400Y438200D02*
X255500Y433800D01*
X253600D02*
X255500D01*
X253600D02*
Y438200D01*
X255400D01*
X250400D02*
X250500Y433800D01*
X248600D02*
X250500D01*
X248600D02*
Y438200D01*
X250400D01*
X245400D02*
X245500Y433800D01*
X243600D02*
X245500D01*
X243600D02*
Y438200D01*
X245400D01*
X240400D02*
X240500Y433800D01*
X238600D02*
X240500D01*
X238600D02*
Y438200D01*
X240400D01*
X238500Y458200D02*
X238600Y453800D01*
X238500Y458200D02*
X240400D01*
Y453800D02*
Y458200D01*
X238600Y453800D02*
X240400D01*
X243500Y458200D02*
X243600Y453800D01*
X243500Y458200D02*
X245400D01*
Y453800D02*
Y458200D01*
X243600Y453800D02*
X245400D01*
X248500Y458200D02*
X248600Y453800D01*
X248500Y458200D02*
X250400D01*
Y453800D02*
Y458200D01*
X248600Y453800D02*
X250400D01*
X253500Y458200D02*
X253600Y453800D01*
X253500Y458200D02*
X255400D01*
Y453800D02*
Y458200D01*
X253600Y453800D02*
X255400D01*
D15*
X166900Y403765D02*
X170232Y400433D01*
X166900D02*
X170232Y403765D01*
X166900Y402099D02*
X170232D01*
X168566Y400433D02*
Y403765D01*
X185265Y454900D02*
X181933Y451568D01*
Y454900D02*
X185265Y451568D01*
X183599Y454900D02*
Y451568D01*
X181933Y453234D02*
X185265D01*
X255765Y454600D02*
X252433Y451268D01*
Y454600D02*
X255765Y451268D01*
X254099Y454600D02*
Y451268D01*
X252433Y452934D02*
X255765D01*
D16*
X157731Y190900D02*
Y202100D01*
Y190900D02*
X162931D01*
Y202100D01*
X157731D02*
X162931D01*
X175731D02*
X180931D01*
Y190900D02*
Y202100D01*
X175731Y190900D02*
X180931D01*
X175731D02*
Y202100D01*
D17*
X525787Y484122D02*
X525197D01*
X525787D01*
X531201Y486583D02*
X530263Y486041D01*
Y484959D01*
X531201Y484417D01*
X470787Y484122D02*
X470197D01*
X470787D01*
X476201Y486583D02*
X475263Y486041D01*
Y484959D01*
X476201Y484417D01*
X443382Y484122D02*
X442791D01*
X443382D01*
X448795Y486583D02*
X447858Y486041D01*
Y484959D01*
X448795Y484417D01*
D18*
X217681Y472500D02*
X217236Y473423D01*
X216237Y473652D01*
X215436Y473012D01*
Y471987D01*
X216237Y471348D01*
X217236Y471577D01*
X217681Y472500D01*
X170126Y150126D02*
Y165874D01*
X185874D01*
Y150126D02*
Y165874D01*
X170126Y150126D02*
X185874D01*
X170126Y152094D02*
X172094Y150126D01*
X213547Y469547D02*
Y475453D01*
Y469547D02*
X219453D01*
Y475453D01*
X213547D02*
X219453D01*
X302575Y122346D02*
Y182189D01*
X247457D02*
X302575D01*
X285449Y122346D02*
X302575D01*
X247457Y126283D02*
Y182189D01*
Y126283D02*
X285449D01*
Y122346D02*
Y126283D01*
D92*
X524804Y484319D02*
X525574Y484699D01*
X525886Y485500D01*
X525574Y486301D01*
X524804Y486681D01*
X469804Y484319D02*
X470575Y484699D01*
X470886Y485500D01*
X470575Y486301D01*
X469804Y486681D01*
X442398Y484319D02*
X443169Y484699D01*
X443480Y485500D01*
X443169Y486301D01*
X442398Y486681D01*
X526476Y483925D02*
X529331D01*
X526575Y487075D02*
X529331D01*
X471476Y483925D02*
X474331D01*
X471575Y487075D02*
X474331D01*
X444071Y483925D02*
X446925D01*
X444169Y487075D02*
X446925D01*
D93*
X167665Y147665D02*
Y168335D01*
X188335D01*
Y147665D02*
Y168335D01*
X167665Y147665D02*
X188335D01*
M02*
