M48
;Layer_Color=9474304
;FILE_FORMAT=2:4
INCH,LZ
;TYPE=PLATED
T1F00S00C0.0120
T2F00S00C0.0200
T3F00S00C0.0354
T4F00S00C0.0362
T5F00S00C0.0413
T6F00S00C0.0591
;TYPE=NON_PLATED
T7F00S00C0.0906
%
T01
X015839Y025228
X0162Y025589
X016922
Y026311
X0162
X016561Y026672
Y02595
Y025228
X015839Y02595
Y026672
X015478Y026311
Y025589
T02
X0186Y0146
X018Y0156
X0213
X02485Y015
X02605Y0152
X02675Y0146
X0349Y03025
X02805Y0303
X02585
X0227Y02995
X02105Y03025
X0192Y0287
X01725Y0288
X0169Y02765
X0179Y0241
X01905Y02465
X02105Y02385
X02125Y02315
X022Y02285
X01995Y0204
X01775Y021
X01725Y02135
X0167Y0222
X01825Y0218
X0174Y02005
X01745Y018
X017849Y018342
X0192Y0176
Y01705
X0176Y016
X0211Y01825
X0288Y0173
X01375Y024
X0148Y0282
X01525Y02875
X01425Y03085
X0137
X0147Y03935
X0129Y0397
X01225Y0392
X01745Y03975
X0185Y0424
X0202Y04315
X022Y0459
X0246Y0426
X0265Y0432
X02685Y0402
X022696Y038912
X02235Y0392
X0219Y0394
X0213Y039
X0197Y03655
Y03485
X01635Y0357
X0212Y0321
X03005Y0313
X02965Y0346
X0282Y035
X0292Y03695
X0307Y0376
X0292Y04455
X03145Y04025
X03195
X03245
X03295
X0336Y0327
X05155Y0481
X046Y04805
X0434
X02025Y0474
X01965Y04715
T03
X05105Y01145
X05205
X05305
X02575Y02555
Y02655
X02475
Y02555
X02375
Y02655
X0148Y03205
Y03305
X0158
Y03205
X0168
Y03305
X0178
Y03205
X03165Y04785
X03265
X03865
X03975
X02565
X02465
X01865
X01765
T04
X017358Y013067
Y013854
X018342
Y013067
T05
X050574Y014824
X053526Y014076
T06
X052191Y018178
X060065
X044317
X0454Y0418
X047664
X049928
X052191
X054455
X056719
T07
X01548Y012
X02022
M30
