G04*
G04 #@! TF.GenerationSoftware,Altium Limited,Altium Designer,22.10.1 (41)*
G04*
G04 Layer_Color=16777215*
%FSLAX25Y25*%
%MOIN*%
G70*
G04*
G04 #@! TF.SameCoordinates,AD521441-6981-4C9A-977E-8A670088B7DC*
G04*
G04*
G04 #@! TF.FilePolarity,Positive*
G04*
G01*
G75*
%ADD10C,0.00787*%
%ADD11C,0.00500*%
%ADD12C,0.00600*%
%ADD13C,0.00394*%
%ADD14C,0.00000*%
%ADD15C,0.01000*%
%ADD16C,0.00800*%
%ADD17C,0.00200*%
%ADD18C,0.00394*%
D10*
X132354Y221508D02*
X131567D01*
X132354D01*
X278614Y332236D02*
X277827D01*
X278614D01*
X231258Y407331D02*
X230470D01*
X231258D01*
X123114Y380236D02*
X122327D01*
X123114D01*
X492831Y485500D02*
X492043D01*
X492831D01*
X306224Y137307D02*
X305437D01*
X306224D01*
X505500Y119500D02*
X535500D01*
X505500Y109500D02*
Y119500D01*
Y109500D02*
X535500D01*
Y119500D01*
X143000Y335500D02*
X183000D01*
X143000Y315500D02*
X183000D01*
Y335500D01*
X143000Y315500D02*
Y335500D01*
X191500Y473500D02*
Y483500D01*
X171500Y473500D02*
X191500D01*
X171500D02*
Y483500D01*
X191500D01*
X261500Y473500D02*
Y483500D01*
X241500Y473500D02*
X261500D01*
X241500D02*
Y483500D01*
X261500D01*
X331500Y473500D02*
Y483500D01*
X311500Y473500D02*
X331500D01*
X311500D02*
Y483500D01*
X331500D01*
X402500Y473500D02*
Y483500D01*
X382500Y473500D02*
X402500D01*
X382500D02*
Y483500D01*
X402500D01*
X243333Y250500D02*
X262500D01*
X232500D02*
X262500D01*
X232500Y270500D02*
X262500D01*
X232500Y250500D02*
Y270500D01*
X262500Y250500D02*
Y270500D01*
X247457Y182189D02*
X251394D01*
X247457Y134157D02*
Y182189D01*
X302575Y130220D02*
Y182189D01*
X282102D02*
X302575D01*
X264386D02*
X273441D01*
X285449Y122346D02*
X296669D01*
X285449D02*
Y126283D01*
X253362D02*
X285449D01*
D11*
X188967Y138740D02*
X188191D01*
X188967D01*
X527071Y473323D02*
X528410D01*
X527071Y478677D02*
X528410D01*
X202197Y298870D02*
X203378D01*
Y288988D02*
Y298870D01*
Y228004D02*
Y237886D01*
X202197Y228004D02*
X203378D01*
X127787Y298870D02*
X128969D01*
X127787Y228004D02*
Y298870D01*
Y228004D02*
X128969D01*
X154819Y125354D02*
Y141378D01*
X187004D02*
X202181D01*
Y125354D02*
Y141378D01*
X154819Y79528D02*
Y114409D01*
X202181Y79528D02*
Y114409D01*
X154819Y79528D02*
X202181D01*
X154819Y141378D02*
X169996D01*
X489988Y155524D02*
X551012D01*
X489988Y133476D02*
X551012D01*
X489988D02*
Y155524D01*
X551012Y133476D02*
Y155524D01*
X279205Y353890D02*
X304795D01*
Y340110D02*
Y353890D01*
X279205Y340110D02*
X304795D01*
X279205D02*
Y353890D01*
X231317Y382646D02*
Y398354D01*
X209683Y382646D02*
Y398354D01*
X123705Y401890D02*
X149295D01*
Y388110D02*
Y401890D01*
X123705Y388110D02*
X149295D01*
X123705D02*
Y401890D01*
X193425Y438831D02*
Y439461D01*
X196575Y438831D02*
Y439461D01*
Y451331D02*
Y451961D01*
X193425Y451331D02*
Y451961D01*
X263925Y451039D02*
Y451669D01*
X267075Y451039D02*
Y451669D01*
Y438831D02*
Y439461D01*
X263925Y438831D02*
Y439461D01*
X499591Y478677D02*
X500929D01*
X499591Y473323D02*
X500929D01*
X499976Y487272D02*
X500646D01*
X499976Y483728D02*
X500646D01*
X472071Y478677D02*
X473409D01*
X472071Y473323D02*
X473409D01*
X444571Y478677D02*
X445909D01*
X444571Y473323D02*
X445909D01*
D12*
X332000Y448000D02*
X331000Y447732D01*
X330268Y447000D01*
X330000Y446000D01*
X330268Y445000D01*
X331000Y444268D01*
X332000Y444000D01*
Y452200D02*
X331561Y453261D01*
X330500Y453700D01*
X312000Y439800D02*
X312439Y438739D01*
X313500Y438300D01*
X330500D02*
X331561Y438739D01*
X332000Y439800D01*
X313500Y453700D02*
X312439Y453261D01*
X312000Y452200D01*
X402000Y448500D02*
X401000Y448232D01*
X400268Y447500D01*
X400000Y446500D01*
X400268Y445500D01*
X401000Y444768D01*
X402000Y444500D01*
Y452700D02*
X401561Y453761D01*
X400500Y454200D01*
X382000Y440300D02*
X382439Y439239D01*
X383500Y438800D01*
X400500D02*
X401561Y439239D01*
X402000Y440300D01*
X383500Y454200D02*
X382439Y453761D01*
X382000Y452700D01*
X167100Y384600D02*
X183900D01*
X167100Y405400D02*
X183900D01*
X332000Y439800D02*
Y452200D01*
X312000Y439800D02*
Y452200D01*
X313500Y453700D02*
X330500D01*
X313500Y438300D02*
X330500D01*
X166100Y437900D02*
Y454700D01*
X186900Y437900D02*
Y454700D01*
X257400Y437600D02*
Y454400D01*
X236600Y437600D02*
Y454400D01*
X402000Y440300D02*
Y452700D01*
X382000Y440300D02*
Y452700D01*
X383500Y454200D02*
X400500D01*
X383500Y438800D02*
X400500D01*
D13*
X212760Y475650D02*
D03*
D14*
X521760Y487075D02*
X521010Y487508D01*
Y486642D01*
X521760Y487075D01*
X466760D02*
X466010Y487508D01*
Y486642D01*
X466760Y487075D01*
X439354D02*
X438604Y487508D01*
Y486642D01*
X439354Y487075D01*
D15*
X427425Y166032D02*
Y441622D01*
Y166032D02*
X616402D01*
X427425Y441622D02*
X616402D01*
Y166032D02*
Y441622D01*
X516002Y291501D02*
Y297499D01*
X519001D01*
X520001Y296499D01*
Y294500D01*
X519001Y293500D01*
X516002D01*
X525999Y296499D02*
X524999Y297499D01*
X523000D01*
X522000Y296499D01*
Y295500D01*
X523000Y294500D01*
X524999D01*
X525999Y293500D01*
Y292501D01*
X524999Y291501D01*
X523000D01*
X522000Y292501D01*
X527998Y291501D02*
X529998D01*
X528998D01*
Y297499D01*
X527998Y296499D01*
X162500Y408265D02*
X165832Y404933D01*
X162500D02*
X165832Y408265D01*
X162500Y406599D02*
X165832D01*
X164166Y404933D02*
Y408265D01*
X189765Y459300D02*
X186433Y455968D01*
Y459300D02*
X189765Y455968D01*
X188099Y459300D02*
Y455968D01*
X186433Y457634D02*
X189765D01*
X260265Y459000D02*
X256933Y455668D01*
Y459000D02*
X260265Y455668D01*
X258599Y459000D02*
Y455668D01*
X256933Y457334D02*
X260265D01*
D16*
X157731Y199900D02*
Y202100D01*
X160931D01*
X157731Y190900D02*
Y193100D01*
Y190900D02*
X160931D01*
X175731D02*
X178931D01*
X175731D02*
Y193100D01*
Y202100D02*
X178931D01*
X175731Y199900D02*
Y202100D01*
X512668Y474501D02*
Y478499D01*
X514667D01*
X515334Y477833D01*
Y476500D01*
X514667Y475834D01*
X512668D01*
X514001D02*
X515334Y474501D01*
X518666D02*
Y478499D01*
X516667Y476500D01*
X519332D01*
X159334Y282499D02*
Y279167D01*
X160001Y278501D01*
X161334D01*
X162000Y279167D01*
Y282499D01*
X163333Y278501D02*
X164666D01*
X163999D01*
Y282499D01*
X163333Y281833D01*
X184668Y322500D02*
X188000D01*
X184668Y319168D01*
Y318335D01*
X185501Y317502D01*
X187167D01*
X188000Y318335D01*
X186000Y332500D02*
X184334D01*
X185167D01*
Y327502D01*
X186000Y328335D01*
X142000Y327502D02*
X138668D01*
Y328335D01*
X142000Y331667D01*
Y332500D01*
Y318335D02*
X141167Y317502D01*
X139501D01*
X138668Y318335D01*
Y319168D01*
X139501Y320001D01*
X138668Y320834D01*
Y321667D01*
X139501Y322500D01*
X141167D01*
X142000Y321667D01*
Y320834D01*
X141167Y320001D01*
X142000Y319168D01*
Y318335D01*
X141167Y320001D02*
X139501D01*
X229500Y253500D02*
X231166D01*
X230333D01*
Y258498D01*
X229500Y257665D01*
X230832Y263500D02*
X227500D01*
X230832Y266832D01*
Y267665D01*
X229999Y268498D01*
X228333D01*
X227500Y267665D01*
X266832Y258498D02*
X263500D01*
Y255999D01*
X265166Y256832D01*
X265999D01*
X266832Y255999D01*
Y254333D01*
X265999Y253500D01*
X264333D01*
X263500Y254333D01*
X266832Y268498D02*
X265166Y267665D01*
X263500Y265999D01*
Y264333D01*
X264333Y263500D01*
X265999D01*
X266832Y264333D01*
Y265166D01*
X265999Y265999D01*
X263500D01*
X181168Y173499D02*
Y170167D01*
X181834Y169501D01*
X183167D01*
X183834Y170167D01*
Y173499D01*
X185167Y170167D02*
X185833Y169501D01*
X187166D01*
X187832Y170167D01*
Y172833D01*
X187166Y173499D01*
X185833D01*
X185167Y172833D01*
Y172167D01*
X185833Y171500D01*
X187832D01*
X202668Y474499D02*
Y471167D01*
X203334Y470501D01*
X204667D01*
X205334Y471167D01*
Y474499D01*
X206666Y473833D02*
X207333Y474499D01*
X208666D01*
X209332Y473833D01*
Y473166D01*
X208666Y472500D01*
X209332Y471834D01*
Y471167D01*
X208666Y470501D01*
X207333D01*
X206666Y471167D01*
Y471834D01*
X207333Y472500D01*
X206666Y473166D01*
Y473833D01*
X207333Y472500D02*
X208666D01*
X132668Y397499D02*
Y394167D01*
X133334Y393501D01*
X134667D01*
X135334Y394167D01*
Y397499D01*
X136667D02*
X139332D01*
Y396833D01*
X136667Y394167D01*
Y393501D01*
X288668Y349499D02*
Y346167D01*
X289334Y345501D01*
X290667D01*
X291334Y346167D01*
Y349499D01*
X295332D02*
X293999Y348833D01*
X292667Y347500D01*
Y346167D01*
X293333Y345501D01*
X294666D01*
X295332Y346167D01*
Y346834D01*
X294666Y347500D01*
X292667D01*
X173168Y449499D02*
Y446167D01*
X173834Y445501D01*
X175167D01*
X175833Y446167D01*
Y449499D01*
X179832D02*
X177166D01*
Y447500D01*
X178499Y448166D01*
X179166D01*
X179832Y447500D01*
Y446167D01*
X179166Y445501D01*
X177833D01*
X177166Y446167D01*
X243668Y448999D02*
Y445667D01*
X244334Y445001D01*
X245667D01*
X246334Y445667D01*
Y448999D01*
X249666Y445001D02*
Y448999D01*
X247667Y447000D01*
X250332D01*
X172168Y396999D02*
Y393667D01*
X172834Y393001D01*
X174167D01*
X174834Y393667D01*
Y396999D01*
X176166Y396333D02*
X176833Y396999D01*
X178166D01*
X178832Y396333D01*
Y395666D01*
X178166Y395000D01*
X177499D01*
X178166D01*
X178832Y394334D01*
Y393667D01*
X178166Y393001D01*
X176833D01*
X176166Y393667D01*
X217168Y392499D02*
Y389167D01*
X217834Y388501D01*
X219167D01*
X219834Y389167D01*
Y392499D01*
X223832Y388501D02*
X221166D01*
X223832Y391166D01*
Y391833D01*
X223166Y392499D01*
X221833D01*
X221166Y391833D01*
X230166Y277032D02*
X229499Y277699D01*
X228166D01*
X227500Y277032D01*
Y276366D01*
X228166Y275699D01*
X229499D01*
X230166Y275033D01*
Y274366D01*
X229499Y273700D01*
X228166D01*
X227500Y274366D01*
X234165Y277032D02*
X233498Y277699D01*
X232165D01*
X231499Y277032D01*
Y274366D01*
X232165Y273700D01*
X233498D01*
X234165Y274366D01*
X235497Y273700D02*
Y277699D01*
X237497D01*
X238163Y277032D01*
Y275699D01*
X237497Y275033D01*
X235497D01*
X236830D02*
X238163Y273700D01*
X242162Y277699D02*
X239496D01*
Y273700D01*
X242162D01*
X239496Y275699D02*
X240829D01*
X246161Y277699D02*
X243495D01*
Y273700D01*
X246161D01*
X243495Y275699D02*
X244828D01*
X247494Y273700D02*
Y277699D01*
X250159Y273700D01*
Y277699D01*
X515335Y142501D02*
Y146499D01*
X517334D01*
X518001Y145833D01*
Y144500D01*
X517334Y143833D01*
X515335D01*
X516668D02*
X518001Y142501D01*
X519334Y146499D02*
Y143833D01*
X520666Y142501D01*
X521999Y143833D01*
Y146499D01*
X523332Y142501D02*
X524665D01*
X523999D01*
Y146499D01*
X523332Y145833D01*
X198501Y443998D02*
X202499D01*
Y441999D01*
X201833Y441333D01*
X200500D01*
X199834Y441999D01*
Y443998D01*
Y442665D02*
X198501Y441333D01*
Y440000D02*
Y438667D01*
Y439333D01*
X202499D01*
X201833Y440000D01*
X198501Y434002D02*
Y436667D01*
X201167Y434002D01*
X201833D01*
X202499Y434668D01*
Y436001D01*
X201833Y436667D01*
X198501Y456332D02*
X202499D01*
Y454333D01*
X201833Y453666D01*
X200500D01*
X199834Y454333D01*
Y456332D01*
Y454999D02*
X198501Y453666D01*
Y452333D02*
Y451000D01*
Y451667D01*
X202499D01*
X201833Y452333D01*
X198501Y449001D02*
Y447668D01*
Y448335D01*
X202499D01*
X201833Y449001D01*
X269501Y444498D02*
X273499D01*
Y442499D01*
X272833Y441833D01*
X271500D01*
X270834Y442499D01*
Y444498D01*
Y443165D02*
X269501Y441833D01*
Y440500D02*
Y439167D01*
Y439833D01*
X273499D01*
X272833Y440500D01*
Y437167D02*
X273499Y436501D01*
Y435168D01*
X272833Y434502D01*
X270167D01*
X269501Y435168D01*
Y436501D01*
X270167Y437167D01*
X272833D01*
X269501Y454832D02*
X273499D01*
Y452833D01*
X272833Y452166D01*
X271500D01*
X270834Y452833D01*
Y454832D01*
Y453499D02*
X269501Y452166D01*
X270167Y450834D02*
X269501Y450167D01*
Y448834D01*
X270167Y448168D01*
X272833D01*
X273499Y448834D01*
Y450167D01*
X272833Y450834D01*
X272166D01*
X271500Y450167D01*
Y448168D01*
X152668Y376501D02*
Y380499D01*
X154667D01*
X155333Y379833D01*
Y378500D01*
X154667Y377834D01*
X152668D01*
X154001D02*
X155333Y376501D01*
X156667Y379833D02*
X157333Y380499D01*
X158666D01*
X159332Y379833D01*
Y379166D01*
X158666Y378500D01*
X159332Y377834D01*
Y377167D01*
X158666Y376501D01*
X157333D01*
X156667Y377167D01*
Y377834D01*
X157333Y378500D01*
X156667Y379166D01*
Y379833D01*
X157333Y378500D02*
X158666D01*
X152668Y408501D02*
Y412499D01*
X154667D01*
X155333Y411833D01*
Y410500D01*
X154667Y409834D01*
X152668D01*
X154001D02*
X155333Y408501D01*
X156667Y412499D02*
X159332D01*
Y411833D01*
X156667Y409167D01*
Y408501D01*
X169001Y186832D02*
X172999D01*
Y184833D01*
X172333Y184167D01*
X171000D01*
X170334Y184833D01*
Y186832D01*
Y185499D02*
X169001Y184167D01*
X172999Y180168D02*
X172333Y181501D01*
X171000Y182834D01*
X169667D01*
X169001Y182167D01*
Y180834D01*
X169667Y180168D01*
X170334D01*
X171000Y180834D01*
Y182834D01*
X187001Y186832D02*
X190999D01*
Y184833D01*
X190333Y184167D01*
X189000D01*
X188333Y184833D01*
Y186832D01*
Y185499D02*
X187001Y184167D01*
X190999Y180168D02*
Y182834D01*
X189000D01*
X189666Y181501D01*
Y180834D01*
X189000Y180168D01*
X187667D01*
X187001Y180834D01*
Y182167D01*
X187667Y182834D01*
X484687Y474001D02*
Y477999D01*
X486687D01*
X487353Y477333D01*
Y476000D01*
X486687Y475334D01*
X484687D01*
X486020D02*
X487353Y474001D01*
X488686Y477333D02*
X489353Y477999D01*
X490686D01*
X491352Y477333D01*
Y476666D01*
X490686Y476000D01*
X490019D01*
X490686D01*
X491352Y475334D01*
Y474667D01*
X490686Y474001D01*
X489353D01*
X488686Y474667D01*
X457148Y474001D02*
Y477999D01*
X459147D01*
X459814Y477333D01*
Y476000D01*
X459147Y475334D01*
X457148D01*
X458481D02*
X459814Y474001D01*
X463813D02*
X461147D01*
X463813Y476666D01*
Y477333D01*
X463146Y477999D01*
X461813D01*
X461147Y477333D01*
X431334Y474001D02*
Y477999D01*
X433334D01*
X434000Y477333D01*
Y476000D01*
X433334Y475334D01*
X431334D01*
X432667D02*
X434000Y474001D01*
X435333D02*
X436666D01*
X435999D01*
Y477999D01*
X435333Y477333D01*
X159834Y204667D02*
Y207333D01*
X159167Y207999D01*
X157834D01*
X157168Y207333D01*
Y204667D01*
X157834Y204001D01*
X159167D01*
X158501Y205334D02*
X159834Y204001D01*
X159167D02*
X159834Y204667D01*
X163832Y204001D02*
X161167D01*
X163832Y206666D01*
Y207333D01*
X163166Y207999D01*
X161833D01*
X161167Y207333D01*
X177500Y204667D02*
Y207333D01*
X176833Y207999D01*
X175501D01*
X174834Y207333D01*
Y204667D01*
X175501Y204001D01*
X176833D01*
X176167Y205334D02*
X177500Y204001D01*
X176833D02*
X177500Y204667D01*
X178833Y204001D02*
X180166D01*
X179499D01*
Y207999D01*
X178833Y207333D01*
X537001Y117832D02*
X540999D01*
Y115833D01*
X540333Y115166D01*
X539000D01*
X538334Y115833D01*
Y117832D01*
X540999Y111168D02*
Y113833D01*
X539000D01*
X539666Y112501D01*
Y111834D01*
X539000Y111168D01*
X537667D01*
X537001Y111834D01*
Y113167D01*
X537667Y113833D01*
X164168Y476501D02*
Y480499D01*
X166167D01*
X166833Y479833D01*
Y478500D01*
X166167Y477834D01*
X164168D01*
X170166Y476501D02*
Y480499D01*
X168166Y478500D01*
X170832D01*
X233668Y476501D02*
Y480499D01*
X235667D01*
X236334Y479833D01*
Y478500D01*
X235667Y477834D01*
X233668D01*
X237667Y479833D02*
X238333Y480499D01*
X239666D01*
X240332Y479833D01*
Y479166D01*
X239666Y478500D01*
X238999D01*
X239666D01*
X240332Y477834D01*
Y477167D01*
X239666Y476501D01*
X238333D01*
X237667Y477167D01*
X303668Y476501D02*
Y480499D01*
X305667D01*
X306334Y479833D01*
Y478500D01*
X305667Y477834D01*
X303668D01*
X310332Y476501D02*
X307666D01*
X310332Y479166D01*
Y479833D01*
X309666Y480499D01*
X308333D01*
X307666Y479833D01*
X375334Y476501D02*
Y480499D01*
X377334D01*
X378000Y479833D01*
Y478500D01*
X377334Y477834D01*
X375334D01*
X379333Y476501D02*
X380666D01*
X379999D01*
Y480499D01*
X379333Y479833D01*
X248866Y191299D02*
X247533D01*
X248199D01*
Y187967D01*
X247533Y187300D01*
X246866D01*
X246200Y187967D01*
X252865Y187300D02*
X250199D01*
X252865Y189966D01*
Y190632D01*
X252198Y191299D01*
X250865D01*
X250199Y190632D01*
X160500Y137499D02*
X159167D01*
X159834D01*
Y134167D01*
X159167Y133501D01*
X158501D01*
X157834Y134167D01*
X161833Y133501D02*
X163166D01*
X162499D01*
Y137499D01*
X161833Y136833D01*
X317002Y448499D02*
X318335D01*
X317668D01*
Y444501D01*
X317002D01*
X318335D01*
X323000Y447833D02*
X322333Y448499D01*
X321000D01*
X320334Y447833D01*
Y445167D01*
X321000Y444501D01*
X322333D01*
X323000Y445167D01*
X326998Y444501D02*
X324333D01*
X326998Y447166D01*
Y447833D01*
X326332Y448499D01*
X324999D01*
X324333Y447833D01*
X386668Y448999D02*
X388001D01*
X387334D01*
Y445001D01*
X386668D01*
X388001D01*
X392666Y448333D02*
X392000Y448999D01*
X390667D01*
X390000Y448333D01*
Y445667D01*
X390667Y445001D01*
X392000D01*
X392666Y445667D01*
X393999Y445001D02*
X395332D01*
X394666D01*
Y448999D01*
X393999Y448333D01*
X143169Y340999D02*
Y337001D01*
X145168D01*
X145835Y337667D01*
Y340333D01*
X145168Y340999D01*
X143169D01*
X147168Y337001D02*
Y340999D01*
X149167D01*
X149834Y340333D01*
Y339000D01*
X149167Y338334D01*
X147168D01*
X151166Y337001D02*
Y339666D01*
X152499Y340999D01*
X153832Y339666D01*
Y337001D01*
Y339000D01*
X151166D01*
X155165Y340999D02*
Y337001D01*
X157165D01*
X157831Y337667D01*
Y340333D01*
X157165Y340999D01*
X155165D01*
X512668Y487499D02*
Y483501D01*
X514667D01*
X515334Y484167D01*
Y486833D01*
X514667Y487499D01*
X512668D01*
X518666Y483501D02*
Y487499D01*
X516667Y485500D01*
X519332D01*
X484668Y487499D02*
Y483501D01*
X486667D01*
X487334Y484167D01*
Y486833D01*
X486667Y487499D01*
X484668D01*
X488666Y486833D02*
X489333Y487499D01*
X490666D01*
X491332Y486833D01*
Y486166D01*
X490666Y485500D01*
X489999D01*
X490666D01*
X491332Y484834D01*
Y484167D01*
X490666Y483501D01*
X489333D01*
X488666Y484167D01*
X457168Y487499D02*
Y483501D01*
X459167D01*
X459834Y484167D01*
Y486833D01*
X459167Y487499D01*
X457168D01*
X463832Y483501D02*
X461166D01*
X463832Y486166D01*
Y486833D01*
X463166Y487499D01*
X461833D01*
X461166Y486833D01*
X431334Y487499D02*
Y483501D01*
X433334D01*
X434000Y484167D01*
Y486833D01*
X433334Y487499D01*
X431334D01*
X435333Y483501D02*
X436666D01*
X435999D01*
Y487499D01*
X435333Y486833D01*
X319501Y160333D02*
X318834Y160999D01*
X317501D01*
X316835Y160333D01*
Y157667D01*
X317501Y157001D01*
X318834D01*
X319501Y157667D01*
X323499Y157001D02*
X320834D01*
X323499Y159667D01*
Y160333D01*
X322833Y160999D01*
X321500D01*
X320834Y160333D01*
X324832Y157001D02*
X326165D01*
X325499D01*
Y160999D01*
X324832Y160333D01*
X198833Y405166D02*
X199499Y405832D01*
Y407165D01*
X198833Y407832D01*
X196167D01*
X195501Y407165D01*
Y405832D01*
X196167Y405166D01*
X195501Y401167D02*
Y403833D01*
X198167Y401167D01*
X198833D01*
X199499Y401834D01*
Y403166D01*
X198833Y403833D01*
Y399834D02*
X199499Y399168D01*
Y397835D01*
X198833Y397168D01*
X196167D01*
X195501Y397835D01*
Y399168D01*
X196167Y399834D01*
X198833D01*
X206333Y404833D02*
X206999Y405499D01*
Y406832D01*
X206333Y407498D01*
X203667D01*
X203001Y406832D01*
Y405499D01*
X203667Y404833D01*
X203001Y403500D02*
Y402167D01*
Y402833D01*
X206999D01*
X206333Y403500D01*
X203667Y400167D02*
X203001Y399501D01*
Y398168D01*
X203667Y397502D01*
X206333D01*
X206999Y398168D01*
Y399501D01*
X206333Y400167D01*
X205666D01*
X205000Y399501D01*
Y397502D01*
X147167Y212333D02*
X146501Y212999D01*
X145168D01*
X144502Y212333D01*
Y209667D01*
X145168Y209001D01*
X146501D01*
X147167Y209667D01*
X148500Y209001D02*
X149833D01*
X149167D01*
Y212999D01*
X148500Y212333D01*
X151833D02*
X152499Y212999D01*
X153832D01*
X154498Y212333D01*
Y211666D01*
X153832Y211000D01*
X154498Y210334D01*
Y209667D01*
X153832Y209001D01*
X152499D01*
X151833Y209667D01*
Y210334D01*
X152499Y211000D01*
X151833Y211666D01*
Y212333D01*
X152499Y211000D02*
X153832D01*
X166667Y468333D02*
X166001Y468999D01*
X164668D01*
X164002Y468333D01*
Y465667D01*
X164668Y465001D01*
X166001D01*
X166667Y465667D01*
X168000Y465001D02*
X169333D01*
X168667D01*
Y468999D01*
X168000Y468333D01*
X171333Y468999D02*
X173998D01*
Y468333D01*
X171333Y465667D01*
Y465001D01*
X236667Y468333D02*
X236001Y468999D01*
X234668D01*
X234002Y468333D01*
Y465667D01*
X234668Y465001D01*
X236001D01*
X236667Y465667D01*
X238000Y465001D02*
X239333D01*
X238667D01*
Y468999D01*
X238000Y468333D01*
X243998Y468999D02*
X242666Y468333D01*
X241333Y467000D01*
Y465667D01*
X241999Y465001D01*
X243332D01*
X243998Y465667D01*
Y466334D01*
X243332Y467000D01*
X241333D01*
X197333Y150833D02*
X197999Y151499D01*
Y152832D01*
X197333Y153498D01*
X194667D01*
X194001Y152832D01*
Y151499D01*
X194667Y150833D01*
X194001Y149500D02*
Y148167D01*
Y148833D01*
X197999D01*
X197333Y149500D01*
X197999Y143502D02*
Y146167D01*
X196000D01*
X196667Y144834D01*
Y144168D01*
X196000Y143502D01*
X194667D01*
X194001Y144168D01*
Y145501D01*
X194667Y146167D01*
X244833Y405333D02*
X245499Y405999D01*
Y407332D01*
X244833Y407998D01*
X242167D01*
X241501Y407332D01*
Y405999D01*
X242167Y405333D01*
X241501Y404000D02*
Y402667D01*
Y403333D01*
X245499D01*
X244833Y404000D01*
X241501Y398668D02*
X245499D01*
X243500Y400667D01*
Y398002D01*
X237333Y405333D02*
X237999Y405999D01*
Y407332D01*
X237333Y407998D01*
X234667D01*
X234001Y407332D01*
Y405999D01*
X234667Y405333D01*
X234001Y404000D02*
Y402667D01*
Y403333D01*
X237999D01*
X237333Y404000D01*
Y400667D02*
X237999Y400001D01*
Y398668D01*
X237333Y398002D01*
X236666D01*
X236000Y398668D01*
Y399335D01*
Y398668D01*
X235334Y398002D01*
X234667D01*
X234001Y398668D01*
Y400001D01*
X234667Y400667D01*
X173667Y418833D02*
X173001Y419499D01*
X171668D01*
X171002Y418833D01*
Y416167D01*
X171668Y415501D01*
X173001D01*
X173667Y416167D01*
X175000Y415501D02*
X176333D01*
X175667D01*
Y419499D01*
X175000Y418833D01*
X180998Y415501D02*
X178333D01*
X180998Y418166D01*
Y418833D01*
X180332Y419499D01*
X178999D01*
X178333Y418833D01*
X202731Y466333D02*
X202065Y466999D01*
X200732D01*
X200066Y466333D01*
Y463667D01*
X200732Y463001D01*
X202065D01*
X202731Y463667D01*
X204064Y463001D02*
X205397D01*
X204731D01*
Y466999D01*
X204064Y466333D01*
X207397Y463001D02*
X208730D01*
X208063D01*
Y466999D01*
X207397Y466333D01*
X156833Y448833D02*
X157499Y449499D01*
Y450832D01*
X156833Y451498D01*
X154167D01*
X153501Y450832D01*
Y449499D01*
X154167Y448833D01*
X153501Y447500D02*
Y446167D01*
Y446833D01*
X157499D01*
X156833Y447500D01*
Y444167D02*
X157499Y443501D01*
Y442168D01*
X156833Y441502D01*
X154167D01*
X153501Y442168D01*
Y443501D01*
X154167Y444167D01*
X156833D01*
X226833Y446666D02*
X227499Y447333D01*
Y448666D01*
X226833Y449332D01*
X224167D01*
X223501Y448666D01*
Y447333D01*
X224167Y446666D01*
Y445333D02*
X223501Y444667D01*
Y443334D01*
X224167Y442668D01*
X226833D01*
X227499Y443334D01*
Y444667D01*
X226833Y445333D01*
X226166D01*
X225500Y444667D01*
Y442668D01*
X302833Y447166D02*
X303499Y447833D01*
Y449166D01*
X302833Y449832D01*
X300167D01*
X299501Y449166D01*
Y447833D01*
X300167Y447166D01*
X302833Y445833D02*
X303499Y445167D01*
Y443834D01*
X302833Y443168D01*
X302166D01*
X301500Y443834D01*
X300834Y443168D01*
X300167D01*
X299501Y443834D01*
Y445167D01*
X300167Y445833D01*
X300834D01*
X301500Y445167D01*
X302166Y445833D01*
X302833D01*
X301500Y445167D02*
Y443834D01*
X369334Y448333D02*
X368667Y448999D01*
X367334D01*
X366668Y448333D01*
Y445667D01*
X367334Y445001D01*
X368667D01*
X369334Y445667D01*
X370667Y448999D02*
X373332D01*
Y448333D01*
X370667Y445667D01*
Y445001D01*
X143377Y219833D02*
X142710Y220499D01*
X141377D01*
X140711Y219833D01*
Y217167D01*
X141377Y216501D01*
X142710D01*
X143377Y217167D01*
X147376Y220499D02*
X146043Y219833D01*
X144710Y218500D01*
Y217167D01*
X145376Y216501D01*
X146709D01*
X147376Y217167D01*
Y217834D01*
X146709Y218500D01*
X144710D01*
X266833Y358166D02*
X267499Y358833D01*
Y360166D01*
X266833Y360832D01*
X264167D01*
X263501Y360166D01*
Y358833D01*
X264167Y358166D01*
X267499Y354168D02*
Y356834D01*
X265500D01*
X266166Y355501D01*
Y354834D01*
X265500Y354168D01*
X264167D01*
X263501Y354834D01*
Y356167D01*
X264167Y356834D01*
X274333Y358769D02*
X274999Y359435D01*
Y360768D01*
X274333Y361435D01*
X271667D01*
X271001Y360768D01*
Y359435D01*
X271667Y358769D01*
X271001Y355436D02*
X274999D01*
X273000Y357436D01*
Y354770D01*
X319333Y358166D02*
X319999Y358833D01*
Y360166D01*
X319333Y360832D01*
X316667D01*
X316001Y360166D01*
Y358833D01*
X316667Y358166D01*
X319333Y356834D02*
X319999Y356167D01*
Y354834D01*
X319333Y354168D01*
X318666D01*
X318000Y354834D01*
Y355501D01*
Y354834D01*
X317334Y354168D01*
X316667D01*
X316001Y354834D01*
Y356167D01*
X316667Y356834D01*
X311833Y358166D02*
X312499Y358833D01*
Y360166D01*
X311833Y360832D01*
X309167D01*
X308501Y360166D01*
Y358833D01*
X309167Y358166D01*
X308501Y354168D02*
Y356834D01*
X311166Y354168D01*
X311833D01*
X312499Y354834D01*
Y356167D01*
X311833Y356834D01*
X525500Y449333D02*
X524834Y449999D01*
X523501D01*
X522834Y449333D01*
Y446667D01*
X523501Y446001D01*
X524834D01*
X525500Y446667D01*
X526833Y446001D02*
X528166D01*
X527499D01*
Y449999D01*
X526833Y449333D01*
D17*
X312000Y452300D02*
X332000D01*
X382000Y452800D02*
X402000D01*
D18*
X213744Y475453D02*
X219256D01*
X213744Y469547D02*
X219256D01*
M02*
