G04*
G04 #@! TF.GenerationSoftware,Altium Limited,Altium Designer,22.10.1 (41)*
G04*
G04 Layer_Physical_Order=1*
G04 Layer_Color=255*
%FSLAX25Y25*%
%MOIN*%
G70*
G04*
G04 #@! TF.SameCoordinates,AD521441-6981-4C9A-977E-8A670088B7DC*
G04*
G04*
G04 #@! TF.FilePolarity,Positive*
G04*
G01*
G75*
%ADD12C,0.00600*%
%ADD15C,0.01000*%
%ADD54R,0.03622X0.05433*%
%ADD55R,0.05236X0.05236*%
%ADD56R,0.07874X0.03543*%
%ADD57R,0.03543X0.07874*%
%ADD58R,0.07800X0.02100*%
%ADD59R,0.01181X0.03347*%
%ADD60R,0.03347X0.01181*%
%ADD61R,0.10039X0.10039*%
%ADD62R,0.03622X0.03858*%
%ADD63R,0.05512X0.03937*%
%ADD64R,0.03661X0.03425*%
%ADD65R,0.03858X0.03622*%
%ADD66R,0.05906X0.07874*%
%ADD67R,0.14961X0.07874*%
%ADD68R,0.02835X0.02520*%
%ADD69R,0.02520X0.02835*%
G04:AMPARAMS|DCode=70|XSize=64.57mil|YSize=16.14mil|CornerRadius=2.02mil|HoleSize=0mil|Usage=FLASHONLY|Rotation=270.000|XOffset=0mil|YOffset=0mil|HoleType=Round|Shape=RoundedRectangle|*
%AMROUNDEDRECTD70*
21,1,0.06457,0.01211,0,0,270.0*
21,1,0.06053,0.01614,0,0,270.0*
1,1,0.00404,-0.00605,-0.03027*
1,1,0.00404,-0.00605,0.03027*
1,1,0.00404,0.00605,0.03027*
1,1,0.00404,0.00605,-0.03027*
%
%ADD70ROUNDEDRECTD70*%
%ADD71R,0.02600X0.08000*%
%ADD72R,0.01968X0.01181*%
%ADD73R,0.03543X0.02559*%
%ADD74R,0.02100X0.07800*%
%ADD75R,0.03150X0.03150*%
%ADD76R,0.03189X0.03661*%
%ADD77R,0.05512X0.07480*%
%ADD78R,0.03150X0.05906*%
%ADD79R,0.05118X0.05512*%
%ADD80R,0.03937X0.03740*%
%ADD81C,0.02000*%
%ADD82C,0.01500*%
%ADD83C,0.04000*%
%ADD84C,0.09843*%
%ADD85C,0.03000*%
%ADD86C,0.05622*%
%ADD87C,0.09055*%
%ADD88R,0.05906X0.05906*%
%ADD89C,0.05906*%
%ADD90C,0.05512*%
%ADD91C,0.03500*%
G36*
X649197Y251500D02*
X386000Y251500D01*
Y100803D01*
X100803D01*
Y499197D01*
X649197D01*
Y251500D01*
D02*
G37*
%LPC*%
G36*
X527075Y487575D02*
X525250D01*
Y485750D01*
X527075D01*
Y487575D01*
D02*
G37*
G36*
X499217Y487831D02*
X497372D01*
Y485750D01*
X499217D01*
Y487831D01*
D02*
G37*
G36*
X496872D02*
X495027D01*
Y485750D01*
X496872D01*
Y487831D01*
D02*
G37*
G36*
X524750Y487575D02*
X522925D01*
Y485750D01*
X524750D01*
Y487575D01*
D02*
G37*
G36*
X450575D02*
X446425D01*
Y484867D01*
X445169Y483611D01*
X444669Y483818D01*
Y487575D01*
X440520D01*
Y486520D01*
X437500D01*
X437110Y486442D01*
X436779Y486221D01*
X435268Y484710D01*
X435047Y484379D01*
X434970Y483989D01*
Y483529D01*
X434190Y482750D01*
X433553D01*
X432725Y482408D01*
X432093Y481775D01*
X431750Y480947D01*
Y480053D01*
X432093Y479225D01*
X432725Y478592D01*
X433553Y478250D01*
X434447D01*
X435275Y478592D01*
X435908Y479225D01*
X436250Y480053D01*
Y480947D01*
X435963Y481639D01*
X436710Y482386D01*
X436931Y482717D01*
X437009Y483107D01*
Y483567D01*
X437922Y484480D01*
X440520D01*
Y483425D01*
X444276D01*
X444483Y482925D01*
X442070Y480512D01*
X441849Y480182D01*
X441772Y479791D01*
Y479216D01*
X439169D01*
Y472784D01*
X443791D01*
Y477212D01*
X443811Y477311D01*
Y479369D01*
X447867Y483425D01*
X450575D01*
Y487575D01*
D02*
G37*
G36*
X524750Y485250D02*
X522925D01*
Y483425D01*
X524750D01*
Y485250D01*
D02*
G37*
G36*
X499217D02*
X497372D01*
Y483169D01*
X499217D01*
Y485250D01*
D02*
G37*
G36*
X496872D02*
X495027D01*
Y483169D01*
X496872D01*
Y485250D01*
D02*
G37*
G36*
X220740Y475165D02*
X219506D01*
Y474325D01*
X220740D01*
Y475165D01*
D02*
G37*
G36*
X219006D02*
X217772D01*
Y474325D01*
X219006D01*
Y475165D01*
D02*
G37*
G36*
X505594Y487831D02*
X501405D01*
Y484611D01*
X497090Y480296D01*
X496869Y479965D01*
X496791Y479575D01*
Y479216D01*
X494189D01*
Y473764D01*
X493727Y473573D01*
X490399Y476901D01*
X489985Y477177D01*
X489498Y477275D01*
X478811D01*
Y479216D01*
X474189D01*
Y474586D01*
X472411Y472808D01*
X471291D01*
Y479216D01*
X471291Y479216D01*
X471291D01*
X471486Y479639D01*
X475273Y483425D01*
X477980D01*
Y487575D01*
X473831D01*
Y484867D01*
X472575Y483611D01*
X472075Y483818D01*
Y487575D01*
X467925D01*
Y486520D01*
X465000D01*
X464610Y486442D01*
X464279Y486221D01*
X460703Y482644D01*
X460448Y482750D01*
X459552D01*
X458726Y482408D01*
X458092Y481775D01*
X457750Y480947D01*
Y480053D01*
X458092Y479225D01*
X458726Y478592D01*
X459552Y478250D01*
X460448D01*
X461274Y478592D01*
X461907Y479225D01*
X462250Y480053D01*
Y480947D01*
X462144Y481203D01*
X465422Y484480D01*
X467925D01*
Y483425D01*
X471682D01*
X471889Y482925D01*
X469297Y480333D01*
X469075Y480002D01*
X468998Y479612D01*
Y479216D01*
X466669D01*
Y472808D01*
X463550D01*
X459457Y476901D01*
X459043Y477177D01*
X458555Y477275D01*
X451311D01*
Y479216D01*
X446689D01*
Y474586D01*
X422972Y450869D01*
X422695Y450455D01*
X422598Y449967D01*
Y448344D01*
X404520Y430265D01*
X404020Y430472D01*
Y438675D01*
X403942Y439065D01*
X403721Y439396D01*
X402246Y440871D01*
X401915Y441092D01*
X401525Y441170D01*
X392475D01*
X392085Y441092D01*
X391754Y440871D01*
X391206Y440322D01*
X390927Y440267D01*
X390513Y439991D01*
X390363Y439765D01*
X389498Y438900D01*
X387700D01*
Y430170D01*
X387700Y429900D01*
X387295Y429670D01*
X386705D01*
X386300Y429900D01*
X386300Y430170D01*
Y438900D01*
X382700D01*
Y435420D01*
X353760D01*
X346308Y442871D01*
X345978Y443092D01*
X345588Y443170D01*
X319975D01*
X319585Y443092D01*
X319254Y442871D01*
X316241Y439858D01*
X315962Y439802D01*
X315549Y439526D01*
X315398Y439300D01*
X314498Y438400D01*
X312700D01*
Y429400D01*
X313480D01*
Y404513D01*
X313226Y404408D01*
X312593Y403774D01*
X312250Y402948D01*
Y402052D01*
X312593Y401226D01*
X313226Y400593D01*
X314052Y400250D01*
X314948D01*
X315774Y400593D01*
X316407Y401226D01*
X316750Y402052D01*
Y402948D01*
X316407Y403774D01*
X315774Y404408D01*
X315520Y404513D01*
Y429400D01*
X316300D01*
Y436598D01*
X317200Y437498D01*
X317700Y437290D01*
Y429400D01*
X318480D01*
Y404513D01*
X318226Y404408D01*
X317593Y403774D01*
X317250Y402948D01*
Y402052D01*
X317593Y401226D01*
X318226Y400593D01*
X319052Y400250D01*
X319948D01*
X320775Y400593D01*
X321408Y401226D01*
X321750Y402052D01*
Y402948D01*
X321408Y403774D01*
X320775Y404408D01*
X320520Y404513D01*
Y429400D01*
X321300D01*
Y438400D01*
X318374D01*
X318167Y438900D01*
X320397Y441130D01*
X327229D01*
X327278Y440630D01*
X327085Y440592D01*
X326754Y440371D01*
X326148Y439764D01*
X325962Y439727D01*
X325549Y439451D01*
X324498Y438400D01*
X322700D01*
Y429400D01*
X323480D01*
Y404513D01*
X323225Y404408D01*
X322592Y403774D01*
X322250Y402948D01*
Y402052D01*
X322592Y401226D01*
X323225Y400593D01*
X324052Y400250D01*
X324948D01*
X325775Y400593D01*
X326408Y401226D01*
X326750Y402052D01*
Y402948D01*
X326408Y403774D01*
X325775Y404408D01*
X325520Y404513D01*
Y429400D01*
X326300D01*
Y436598D01*
X327200Y437498D01*
X327700Y437290D01*
Y429400D01*
X331300D01*
Y438130D01*
X331300Y438400D01*
X331705Y438630D01*
X344130D01*
X354831Y427929D01*
X355162Y427708D01*
X355552Y427630D01*
X391525D01*
X391915Y427708D01*
X392246Y427929D01*
X393306Y428990D01*
X393457Y429215D01*
X394142Y429900D01*
X396300D01*
Y438630D01*
X396300Y438900D01*
X396705Y439130D01*
X397295D01*
X397700Y438900D01*
X397700Y438630D01*
Y429900D01*
X400626D01*
X400833Y429400D01*
X398452Y427020D01*
X334000D01*
X333610Y426942D01*
X333279Y426721D01*
X328779Y422221D01*
X328558Y421890D01*
X328480Y421500D01*
Y404513D01*
X328225Y404408D01*
X327592Y403774D01*
X327250Y402948D01*
Y402052D01*
X327592Y401226D01*
X328225Y400593D01*
X329052Y400250D01*
X329948D01*
X330774Y400593D01*
X331407Y401226D01*
X331750Y402052D01*
Y402948D01*
X331407Y403774D01*
X330774Y404408D01*
X330520Y404513D01*
Y421078D01*
X334422Y424980D01*
X398528D01*
X398735Y424480D01*
X351529Y377274D01*
X308908D01*
X308908Y377274D01*
X308275Y377907D01*
X307448Y378250D01*
X306552D01*
X305726Y377907D01*
X305093Y377274D01*
X304750Y376448D01*
Y375552D01*
X305093Y374726D01*
X305726Y374093D01*
X306552Y373750D01*
X307448D01*
X308275Y374093D01*
X308908Y374726D01*
X308908Y374726D01*
X352057D01*
X352545Y374822D01*
X352958Y375099D01*
X424774Y446915D01*
X425050Y447328D01*
X425147Y447816D01*
Y449439D01*
X448491Y472784D01*
X451311D01*
Y474725D01*
X458028D01*
X462121Y470632D01*
X462534Y470356D01*
X463022Y470259D01*
X472939D01*
X473427Y470356D01*
X473840Y470632D01*
X475991Y472784D01*
X478811D01*
Y474725D01*
X488970D01*
X493063Y470632D01*
X493476Y470356D01*
X493964Y470259D01*
X527939D01*
X528427Y470356D01*
X528840Y470632D01*
X530991Y472784D01*
X533811D01*
Y479216D01*
X529189D01*
Y474586D01*
X527411Y472808D01*
X526291D01*
Y477212D01*
X526311Y477311D01*
Y479463D01*
X530273Y483425D01*
X532980D01*
Y487575D01*
X528831D01*
Y484867D01*
X527575Y483611D01*
X527075Y483818D01*
Y485250D01*
X525250D01*
Y483425D01*
X526682D01*
X526889Y482925D01*
X524571Y480607D01*
X524349Y480276D01*
X524272Y479886D01*
Y479216D01*
X521669D01*
Y472808D01*
X506331D01*
Y477197D01*
X508040D01*
X508430Y477275D01*
X508761Y477496D01*
X511246Y479980D01*
X513487D01*
X513592Y479726D01*
X514225Y479093D01*
X515053Y478750D01*
X515947D01*
X516775Y479093D01*
X517408Y479726D01*
X517750Y480552D01*
Y481448D01*
X517408Y482274D01*
X516775Y482907D01*
X515947Y483250D01*
X515053D01*
X514225Y482907D01*
X513592Y482274D01*
X513487Y482020D01*
X510823D01*
X510433Y481942D01*
X510103Y481721D01*
X507618Y479236D01*
X505331D01*
X505232Y479216D01*
X501709D01*
Y472808D01*
X498811D01*
Y477212D01*
X498831Y477311D01*
Y479152D01*
X502847Y483169D01*
X505594D01*
Y487831D01*
D02*
G37*
G36*
X220740Y473825D02*
X219506D01*
Y472984D01*
X220740D01*
Y473825D01*
D02*
G37*
G36*
X219006D02*
X217772D01*
Y472984D01*
X219006D01*
Y473825D01*
D02*
G37*
G36*
X202948Y476250D02*
X202052D01*
X201225Y475908D01*
X200592Y475275D01*
X200250Y474447D01*
Y473553D01*
X200592Y472725D01*
X201048Y472270D01*
X200841Y471770D01*
X198750D01*
Y471947D01*
X198407Y472775D01*
X197775Y473408D01*
X196948Y473750D01*
X196052D01*
X195226Y473408D01*
X194592Y472775D01*
X194250Y471947D01*
Y471053D01*
X194592Y470225D01*
X195226Y469593D01*
X196052Y469250D01*
X196948D01*
X197775Y469593D01*
X197912Y469730D01*
X203917D01*
X204307Y469808D01*
X204453Y469906D01*
X212260D01*
Y469835D01*
X215228D01*
Y472016D01*
X212260D01*
Y471945D01*
X204791D01*
X204370Y472445D01*
X204390Y472558D01*
X204721Y472779D01*
X204997Y473055D01*
X212260D01*
Y472984D01*
X215228D01*
Y475165D01*
X212260D01*
Y475094D01*
X204575D01*
X204489Y475077D01*
X204408Y475275D01*
X203774Y475908D01*
X202948Y476250D01*
D02*
G37*
G36*
X215709Y467429D02*
X213648D01*
Y465250D01*
X215709D01*
Y467429D01*
D02*
G37*
G36*
X213148D02*
X211087D01*
Y465250D01*
X213148D01*
Y467429D01*
D02*
G37*
G36*
X215709Y464750D02*
X213648D01*
Y462571D01*
X215709D01*
Y464750D01*
D02*
G37*
G36*
X213148D02*
X211087D01*
Y462571D01*
X213148D01*
Y464750D01*
D02*
G37*
G36*
X401300Y463100D02*
X399750D01*
Y458850D01*
X401300D01*
Y463100D01*
D02*
G37*
G36*
X399250D02*
X397700D01*
Y458850D01*
X399250D01*
Y463100D01*
D02*
G37*
G36*
X331300Y462600D02*
X329750D01*
Y458350D01*
X331300D01*
Y462600D01*
D02*
G37*
G36*
X329250D02*
X327700D01*
Y458350D01*
X329250D01*
Y462600D01*
D02*
G37*
G36*
X219256Y472200D02*
X218768Y472103D01*
X218638Y472016D01*
X217772D01*
Y469835D01*
X218104D01*
Y467429D01*
X217189D01*
Y462571D01*
X218476D01*
Y460658D01*
X218092Y460275D01*
X217750Y459447D01*
Y458553D01*
X218092Y457725D01*
X218725Y457093D01*
X219552Y456750D01*
X220448D01*
X221274Y457093D01*
X221907Y457725D01*
X222250Y458553D01*
Y459447D01*
X221907Y460275D01*
X221274Y460908D01*
X221024Y461011D01*
Y462571D01*
X221811D01*
Y467429D01*
X220653D01*
Y469835D01*
X220740D01*
Y472016D01*
X219874D01*
X219744Y472103D01*
X219256Y472200D01*
D02*
G37*
G36*
X170550Y460400D02*
X169250D01*
Y456250D01*
X170550D01*
Y460400D01*
D02*
G37*
G36*
X168750D02*
X167450D01*
Y456250D01*
X168750D01*
Y460400D01*
D02*
G37*
G36*
X241050Y460100D02*
X239750D01*
Y455950D01*
X241050D01*
Y460100D01*
D02*
G37*
G36*
X239250D02*
X237950D01*
Y455950D01*
X239250D01*
Y460100D01*
D02*
G37*
G36*
X401300Y458350D02*
X399750D01*
Y454100D01*
X401300D01*
Y458350D01*
D02*
G37*
G36*
X399250D02*
X397700D01*
Y454100D01*
X399250D01*
Y458350D01*
D02*
G37*
G36*
X397955Y481953D02*
X397045D01*
X396167Y481717D01*
X395380Y481263D01*
X394737Y480620D01*
X394283Y479833D01*
X394047Y478955D01*
Y478045D01*
X394283Y477167D01*
X394568Y476674D01*
X393419Y475525D01*
X393087Y475028D01*
X392971Y474443D01*
Y463100D01*
X392700D01*
Y454100D01*
X396300D01*
Y463100D01*
X396029D01*
Y473810D01*
X397267Y475047D01*
X397955D01*
X398833Y475282D01*
X399620Y475737D01*
X400263Y476380D01*
X400717Y477167D01*
X400953Y478045D01*
Y478955D01*
X400717Y479833D01*
X400263Y480620D01*
X399620Y481263D01*
X398833Y481717D01*
X397955Y481953D01*
D02*
G37*
G36*
X389953D02*
X383047D01*
Y475047D01*
X384971D01*
Y471550D01*
X385087Y470965D01*
X385419Y470469D01*
X387971Y467916D01*
Y463100D01*
X387700D01*
Y454100D01*
X391300D01*
Y463100D01*
X391029D01*
Y468550D01*
X390913Y469135D01*
X390581Y469631D01*
X388029Y472184D01*
Y475047D01*
X389953D01*
Y481953D01*
D02*
G37*
G36*
X331300Y457850D02*
X329750D01*
Y453600D01*
X331300D01*
Y457850D01*
D02*
G37*
G36*
X329250D02*
X327700D01*
Y453600D01*
X329250D01*
Y457850D01*
D02*
G37*
G36*
X326955Y481953D02*
X326045D01*
X325167Y481717D01*
X324380Y481263D01*
X323737Y480620D01*
X323283Y479833D01*
X323047Y478955D01*
Y478045D01*
X323283Y477167D01*
X323568Y476674D01*
X323419Y476525D01*
X323087Y476028D01*
X322971Y475443D01*
Y462600D01*
X322700D01*
Y453600D01*
X326300D01*
Y462600D01*
X326029D01*
Y474810D01*
X326267Y475047D01*
X326955D01*
X327833Y475282D01*
X328620Y475737D01*
X329263Y476380D01*
X329717Y477167D01*
X329953Y478045D01*
Y478955D01*
X329717Y479833D01*
X329263Y480620D01*
X328620Y481263D01*
X327833Y481717D01*
X326955Y481953D01*
D02*
G37*
G36*
X319953D02*
X313047D01*
Y475047D01*
X314971D01*
Y470174D01*
X315087Y469588D01*
X315419Y469092D01*
X317971Y466540D01*
Y462600D01*
X317700D01*
Y453600D01*
X321300D01*
Y462600D01*
X321029D01*
Y467174D01*
X320913Y467759D01*
X320581Y468255D01*
X318029Y470807D01*
Y475047D01*
X319953D01*
Y481953D01*
D02*
G37*
G36*
X256955D02*
X256045D01*
X255167Y481717D01*
X254380Y481263D01*
X253737Y480620D01*
X253282Y479833D01*
X253047Y478955D01*
Y478045D01*
X253282Y477167D01*
X253737Y476380D01*
X254380Y475737D01*
X254971Y475396D01*
Y470252D01*
X254148Y469429D01*
X251689D01*
Y464571D01*
X256311D01*
Y465125D01*
X258300D01*
X266975Y456450D01*
X266784Y455988D01*
X263228D01*
Y455738D01*
X260787D01*
X260202Y455622D01*
X259706Y455290D01*
X256512Y452096D01*
X256050Y452288D01*
Y460100D01*
X252950D01*
Y452216D01*
X252488Y452025D01*
X251050Y453463D01*
Y460100D01*
X248866D01*
X248675Y460562D01*
X248979Y460866D01*
X249311Y461362D01*
X249427Y461948D01*
Y464571D01*
X250209D01*
Y469429D01*
X248029D01*
Y475047D01*
X249953D01*
Y481953D01*
X243047D01*
Y475047D01*
X244971D01*
Y468516D01*
X245087Y467930D01*
X245419Y467434D01*
X245587Y467266D01*
Y464571D01*
X246368D01*
Y462581D01*
X243887Y460100D01*
X242950D01*
Y451300D01*
X246050D01*
Y457937D01*
X247488Y459375D01*
X247950Y459184D01*
Y451300D01*
X248887D01*
X251469Y448719D01*
X251965Y448387D01*
X252550Y448271D01*
X256378D01*
X256964Y448387D01*
X257460Y448719D01*
X261420Y452679D01*
X263228D01*
Y452429D01*
X265609D01*
X267258Y450779D01*
X267051Y450280D01*
X263228D01*
Y448391D01*
X260216Y445379D01*
X249200D01*
X248615Y445263D01*
X248119Y444931D01*
X243887Y440700D01*
X242950D01*
Y431929D01*
X241050D01*
Y440700D01*
X237950D01*
Y432888D01*
X237488Y432696D01*
X233029Y437155D01*
Y440587D01*
X233929D01*
Y445209D01*
X229071D01*
Y440587D01*
X229971D01*
Y436522D01*
X230087Y435936D01*
X230419Y435440D01*
X236540Y429319D01*
X237036Y428987D01*
X237622Y428871D01*
X244725D01*
Y427908D01*
X244725Y427908D01*
X244092Y427275D01*
X243750Y426447D01*
Y425553D01*
X244092Y424725D01*
X244725Y424092D01*
X245552Y423750D01*
X246448D01*
X247274Y424092D01*
X247907Y424725D01*
X248250Y425553D01*
Y426447D01*
X247907Y427275D01*
X247274Y427908D01*
X247274Y427908D01*
Y429147D01*
X247531Y429319D01*
X250113Y431900D01*
X251050D01*
Y440700D01*
X248866D01*
X248675Y441162D01*
X249833Y442321D01*
X259830D01*
Y435615D01*
X256550Y432335D01*
X256050Y432542D01*
Y440700D01*
X252950D01*
Y431900D01*
X255408D01*
X255615Y431400D01*
X243427Y419212D01*
X228192D01*
X227802Y419134D01*
X227471Y418913D01*
X218722Y410164D01*
X218501Y409833D01*
X218423Y409443D01*
Y404971D01*
X218270Y404865D01*
X217770Y405128D01*
Y409369D01*
X217692Y409759D01*
X217471Y410090D01*
X193511Y434050D01*
X193702Y434512D01*
X195109D01*
X198915Y430706D01*
X199411Y430374D01*
X199996Y430258D01*
X200079D01*
X200093Y430226D01*
X200726Y429593D01*
X201552Y429250D01*
X202448D01*
X203274Y429593D01*
X203907Y430226D01*
X204250Y431052D01*
Y431948D01*
X203907Y432774D01*
X203274Y433407D01*
X202448Y433750D01*
X201552D01*
X200726Y433407D01*
X200634Y433316D01*
X200630D01*
X197655Y436291D01*
X202853Y441490D01*
X203185Y441986D01*
X203301Y442571D01*
Y453608D01*
X203185Y454193D01*
X202853Y454689D01*
X189461Y468081D01*
X188965Y468413D01*
X188380Y468529D01*
X186311D01*
Y469429D01*
X185529D01*
Y474310D01*
X186267Y475047D01*
X186955D01*
X187833Y475282D01*
X188620Y475737D01*
X189263Y476380D01*
X189717Y477167D01*
X189953Y478045D01*
Y478955D01*
X189717Y479833D01*
X189263Y480620D01*
X188620Y481263D01*
X187833Y481717D01*
X186955Y481953D01*
X186045D01*
X185167Y481717D01*
X184380Y481263D01*
X183737Y480620D01*
X183282Y479833D01*
X183047Y478955D01*
Y478045D01*
X183282Y477167D01*
X183568Y476674D01*
X182919Y476025D01*
X182587Y475528D01*
X182471Y474943D01*
Y469429D01*
X181689D01*
Y464571D01*
X186311D01*
Y465471D01*
X187746D01*
X196475Y456742D01*
X196284Y456280D01*
X192728D01*
Y456029D01*
X190228D01*
X189643Y455913D01*
X189147Y455581D01*
X186972Y453406D01*
X186871Y453256D01*
X186012Y452396D01*
X185550Y452588D01*
Y460400D01*
X182450D01*
Y452516D01*
X181988Y452325D01*
X180550Y453763D01*
Y460400D01*
X177450D01*
Y451600D01*
X178387D01*
X180969Y449019D01*
X181465Y448687D01*
X182050Y448571D01*
X185878D01*
X186464Y448687D01*
X186960Y449019D01*
X189135Y451194D01*
X189236Y451344D01*
X190862Y452971D01*
X192728D01*
Y452720D01*
X195109D01*
X196758Y451071D01*
X196551Y450571D01*
X192728D01*
Y449175D01*
X189089Y445535D01*
X178556D01*
X177971Y445419D01*
X177474Y445087D01*
X173387Y441000D01*
X172450D01*
Y432229D01*
X170550D01*
Y441000D01*
X167450D01*
Y433188D01*
X166988Y432996D01*
X163029Y436955D01*
Y441087D01*
X163929D01*
Y445709D01*
X159071D01*
Y441087D01*
X159971D01*
Y436322D01*
X160087Y435736D01*
X160419Y435240D01*
X162967Y432691D01*
X162776Y432229D01*
X145553D01*
X144967Y432113D01*
X144471Y431781D01*
X115419Y402729D01*
X115087Y402233D01*
X114971Y401647D01*
Y378500D01*
X115087Y377915D01*
X115419Y377419D01*
X119419Y373419D01*
X119915Y373087D01*
X120500Y372971D01*
X143000D01*
X143585Y373087D01*
X144081Y373419D01*
X146414Y375751D01*
X146746Y376248D01*
X146862Y376833D01*
Y378161D01*
X149008D01*
Y387035D01*
X142102D01*
Y378161D01*
X143804D01*
Y377467D01*
X142367Y376029D01*
X121133D01*
X118029Y379134D01*
Y401014D01*
X128058Y411042D01*
X128520Y410851D01*
Y402965D01*
X134971D01*
Y387035D01*
X133047D01*
Y378161D01*
X139953D01*
Y387035D01*
X138029D01*
Y402965D01*
X144480D01*
Y403112D01*
X153169D01*
Y402429D01*
X157831D01*
Y406854D01*
X153169D01*
Y406171D01*
X144480D01*
Y411839D01*
X129507D01*
X129316Y412301D01*
X146186Y429171D01*
X175317D01*
X177471Y427016D01*
Y424500D01*
Y414429D01*
X176689D01*
Y409571D01*
X177471D01*
Y400850D01*
X177587Y400265D01*
X177919Y399769D01*
X178651Y399036D01*
X178332Y398648D01*
X177935Y398913D01*
X177350Y399029D01*
X176153D01*
X175775Y399408D01*
X174948Y399750D01*
X174052D01*
X173225Y399408D01*
X172847Y399029D01*
X170200D01*
Y399050D01*
X161400D01*
Y395950D01*
X170200D01*
Y395971D01*
X172847D01*
X173225Y395592D01*
X174052Y395250D01*
X174948D01*
X175775Y395592D01*
X176153Y395971D01*
X176716D01*
X180800Y391887D01*
Y390950D01*
X189600D01*
Y391480D01*
X190571D01*
X190961Y391558D01*
X191292Y391779D01*
X194571Y395058D01*
X195071Y394851D01*
Y393852D01*
X197250D01*
Y395913D01*
X196045D01*
X195853Y396375D01*
X204061Y404583D01*
X210155D01*
X210289Y404417D01*
X210465Y404083D01*
X210429Y403901D01*
Y397847D01*
X210484Y397574D01*
X210639Y397341D01*
X210871Y397186D01*
X211145Y397132D01*
X212355D01*
X212629Y397186D01*
X212861Y397341D01*
X213139D01*
X213371Y397186D01*
X213645Y397132D01*
X214855D01*
X215129Y397186D01*
X215361Y397341D01*
X215639D01*
X215871Y397186D01*
X216145Y397132D01*
X217355D01*
X217629Y397186D01*
X217861Y397341D01*
X218139D01*
X218371Y397186D01*
X218645Y397132D01*
X219855D01*
X220129Y397186D01*
X220361Y397341D01*
X220639D01*
X220871Y397186D01*
X221145Y397132D01*
X221897D01*
X222105Y396632D01*
X220992Y395520D01*
X220662D01*
X220274Y395907D01*
X219448Y396250D01*
X218552D01*
X217725Y395907D01*
X217092Y395274D01*
X216750Y394448D01*
Y393552D01*
X217092Y392725D01*
X217725Y392092D01*
X218552Y391750D01*
X219448D01*
X220274Y392092D01*
X220788Y392606D01*
X221010Y392530D01*
X221250Y392361D01*
Y391552D01*
X221592Y390725D01*
X222225Y390092D01*
X223052Y389750D01*
X223948D01*
X224303Y389897D01*
X224560Y389687D01*
X224707Y389523D01*
Y388672D01*
X225049Y387845D01*
X225682Y387212D01*
X226509Y386869D01*
X227404D01*
X228232Y387212D01*
X228864Y387845D01*
X229207Y388672D01*
Y389567D01*
X229002Y390060D01*
X229971Y391029D01*
X230192Y391360D01*
X230270Y391750D01*
Y397280D01*
X230361Y397341D01*
X230516Y397574D01*
X230571Y397847D01*
Y403901D01*
X230516Y404174D01*
X230361Y404406D01*
X230129Y404562D01*
X229855Y404616D01*
X228645D01*
X228371Y404562D01*
X228139Y404406D01*
X227861D01*
X227629Y404562D01*
X227355Y404616D01*
X226145D01*
X225871Y404562D01*
X225639Y404406D01*
X225361D01*
X225129Y404562D01*
X224855Y404616D01*
X223645D01*
X223371Y404562D01*
X223139Y404406D01*
X222861D01*
X222629Y404562D01*
X222355Y404616D01*
X221145D01*
X220963Y404580D01*
X220629Y404756D01*
X220462Y404890D01*
Y409021D01*
X228614Y417172D01*
X243849D01*
X244239Y417250D01*
X244570Y417471D01*
X261571Y434472D01*
X261792Y434803D01*
X261870Y435193D01*
Y442727D01*
X261931Y442768D01*
X262728Y443566D01*
X263228Y443358D01*
Y440220D01*
X267105D01*
X267296Y439758D01*
X265609Y438071D01*
X263228D01*
Y434512D01*
X263721D01*
Y433903D01*
X263092Y433275D01*
X262750Y432447D01*
Y431553D01*
X263092Y430725D01*
X263725Y430092D01*
X264552Y429750D01*
X265448D01*
X266274Y430092D01*
X266908Y430725D01*
X267250Y431553D01*
Y432447D01*
X266908Y433275D01*
X266779Y433403D01*
Y434512D01*
X267772D01*
Y435908D01*
X273353Y441490D01*
X273685Y441986D01*
X273801Y442571D01*
Y453316D01*
X273685Y453902D01*
X273353Y454398D01*
X260015Y467736D01*
X259519Y468067D01*
X258934Y468184D01*
X257885D01*
X257680Y468684D01*
X257913Y469033D01*
X258029Y469618D01*
Y475396D01*
X258620Y475737D01*
X259263Y476380D01*
X259717Y477167D01*
X259953Y478045D01*
Y478955D01*
X259717Y479833D01*
X259263Y480620D01*
X258620Y481263D01*
X257833Y481717D01*
X256955Y481953D01*
D02*
G37*
G36*
X179953D02*
X173047D01*
Y475047D01*
X175669D01*
Y469429D01*
X175587D01*
Y466734D01*
X172919Y464066D01*
X172587Y463570D01*
X172471Y462984D01*
Y460400D01*
X172450D01*
Y451600D01*
X175550D01*
Y460400D01*
X175529D01*
Y462351D01*
X177750Y464571D01*
X180209D01*
Y469429D01*
X178728D01*
Y475047D01*
X179953D01*
Y481953D01*
D02*
G37*
G36*
X170550Y455750D02*
X169250D01*
Y451600D01*
X170550D01*
Y455750D01*
D02*
G37*
G36*
X168750D02*
X167450D01*
Y451600D01*
X168750D01*
Y455750D01*
D02*
G37*
G36*
X241050Y455450D02*
X239750D01*
Y451300D01*
X241050D01*
Y455450D01*
D02*
G37*
G36*
X239250D02*
X237950D01*
Y451300D01*
X239250D01*
Y455450D01*
D02*
G37*
G36*
X386300Y463100D02*
X382700D01*
Y456571D01*
X382480Y456528D01*
X382067Y456251D01*
X378127Y452311D01*
X375071D01*
Y451076D01*
X311547D01*
X311356Y451538D01*
X313394Y453576D01*
X313950D01*
X314073Y453600D01*
X316300D01*
Y462600D01*
X312700D01*
Y456091D01*
X312378Y456028D01*
X311965Y455751D01*
X308127Y451913D01*
X305071D01*
Y450877D01*
X295102D01*
X294615Y450780D01*
X294201Y450504D01*
X291373Y447676D01*
X290725Y447407D01*
X290092Y446774D01*
X289750Y445948D01*
Y445052D01*
X290092Y444226D01*
X290725Y443593D01*
X291552Y443250D01*
X292448D01*
X293274Y443593D01*
X293907Y444226D01*
X294250Y445052D01*
Y445948D01*
X293957Y446655D01*
X295630Y448328D01*
X305071D01*
Y447291D01*
X309929D01*
Y448527D01*
X375071D01*
Y447689D01*
X379929D01*
Y450509D01*
X383496Y454075D01*
X383950D01*
X384073Y454100D01*
X386300D01*
Y463100D01*
D02*
G37*
G36*
X163929Y451811D02*
X161750D01*
Y449750D01*
X163929D01*
Y451811D01*
D02*
G37*
G36*
X161250D02*
X159071D01*
Y449750D01*
X161250D01*
Y451811D01*
D02*
G37*
G36*
X233929Y451311D02*
X231750D01*
Y449250D01*
X233929D01*
Y451311D01*
D02*
G37*
G36*
X231250D02*
X229071D01*
Y449250D01*
X231250D01*
Y451311D01*
D02*
G37*
G36*
X515311Y450429D02*
X513250D01*
Y448250D01*
X515311D01*
Y450429D01*
D02*
G37*
G36*
X512750D02*
X510689D01*
Y448250D01*
X512750D01*
Y450429D01*
D02*
G37*
G36*
X163929Y449250D02*
X161750D01*
Y447189D01*
X163929D01*
Y449250D01*
D02*
G37*
G36*
X161250D02*
X159071D01*
Y447189D01*
X161250D01*
Y449250D01*
D02*
G37*
G36*
X233929Y448750D02*
X231750D01*
Y446689D01*
X233929D01*
Y448750D01*
D02*
G37*
G36*
X231250D02*
X229071D01*
Y446689D01*
X231250D01*
Y448750D01*
D02*
G37*
G36*
X515311Y447750D02*
X513250D01*
Y445571D01*
X515311D01*
Y447750D01*
D02*
G37*
G36*
X512750D02*
X510689D01*
Y445571D01*
X512750D01*
Y447750D01*
D02*
G37*
G36*
X379929Y446209D02*
X377750D01*
Y444148D01*
X379929D01*
Y446209D01*
D02*
G37*
G36*
X377250D02*
X375071D01*
Y444148D01*
X377250D01*
Y446209D01*
D02*
G37*
G36*
X309929Y445811D02*
X307750D01*
Y443750D01*
X309929D01*
Y445811D01*
D02*
G37*
G36*
X307250D02*
X305071D01*
Y443750D01*
X307250D01*
Y445811D01*
D02*
G37*
G36*
X379929Y443648D02*
X377750D01*
Y441587D01*
X379929D01*
Y443648D01*
D02*
G37*
G36*
X377250D02*
X375071D01*
Y441587D01*
X377250D01*
Y443648D01*
D02*
G37*
G36*
X309929Y443250D02*
X307750D01*
Y441189D01*
X309929D01*
Y443250D01*
D02*
G37*
G36*
X307250D02*
X305071D01*
Y441189D01*
X307250D01*
Y443250D01*
D02*
G37*
G36*
X477352Y423421D02*
X476888D01*
Y418250D01*
X482059D01*
Y418714D01*
X481690Y420092D01*
X480976Y421329D01*
X479966Y422338D01*
X478730Y423052D01*
X477352Y423421D01*
D02*
G37*
G36*
X476388D02*
X475924D01*
X474545Y423052D01*
X473309Y422338D01*
X472300Y421329D01*
X471586Y420092D01*
X471216Y418714D01*
Y418250D01*
X476388D01*
Y423421D01*
D02*
G37*
G36*
X521413Y450429D02*
X516791D01*
Y445571D01*
X517573D01*
Y443236D01*
X504867Y430529D01*
X450808D01*
X450223Y430413D01*
X449727Y430082D01*
X367446Y347801D01*
X319917D01*
Y349478D01*
X318000D01*
X316083D01*
Y347801D01*
X312952D01*
X312929Y348291D01*
X312929Y348301D01*
Y350352D01*
X310750D01*
Y348291D01*
X312292D01*
X312341Y347791D01*
X311804Y347685D01*
X311308Y347353D01*
X310977Y346857D01*
X310968Y346811D01*
X308071D01*
Y344352D01*
X303085Y339366D01*
X302585Y339573D01*
Y349037D01*
X306081Y352534D01*
X306413Y353030D01*
X306529Y353615D01*
Y365500D01*
X306413Y366085D01*
X306081Y366581D01*
X270750Y401913D01*
Y402448D01*
X270408Y403274D01*
X269775Y403907D01*
X268948Y404250D01*
X268052D01*
X267226Y403907D01*
X266593Y403274D01*
X266593Y403274D01*
X244000D01*
X243512Y403177D01*
X243099Y402901D01*
X238920Y398722D01*
X238643Y398309D01*
X238546Y397821D01*
Y396762D01*
X238429Y396311D01*
X236250D01*
Y394000D01*
Y391689D01*
X237454D01*
X237645Y391227D01*
X236627Y390209D01*
X233571D01*
Y387029D01*
X232734Y386192D01*
X223258D01*
X222868Y386114D01*
X222537Y385893D01*
X221222Y384578D01*
X221001Y384248D01*
X220923Y383857D01*
Y383824D01*
X220871Y383814D01*
X220639Y383659D01*
X220361D01*
X220129Y383814D01*
X219855Y383868D01*
X219500D01*
Y380126D01*
Y376384D01*
X219855D01*
X220129Y376438D01*
X220361Y376593D01*
X220639D01*
X220871Y376438D01*
X221145Y376384D01*
X222355D01*
X222629Y376438D01*
X222730Y376506D01*
X223165Y376340D01*
X223230Y376285D01*
Y344672D01*
X201779Y323221D01*
X201558Y322890D01*
X201480Y322500D01*
Y294521D01*
X200206Y293247D01*
X199744Y293439D01*
Y301339D01*
X195244D01*
X195201Y301339D01*
X194744D01*
X194701Y301339D01*
X193492D01*
Y324054D01*
X193414Y324445D01*
X193193Y324775D01*
X182295Y335674D01*
X181964Y335895D01*
X181574Y335972D01*
X172453D01*
X172063Y335895D01*
X171732Y335674D01*
X169613Y333555D01*
X169333Y333717D01*
X168455Y333953D01*
X167545D01*
X166667Y333717D01*
X165880Y333263D01*
X165237Y332620D01*
X164783Y331833D01*
X164547Y330955D01*
Y330045D01*
X164635Y329716D01*
X164187Y329458D01*
X163174Y330471D01*
X162843Y330692D01*
X162453Y330770D01*
X161453D01*
Y330955D01*
X161217Y331833D01*
X160763Y332620D01*
X160120Y333263D01*
X159333Y333717D01*
X158455Y333953D01*
X157545D01*
X156667Y333717D01*
X155880Y333263D01*
X155237Y332620D01*
X154782Y331833D01*
X154547Y330955D01*
Y330045D01*
X154782Y329167D01*
X155237Y328380D01*
X155880Y327737D01*
X156667Y327283D01*
X157545Y327047D01*
X158455D01*
X159333Y327283D01*
X160120Y327737D01*
X160763Y328380D01*
X160965Y328731D01*
X162030D01*
X165529Y325232D01*
X165860Y325011D01*
X166250Y324933D01*
X178422D01*
X179042Y324313D01*
X178784Y323865D01*
X178455Y323953D01*
X177545D01*
X176667Y323717D01*
X175880Y323263D01*
X175237Y322620D01*
X174783Y321833D01*
X174547Y320955D01*
Y320045D01*
X174783Y319167D01*
X175237Y318380D01*
X175880Y317737D01*
X176667Y317283D01*
X177545Y317047D01*
X178455D01*
X179333Y317283D01*
X179613Y317445D01*
X181453Y315605D01*
Y301339D01*
X180244D01*
X180201Y301339D01*
X179744D01*
X179701Y301339D01*
X178492D01*
Y311028D01*
X178414Y311418D01*
X178193Y311749D01*
X171055Y318886D01*
X171218Y319167D01*
X171453Y320045D01*
Y320955D01*
X171218Y321833D01*
X170763Y322620D01*
X170120Y323263D01*
X169333Y323717D01*
X168455Y323953D01*
X167545D01*
X166667Y323717D01*
X165880Y323263D01*
X165237Y322620D01*
X164783Y321833D01*
X164547Y320955D01*
Y320045D01*
X164783Y319167D01*
X165237Y318380D01*
X165880Y317737D01*
X166667Y317283D01*
X167545Y317047D01*
X168455D01*
X169333Y317283D01*
X169613Y317445D01*
X176453Y310605D01*
Y301339D01*
X175244D01*
X175201Y301339D01*
X174744D01*
X174701Y301339D01*
X173492D01*
Y306028D01*
X173414Y306418D01*
X173193Y306749D01*
X161055Y318886D01*
X161217Y319167D01*
X161453Y320045D01*
Y320955D01*
X161217Y321833D01*
X160763Y322620D01*
X160120Y323263D01*
X159333Y323717D01*
X158455Y323953D01*
X157545D01*
X156667Y323717D01*
X155880Y323263D01*
X155237Y322620D01*
X154782Y321833D01*
X154547Y320955D01*
Y320045D01*
X154782Y319167D01*
X155237Y318380D01*
X155880Y317737D01*
X156667Y317283D01*
X157545Y317047D01*
X158455D01*
X159333Y317283D01*
X159613Y317445D01*
X171453Y305605D01*
Y301339D01*
X170244D01*
X170201Y301339D01*
X169744D01*
X169701Y301339D01*
X165244D01*
X165201Y301339D01*
X164744D01*
X164701Y301339D01*
X160244D01*
X160201Y301339D01*
X159744D01*
X159701Y301339D01*
X155244D01*
X155201Y301339D01*
X154744D01*
X154701Y301339D01*
X150244D01*
X150201Y301339D01*
X149744D01*
X149701Y301339D01*
X145244D01*
X145201Y301339D01*
X144744D01*
X144701Y301339D01*
X143520D01*
Y306487D01*
X143774Y306592D01*
X144407Y307225D01*
X144750Y308052D01*
Y308948D01*
X144407Y309774D01*
X143774Y310407D01*
X142948Y310750D01*
X142052D01*
X141226Y310407D01*
X140593Y309774D01*
X140250Y308948D01*
Y308052D01*
X140593Y307225D01*
X141226Y306592D01*
X141480Y306487D01*
Y301339D01*
X140244D01*
X140201Y301339D01*
X139744D01*
X139701Y301339D01*
X138020D01*
Y306487D01*
X138275Y306592D01*
X138908Y307225D01*
X139250Y308052D01*
Y308948D01*
X138908Y309774D01*
X138275Y310407D01*
X137448Y310750D01*
X136552D01*
X135725Y310407D01*
X135092Y309774D01*
X134750Y308948D01*
Y308052D01*
X135092Y307225D01*
X135725Y306592D01*
X135980Y306487D01*
Y301339D01*
X135244D01*
X135201Y301339D01*
X134744D01*
X134701Y301339D01*
X132722D01*
Y296902D01*
Y292465D01*
X134701D01*
X134744Y292465D01*
X135201D01*
X135244Y292465D01*
X139701D01*
X139744Y292465D01*
X140201D01*
X140244Y292465D01*
X144701D01*
X144744Y292465D01*
X145201D01*
X145244Y292465D01*
X146980D01*
Y284013D01*
X146725Y283908D01*
X146092Y283275D01*
X145750Y282448D01*
Y281552D01*
X146092Y280726D01*
X146725Y280093D01*
X147552Y279750D01*
X148448D01*
X149275Y280093D01*
X149908Y280726D01*
X150250Y281552D01*
Y282448D01*
X149908Y283275D01*
X149275Y283908D01*
X149020Y284013D01*
Y292465D01*
X149701D01*
X149744Y292465D01*
X150201D01*
X150244Y292465D01*
X151480D01*
Y289513D01*
X151225Y289407D01*
X150593Y288774D01*
X150250Y287948D01*
Y287052D01*
X150593Y286226D01*
X151225Y285593D01*
X152052Y285250D01*
X152948D01*
X153774Y285593D01*
X154408Y286226D01*
X154750Y287052D01*
Y287948D01*
X154408Y288774D01*
X153774Y289407D01*
X153520Y289513D01*
Y292465D01*
X154701D01*
X154744Y292465D01*
X155201D01*
X155244Y292465D01*
X159701D01*
X159744Y292465D01*
X160201D01*
X160244Y292465D01*
X164701D01*
X164744Y292465D01*
X165201D01*
X165244Y292465D01*
X166453D01*
Y289528D01*
X166530Y289137D01*
X166751Y288807D01*
X168865Y286693D01*
X169196Y286472D01*
X169586Y286395D01*
X170414D01*
X170804Y286472D01*
X170829Y286489D01*
X171226Y286092D01*
X172052Y285750D01*
X172948D01*
X173775Y286092D01*
X174407Y286725D01*
X174750Y287552D01*
Y288448D01*
X174407Y289275D01*
X173775Y289908D01*
X172948Y290250D01*
X172052D01*
X171226Y289908D01*
X170592Y289275D01*
X170376Y288752D01*
X169806Y288636D01*
X168492Y289950D01*
Y292465D01*
X169701D01*
X169744Y292465D01*
X170201D01*
X170244Y292465D01*
X174701D01*
X174744Y292465D01*
X175201D01*
X175244Y292465D01*
X179701D01*
X179744Y292465D01*
X180201D01*
X180244Y292465D01*
X184744D01*
Y292465D01*
X185201D01*
Y292465D01*
X189744D01*
Y292465D01*
X190201D01*
Y292465D01*
X194681D01*
X194744Y292465D01*
X195181Y292313D01*
Y291809D01*
X193251Y289879D01*
X193030Y289549D01*
X193017Y289483D01*
X192593Y289190D01*
X192448Y289250D01*
X191552D01*
X190726Y288908D01*
X190093Y288275D01*
X189750Y287448D01*
Y286552D01*
X190093Y285725D01*
X190726Y285092D01*
X191552Y284750D01*
X192448D01*
X193274Y285092D01*
X193907Y285725D01*
X194250Y286552D01*
Y287448D01*
X194170Y287640D01*
X194515Y287985D01*
X194953Y287804D01*
Y265653D01*
X186529Y257229D01*
X186308Y256899D01*
X186230Y256508D01*
Y234409D01*
X185244D01*
X185201Y234409D01*
X184744D01*
X184701Y234409D01*
X180244D01*
X180201Y234409D01*
X179744D01*
X179701Y234409D01*
X175244D01*
X175201Y234409D01*
X174744D01*
X174701Y234409D01*
X170244D01*
X170201Y234409D01*
X169744D01*
X169701Y234409D01*
X165244D01*
X165201Y234409D01*
X164744D01*
X164701Y234409D01*
X160244D01*
X160201Y234409D01*
X159744D01*
X159701Y234409D01*
X155244D01*
X155201Y234409D01*
X154744D01*
X154701Y234409D01*
X150244D01*
X150201Y234409D01*
X149744D01*
X149701Y234409D01*
X145244D01*
X145201Y234409D01*
X144744D01*
X144701Y234409D01*
X140244D01*
X140201Y234409D01*
X139744D01*
X139701Y234409D01*
X139016D01*
Y238334D01*
X139408Y238725D01*
X139750Y239552D01*
Y240448D01*
X139408Y241274D01*
X138775Y241908D01*
X137948Y242250D01*
X137052D01*
X136225Y241908D01*
X135592Y241274D01*
X135250Y240448D01*
Y239552D01*
X135592Y238725D01*
X135957Y238361D01*
Y234409D01*
X135244D01*
X135201Y234409D01*
X134744D01*
X134701Y234409D01*
X132722D01*
Y229972D01*
Y225535D01*
X134701D01*
X134744Y225535D01*
X135201D01*
X135244Y225535D01*
X136480D01*
Y220417D01*
X134293D01*
Y218500D01*
Y216583D01*
X139260D01*
Y220417D01*
X138520D01*
Y225182D01*
X138873Y225535D01*
X139744Y225535D01*
X140032Y225154D01*
Y213429D01*
X138740D01*
Y208571D01*
X141920D01*
X152744Y197747D01*
Y194032D01*
X159256D01*
Y198969D01*
X154406D01*
X143362Y210013D01*
Y213429D01*
X142071D01*
Y225535D01*
X144701D01*
X144744Y225535D01*
X145201D01*
X145244Y225535D01*
X149701D01*
X149744Y225535D01*
X150201D01*
X150244Y225535D01*
X154701D01*
X154744Y225535D01*
X155201D01*
X155244Y225535D01*
X159701D01*
X159744Y225535D01*
X160201D01*
X160244Y225535D01*
X164701D01*
X164744Y225535D01*
X165201D01*
X165244Y225535D01*
X166453D01*
Y224209D01*
X165726Y223907D01*
X165093Y223274D01*
X164750Y222448D01*
Y221552D01*
X165093Y220725D01*
X165726Y220093D01*
X166552Y219750D01*
X167448D01*
X168274Y220093D01*
X168907Y220725D01*
X169250Y221552D01*
Y222448D01*
X168907Y223274D01*
X168492Y223690D01*
Y225535D01*
X169701D01*
X169744Y225535D01*
X170201D01*
X170244Y225535D01*
X171453D01*
Y219028D01*
X171480Y218889D01*
Y215513D01*
X171226Y215407D01*
X170592Y214774D01*
X170250Y213948D01*
Y213052D01*
X170592Y212226D01*
X171226Y211593D01*
X172052Y211250D01*
X172948D01*
X173775Y211593D01*
X174407Y212226D01*
X174750Y213052D01*
Y213948D01*
X174407Y214774D01*
X173775Y215407D01*
X173520Y215513D01*
Y219000D01*
X173492Y219139D01*
Y225535D01*
X174701D01*
X174744Y225535D01*
X175201D01*
X175244Y225535D01*
X176480D01*
Y212013D01*
X176225Y211908D01*
X175593Y211275D01*
X175250Y210448D01*
Y209552D01*
X175593Y208726D01*
X176225Y208092D01*
X177052Y207750D01*
X177948D01*
X178774Y208092D01*
X179408Y208726D01*
X179750Y209552D01*
Y210448D01*
X179408Y211275D01*
X178774Y211908D01*
X178520Y212013D01*
Y225535D01*
X179701D01*
X179744Y225535D01*
X180201D01*
X180244Y225535D01*
X181480D01*
Y220013D01*
X181226Y219907D01*
X180593Y219274D01*
X180250Y218448D01*
Y217552D01*
X180593Y216725D01*
X181226Y216092D01*
X182052Y215750D01*
X182948D01*
X183774Y216092D01*
X184407Y216725D01*
X184750Y217552D01*
Y218448D01*
X184407Y219274D01*
X183774Y219907D01*
X183520Y220013D01*
Y225535D01*
X184701D01*
X184744Y225535D01*
X185201D01*
X185244Y225535D01*
X189701D01*
X189744Y225535D01*
X190201D01*
X190244Y225535D01*
X192266D01*
X192317Y225279D01*
X192593Y224866D01*
X194075Y223384D01*
X194488Y223108D01*
X194976Y223011D01*
X215785D01*
X216273Y223108D01*
X216687Y223384D01*
X219552Y226250D01*
X219552Y226250D01*
X220448D01*
X221274Y226592D01*
X221907Y227225D01*
X222250Y228052D01*
Y228948D01*
X221907Y229774D01*
X221274Y230408D01*
X220448Y230750D01*
X219552D01*
X218725Y230408D01*
X218092Y229774D01*
X217750Y228948D01*
Y228052D01*
X217750Y228052D01*
X215258Y225560D01*
X199744D01*
Y228698D01*
X210431D01*
X210919Y228795D01*
X211332Y229071D01*
X211670Y229409D01*
X212052Y229250D01*
X212948D01*
X213774Y229592D01*
X214407Y230225D01*
X214750Y231052D01*
Y231948D01*
X214407Y232774D01*
X213774Y233407D01*
X212948Y233750D01*
X212052D01*
X211226Y233407D01*
X210593Y232774D01*
X210250Y231948D01*
Y231594D01*
X209903Y231247D01*
X199744D01*
Y234409D01*
X195201D01*
Y234409D01*
X194744D01*
Y234409D01*
X190244D01*
X190201Y234409D01*
X189744D01*
X189701Y234409D01*
X188270D01*
Y244841D01*
X188770Y245048D01*
X189225Y244592D01*
X190052Y244250D01*
X190948D01*
X191774Y244592D01*
X192126Y244944D01*
X196972D01*
Y243709D01*
X196972Y243665D01*
Y243209D01*
X196972Y243165D01*
Y241187D01*
X201409D01*
X205846D01*
Y243165D01*
X205846Y243209D01*
Y243665D01*
X205846Y243709D01*
Y248209D01*
X205846D01*
Y248665D01*
X205846D01*
Y249662D01*
X209964D01*
X228225Y231401D01*
Y125458D01*
X228323Y124970D01*
X228599Y124557D01*
X240704Y112451D01*
X241118Y112175D01*
X241605Y112078D01*
X260024D01*
X260512Y112175D01*
X260926Y112451D01*
X280899Y132425D01*
X281175Y132838D01*
X281265Y133290D01*
X282381Y134405D01*
X284728D01*
Y141311D01*
X280579D01*
X280398Y141736D01*
Y142886D01*
X276248D01*
Y141736D01*
X276067Y141311D01*
X272898D01*
X272707Y141773D01*
X285557Y154623D01*
X310571D01*
Y153587D01*
X315429D01*
Y158209D01*
X310571D01*
Y157172D01*
X285541D01*
X285203Y157661D01*
Y166717D01*
X285044Y167099D01*
X284661Y167258D01*
X265675D01*
Y174866D01*
X265517Y175249D01*
X265134Y175407D01*
X256866D01*
X256483Y175249D01*
X256325Y174866D01*
Y167258D01*
X250410D01*
X249934Y167602D01*
Y230840D01*
X249837Y231328D01*
X249561Y231742D01*
X208371Y272932D01*
Y273433D01*
X208274Y273921D01*
X207998Y274335D01*
X206973Y275360D01*
X206559Y275636D01*
X206071Y275733D01*
X205846D01*
Y278209D01*
X205846D01*
Y278665D01*
X205846D01*
Y282228D01*
X206308Y282419D01*
X218672Y270055D01*
Y264673D01*
X218769Y264185D01*
X219046Y263772D01*
X232921Y249896D01*
X233335Y249620D01*
X233822Y249523D01*
X252797D01*
X253285Y249620D01*
X253698Y249896D01*
X256115Y252313D01*
X256167Y252283D01*
X257045Y252047D01*
X257955D01*
X258833Y252283D01*
X259620Y252737D01*
X260263Y253380D01*
X260718Y254167D01*
X260953Y255045D01*
Y255955D01*
X260718Y256833D01*
X260263Y257620D01*
X259620Y258263D01*
X258833Y258717D01*
X257955Y258953D01*
X257045D01*
X256167Y258717D01*
X255380Y258263D01*
X254737Y257620D01*
X254282Y256833D01*
X254047Y255955D01*
Y255045D01*
X254282Y254167D01*
X254313Y254115D01*
X252269Y252072D01*
X249468D01*
X249334Y252572D01*
X249620Y252737D01*
X250263Y253380D01*
X250717Y254167D01*
X250953Y255045D01*
Y255955D01*
X250717Y256833D01*
X250263Y257620D01*
X249620Y258263D01*
X248833Y258717D01*
X247955Y258953D01*
X247045D01*
X246167Y258717D01*
X245380Y258263D01*
X244737Y257620D01*
X244283Y256833D01*
X244047Y255955D01*
Y255045D01*
X244283Y254167D01*
X244737Y253380D01*
X245380Y252737D01*
X245666Y252572D01*
X245532Y252072D01*
X240953D01*
Y258953D01*
X235489D01*
X228020Y266422D01*
Y297487D01*
X228274Y297592D01*
X228907Y298225D01*
X229250Y299052D01*
Y299948D01*
X228907Y300775D01*
X228452Y301230D01*
X228659Y301730D01*
X256591D01*
X256592Y301726D01*
X257225Y301093D01*
X258052Y300750D01*
X258948D01*
X259774Y301093D01*
X260407Y301726D01*
X260750Y302552D01*
Y303448D01*
X260407Y304275D01*
X259774Y304907D01*
X258948Y305250D01*
X258052D01*
X257225Y304907D01*
X256592Y304275D01*
X256383Y303770D01*
X212409D01*
X212407Y303774D01*
X211774Y304408D01*
X210948Y304750D01*
X210052D01*
X209226Y304408D01*
X208593Y303774D01*
X208250Y302948D01*
Y302052D01*
X208593Y301225D01*
X209226Y300592D01*
X210052Y300250D01*
X210948D01*
X211774Y300592D01*
X212407Y301225D01*
X212617Y301730D01*
X225341D01*
X225548Y301230D01*
X225093Y300775D01*
X224750Y299948D01*
Y299052D01*
X225093Y298225D01*
X225726Y297592D01*
X225980Y297487D01*
Y266000D01*
X226058Y265610D01*
X226279Y265279D01*
X234047Y257511D01*
Y253028D01*
X233585Y252837D01*
X221221Y265201D01*
Y270583D01*
X221124Y271071D01*
X220848Y271484D01*
X206516Y285817D01*
X206102Y286093D01*
X205846Y286144D01*
Y288209D01*
X197946D01*
X197755Y288671D01*
X199209Y290125D01*
X199545D01*
X199935Y290202D01*
X200266Y290423D01*
X203221Y293378D01*
X203442Y293709D01*
X203520Y294099D01*
Y322078D01*
X224971Y343529D01*
X225192Y343860D01*
X225270Y344250D01*
Y376285D01*
X225336Y376340D01*
X225770Y376506D01*
X225871Y376438D01*
X226145Y376384D01*
X226500D01*
Y380126D01*
X227000D01*
Y376384D01*
X227355D01*
X227629Y376438D01*
X227861Y376593D01*
X228139D01*
X228371Y376438D01*
X228645Y376384D01*
X229855D01*
X230129Y376438D01*
X230361Y376593D01*
X230516Y376826D01*
X230571Y377099D01*
Y378980D01*
X231377D01*
X231419Y378919D01*
X231915Y378587D01*
X232500Y378471D01*
X235484D01*
X236070Y378587D01*
X236566Y378919D01*
X243234Y385587D01*
X243766D01*
X263971Y365382D01*
Y351260D01*
X263583D01*
Y347740D01*
Y346293D01*
X265500D01*
X267417D01*
Y349097D01*
X267893Y349573D01*
X270571D01*
Y348791D01*
X275429D01*
Y351251D01*
X282051Y357872D01*
X284020D01*
Y354965D01*
X290471D01*
Y339035D01*
X288547D01*
Y332324D01*
X286859Y330637D01*
X286398Y330828D01*
Y334348D01*
X283195D01*
Y330161D01*
X285731D01*
X285922Y329699D01*
X278252Y322029D01*
X214009D01*
X213908Y322274D01*
X213275Y322907D01*
X212448Y323250D01*
X211552D01*
X210725Y322907D01*
X210092Y322274D01*
X209750Y321448D01*
Y320552D01*
X210092Y319725D01*
X210725Y319092D01*
X211552Y318750D01*
X212448D01*
X212980Y318971D01*
X278886D01*
X279471Y319087D01*
X279967Y319419D01*
X290710Y330161D01*
X295093D01*
X295300Y329661D01*
X237243Y271604D01*
X236966Y271191D01*
X236869Y270703D01*
Y268906D01*
X236167Y268718D01*
X235380Y268263D01*
X234737Y267620D01*
X234282Y266833D01*
X234047Y265955D01*
Y265045D01*
X234282Y264167D01*
X234737Y263380D01*
X235380Y262737D01*
X236167Y262282D01*
X237045Y262047D01*
X237955D01*
X238833Y262282D01*
X239620Y262737D01*
X240263Y263380D01*
X240718Y264167D01*
X240953Y265045D01*
Y265955D01*
X240718Y266833D01*
X240263Y267620D01*
X239620Y268263D01*
X239418Y268379D01*
Y270175D01*
X299405Y330161D01*
X304508D01*
Y336543D01*
X304749Y336704D01*
X310234Y342189D01*
X312929D01*
Y344742D01*
X316083D01*
Y344512D01*
X319917D01*
Y344742D01*
X368080D01*
X368665Y344859D01*
X369161Y345190D01*
X451442Y427471D01*
X505500D01*
X506085Y427587D01*
X506581Y427919D01*
X520184Y441521D01*
X520515Y442017D01*
X520632Y442602D01*
Y445571D01*
X521413D01*
Y446471D01*
X536555D01*
X562429Y420597D01*
X562137Y420092D01*
X561768Y418714D01*
Y417286D01*
X562137Y415907D01*
X562851Y414671D01*
X563860Y413662D01*
X565097Y412948D01*
X566475Y412579D01*
X567903D01*
X569281Y412948D01*
X570518Y413662D01*
X571527Y414671D01*
X572241Y415907D01*
X572610Y417286D01*
Y418714D01*
X572241Y420092D01*
X571527Y421329D01*
X570518Y422338D01*
X569281Y423052D01*
X567903Y423421D01*
X566475D01*
X565097Y423052D01*
X564592Y422760D01*
X538270Y449081D01*
X537774Y449413D01*
X537189Y449529D01*
X521413D01*
Y450429D01*
D02*
G37*
G36*
X545265Y423421D02*
X543837D01*
X542459Y423052D01*
X541222Y422338D01*
X540213Y421329D01*
X539499Y420092D01*
X539130Y418714D01*
Y417286D01*
X539499Y415907D01*
X540213Y414671D01*
X541222Y413662D01*
X542459Y412948D01*
X543837Y412579D01*
X545265D01*
X546644Y412948D01*
X547880Y413662D01*
X548889Y414671D01*
X549603Y415907D01*
X549972Y417286D01*
Y418714D01*
X549603Y420092D01*
X548889Y421329D01*
X547880Y422338D01*
X546644Y423052D01*
X545265Y423421D01*
D02*
G37*
G36*
X522627D02*
X521200D01*
X519821Y423052D01*
X518585Y422338D01*
X517575Y421329D01*
X516862Y420092D01*
X516492Y418714D01*
Y417286D01*
X516862Y415907D01*
X517575Y414671D01*
X518585Y413662D01*
X519821Y412948D01*
X521200Y412579D01*
X522627D01*
X524006Y412948D01*
X525242Y413662D01*
X526252Y414671D01*
X526965Y415907D01*
X527335Y417286D01*
Y418714D01*
X526965Y420092D01*
X526252Y421329D01*
X525242Y422338D01*
X524006Y423052D01*
X522627Y423421D01*
D02*
G37*
G36*
X499989D02*
X498562D01*
X497183Y423052D01*
X495947Y422338D01*
X494938Y421329D01*
X494224Y420092D01*
X493854Y418714D01*
Y417286D01*
X494224Y415907D01*
X494938Y414671D01*
X495947Y413662D01*
X497183Y412948D01*
X498562Y412579D01*
X499989D01*
X501368Y412948D01*
X502604Y413662D01*
X503614Y414671D01*
X504327Y415907D01*
X504697Y417286D01*
Y418714D01*
X504327Y420092D01*
X503614Y421329D01*
X502604Y422338D01*
X501368Y423052D01*
X499989Y423421D01*
D02*
G37*
G36*
X482059Y417750D02*
X476888D01*
Y412579D01*
X477352D01*
X478730Y412948D01*
X479966Y413662D01*
X480976Y414671D01*
X481690Y415907D01*
X482059Y417286D01*
Y417750D01*
D02*
G37*
G36*
X476388D02*
X471216D01*
Y417286D01*
X471586Y415907D01*
X472300Y414671D01*
X473309Y413662D01*
X474545Y412948D01*
X475924Y412579D01*
X476388D01*
Y417750D01*
D02*
G37*
G36*
X454714Y423421D02*
X453286D01*
X451907Y423052D01*
X450671Y422338D01*
X449662Y421329D01*
X448948Y420092D01*
X448579Y418714D01*
Y417286D01*
X448948Y415907D01*
X449662Y414671D01*
X450671Y413662D01*
X451907Y412948D01*
X453286Y412579D01*
X454714D01*
X456093Y412948D01*
X457329Y413662D01*
X458338Y414671D01*
X459052Y415907D01*
X459421Y417286D01*
Y418714D01*
X459052Y420092D01*
X458338Y421329D01*
X457329Y422338D01*
X456093Y423052D01*
X454714Y423421D01*
D02*
G37*
G36*
X175209Y414429D02*
X173148D01*
Y412250D01*
X175209D01*
Y414429D01*
D02*
G37*
G36*
X172648D02*
X170587D01*
Y412250D01*
X172648D01*
Y414429D01*
D02*
G37*
G36*
X175209Y411750D02*
X173148D01*
Y409571D01*
X175209D01*
Y411750D01*
D02*
G37*
G36*
X172648D02*
X170587D01*
Y409571D01*
X172648D01*
Y411750D01*
D02*
G37*
G36*
X170200Y404050D02*
X161400D01*
Y400950D01*
X170200D01*
Y404050D01*
D02*
G37*
G36*
X235750Y396311D02*
X233571D01*
Y394250D01*
X235750D01*
Y396311D01*
D02*
G37*
G36*
X199929Y395913D02*
X197750D01*
Y393852D01*
X199929D01*
Y395913D01*
D02*
G37*
G36*
X207429Y395811D02*
X205250D01*
Y393750D01*
X207429D01*
Y395811D01*
D02*
G37*
G36*
X204750D02*
X202571D01*
Y393750D01*
X204750D01*
Y395811D01*
D02*
G37*
G36*
X235750Y393750D02*
X233571D01*
Y391689D01*
X235750D01*
Y393750D01*
D02*
G37*
G36*
X199929Y393352D02*
X197750D01*
Y391291D01*
X199929D01*
Y393352D01*
D02*
G37*
G36*
X197250D02*
X195071D01*
Y391291D01*
X197250D01*
Y393352D01*
D02*
G37*
G36*
X207429Y393250D02*
X205250D01*
Y391189D01*
X207429D01*
Y393250D01*
D02*
G37*
G36*
X204750D02*
X202571D01*
Y391189D01*
X204750D01*
Y393250D01*
D02*
G37*
G36*
X170200Y389050D02*
X166050D01*
Y387750D01*
X170200D01*
Y389050D01*
D02*
G37*
G36*
X157831Y400713D02*
X153169D01*
Y396287D01*
X153971D01*
Y392854D01*
X153169D01*
Y388429D01*
X157831D01*
Y389112D01*
X160926D01*
X161108Y389088D01*
X161400Y388664D01*
Y387750D01*
X165550D01*
Y389050D01*
X162309D01*
X162158Y389550D01*
X162173Y389560D01*
X163563Y390950D01*
X170200D01*
Y394050D01*
X161400D01*
Y393113D01*
X160458Y392171D01*
X157831D01*
Y392854D01*
X157029D01*
Y396287D01*
X157831D01*
Y400713D01*
D02*
G37*
G36*
X189600Y389050D02*
X180800D01*
Y385950D01*
X189600D01*
Y389050D01*
D02*
G37*
G36*
X170200Y387250D02*
X166050D01*
Y385950D01*
X170200D01*
Y387250D01*
D02*
G37*
G36*
X165550D02*
X161400D01*
Y385950D01*
X165550D01*
Y387250D01*
D02*
G37*
G36*
X157831Y386713D02*
X155750D01*
Y384750D01*
X157831D01*
Y386713D01*
D02*
G37*
G36*
X155250D02*
X153169D01*
Y384750D01*
X155250D01*
Y386713D01*
D02*
G37*
G36*
X219000Y383868D02*
X218645D01*
X218371Y383814D01*
X218139Y383659D01*
X217861D01*
X217629Y383814D01*
X217355Y383868D01*
X217000D01*
Y380126D01*
Y376384D01*
X217355D01*
X217629Y376438D01*
X217861Y376593D01*
X218139D01*
X218371Y376438D01*
X218645Y376384D01*
X219000D01*
Y380126D01*
Y383868D01*
D02*
G37*
G36*
X130898Y387035D02*
X127695D01*
Y382848D01*
X130898D01*
Y387035D01*
D02*
G37*
G36*
X127195D02*
X123992D01*
Y382848D01*
X127195D01*
Y387035D01*
D02*
G37*
G36*
X157831Y384250D02*
X155750D01*
Y382287D01*
X157831D01*
Y384250D01*
D02*
G37*
G36*
X155250D02*
X153169D01*
Y382287D01*
X155250D01*
Y384250D01*
D02*
G37*
G36*
X130898Y382348D02*
X127695D01*
Y378161D01*
X130898D01*
Y382348D01*
D02*
G37*
G36*
X127195D02*
X123992D01*
Y378161D01*
X127195D01*
Y382348D01*
D02*
G37*
G36*
X199929Y389811D02*
X195071D01*
Y385189D01*
X198487D01*
X208999Y374677D01*
X209330Y374456D01*
X209720Y374378D01*
X213060D01*
X213450Y374456D01*
X213781Y374677D01*
X214778Y375674D01*
X214999Y376004D01*
X215077Y376395D01*
Y376428D01*
X215129Y376438D01*
X215361Y376593D01*
X215639D01*
X215871Y376438D01*
X216145Y376384D01*
X216500D01*
Y380126D01*
Y383868D01*
X216145D01*
X215871Y383814D01*
X215639Y383659D01*
X215361D01*
X215129Y383814D01*
X214855Y383868D01*
X213645D01*
X213371Y383814D01*
X213139Y383659D01*
X212861D01*
X212629Y383814D01*
X212355Y383868D01*
X211472D01*
X211443Y383874D01*
X210084D01*
X207429Y386528D01*
Y389709D01*
X202571D01*
Y385087D01*
X205987D01*
X208940Y382133D01*
X209271Y381912D01*
X209661Y381835D01*
X210429D01*
Y377099D01*
X210465Y376917D01*
X210425Y376842D01*
X209886Y376732D01*
X209794Y376766D01*
X199929Y386631D01*
Y389811D01*
D02*
G37*
G36*
X312929Y352913D02*
X310750D01*
Y350852D01*
X312929D01*
Y352913D01*
D02*
G37*
G36*
X310250D02*
X308071D01*
Y350852D01*
X310250D01*
Y352913D01*
D02*
G37*
G36*
X319917Y351488D02*
X318250D01*
Y349978D01*
X319917D01*
Y351488D01*
D02*
G37*
G36*
X317750D02*
X316083D01*
Y349978D01*
X317750D01*
Y351488D01*
D02*
G37*
G36*
X310250Y350352D02*
X308071D01*
Y348291D01*
X310250D01*
Y350352D01*
D02*
G37*
G36*
X275429Y347311D02*
X273250D01*
Y345250D01*
X275429D01*
Y347311D01*
D02*
G37*
G36*
X272750D02*
X270571D01*
Y345250D01*
X272750D01*
Y347311D01*
D02*
G37*
G36*
X267417Y345793D02*
X265750D01*
Y344284D01*
X267417D01*
Y345793D01*
D02*
G37*
G36*
X265250D02*
X263583D01*
Y344284D01*
X265250D01*
Y345793D01*
D02*
G37*
G36*
X275429Y344750D02*
X273250D01*
Y342689D01*
X275429D01*
Y344750D01*
D02*
G37*
G36*
X272750D02*
X270571D01*
Y342689D01*
X272750D01*
Y344750D01*
D02*
G37*
G36*
X286398Y339035D02*
X283195D01*
Y334848D01*
X286398D01*
Y339035D01*
D02*
G37*
G36*
X282695D02*
X279492D01*
Y334848D01*
X282695D01*
Y339035D01*
D02*
G37*
G36*
X148455Y333953D02*
X148250D01*
Y330750D01*
X151453D01*
Y330955D01*
X151217Y331833D01*
X150763Y332620D01*
X150120Y333263D01*
X149333Y333717D01*
X148455Y333953D01*
D02*
G37*
G36*
X147750D02*
X147545D01*
X146667Y333717D01*
X145880Y333263D01*
X145237Y332620D01*
X144782Y331833D01*
X144547Y330955D01*
Y330750D01*
X147750D01*
Y333953D01*
D02*
G37*
G36*
X282695Y334348D02*
X279492D01*
Y330161D01*
X282695D01*
Y334348D01*
D02*
G37*
G36*
X151453Y330250D02*
X148250D01*
Y327047D01*
X148455D01*
X149333Y327283D01*
X150120Y327737D01*
X150763Y328380D01*
X151217Y329167D01*
X151453Y330045D01*
Y330250D01*
D02*
G37*
G36*
X147750D02*
X144547D01*
Y330045D01*
X144782Y329167D01*
X145237Y328380D01*
X145880Y327737D01*
X146667Y327283D01*
X147545Y327047D01*
X147750D01*
Y330250D01*
D02*
G37*
G36*
X148455Y323953D02*
X147545D01*
X146667Y323717D01*
X145880Y323263D01*
X145237Y322620D01*
X144782Y321833D01*
X144547Y320955D01*
Y320045D01*
X144782Y319167D01*
X145237Y318380D01*
X145880Y317737D01*
X146667Y317283D01*
X147545Y317047D01*
X148455D01*
X149333Y317283D01*
X150120Y317737D01*
X150763Y318380D01*
X151217Y319167D01*
X151453Y320045D01*
Y320955D01*
X151217Y321833D01*
X150763Y322620D01*
X150120Y323263D01*
X149333Y323717D01*
X148455Y323953D01*
D02*
G37*
G36*
X280948Y305250D02*
X280052D01*
X279225Y304907D01*
X278592Y304275D01*
X278250Y303448D01*
Y302552D01*
X278592Y301726D01*
X279225Y301093D01*
X280052Y300750D01*
X280948D01*
X281774Y301093D01*
X282407Y301726D01*
X282410Y301730D01*
X346883D01*
X347093Y301225D01*
X347726Y300592D01*
X348552Y300250D01*
X349448D01*
X350274Y300592D01*
X350907Y301225D01*
X351250Y302052D01*
Y302948D01*
X350907Y303774D01*
X350274Y304408D01*
X349448Y304750D01*
X348552D01*
X347726Y304408D01*
X347093Y303774D01*
X347091Y303770D01*
X282617D01*
X282407Y304275D01*
X281774Y304907D01*
X280948Y305250D01*
D02*
G37*
G36*
X132222Y301339D02*
X130201D01*
Y297152D01*
X132222D01*
Y301339D01*
D02*
G37*
G36*
Y296652D02*
X130201D01*
Y292465D01*
X132222D01*
Y296652D01*
D02*
G37*
G36*
X172343Y269843D02*
X169474D01*
Y266974D01*
X172343D01*
Y269843D01*
D02*
G37*
G36*
X154526D02*
X151657D01*
Y266974D01*
X154526D01*
Y269843D01*
D02*
G37*
G36*
X168974D02*
X166106D01*
Y268789D01*
X166010Y268724D01*
X165862D01*
Y266724D01*
X165362D01*
Y268724D01*
X165214D01*
X165118Y268789D01*
Y269843D01*
X162250D01*
Y266724D01*
X161750D01*
Y269843D01*
X158882D01*
Y268789D01*
X158786Y268724D01*
X158638D01*
Y266724D01*
X158138D01*
Y268724D01*
X157990D01*
X157894Y268789D01*
Y269843D01*
X155026D01*
Y266724D01*
X154776D01*
Y266474D01*
X151657D01*
Y263606D01*
X152711D01*
X152776Y263510D01*
Y263362D01*
X154776D01*
Y262862D01*
X152776D01*
Y262714D01*
X152711Y262618D01*
X151657D01*
Y259750D01*
X154776D01*
Y259250D01*
X151657D01*
Y256382D01*
X152711D01*
X152776Y256286D01*
Y256138D01*
X154776D01*
Y255638D01*
X152776D01*
Y255490D01*
X152711Y255394D01*
X151657D01*
Y252526D01*
X154776D01*
Y252276D01*
X155026D01*
Y249158D01*
X157894D01*
Y250211D01*
X157990Y250276D01*
X158138D01*
Y252276D01*
X158638D01*
Y250276D01*
X158786D01*
X158882Y250211D01*
Y249158D01*
X161750D01*
Y252276D01*
X162250D01*
Y249158D01*
X165118D01*
Y250211D01*
X165214Y250276D01*
X165362D01*
Y252276D01*
X165862D01*
Y250276D01*
X166010D01*
X166106Y250211D01*
Y249158D01*
X168974D01*
Y252276D01*
X169224D01*
Y252526D01*
X172343D01*
Y255394D01*
X171289D01*
X171224Y255490D01*
Y255638D01*
X169224D01*
Y256138D01*
X171224D01*
Y256286D01*
X171289Y256382D01*
X172343D01*
Y259250D01*
X169224D01*
Y259750D01*
X172343D01*
Y262618D01*
X171289D01*
X171224Y262714D01*
Y262862D01*
X169224D01*
Y263362D01*
X171224D01*
Y263510D01*
X171289Y263606D01*
X172343D01*
Y266474D01*
X169224D01*
Y266724D01*
X168974D01*
Y269843D01*
D02*
G37*
G36*
X257955Y268953D02*
X257750D01*
Y265750D01*
X260953D01*
Y265955D01*
X260718Y266833D01*
X260263Y267620D01*
X259620Y268263D01*
X258833Y268718D01*
X257955Y268953D01*
D02*
G37*
G36*
X257250D02*
X257045D01*
X256167Y268718D01*
X255380Y268263D01*
X254737Y267620D01*
X254282Y266833D01*
X254047Y265955D01*
Y265750D01*
X257250D01*
Y268953D01*
D02*
G37*
G36*
X260953Y265250D02*
X257750D01*
Y262047D01*
X257955D01*
X258833Y262282D01*
X259620Y262737D01*
X260263Y263380D01*
X260718Y264167D01*
X260953Y265045D01*
Y265250D01*
D02*
G37*
G36*
X257250D02*
X254047D01*
Y265045D01*
X254282Y264167D01*
X254737Y263380D01*
X255380Y262737D01*
X256167Y262282D01*
X257045Y262047D01*
X257250D01*
Y265250D01*
D02*
G37*
G36*
X247955Y268953D02*
X247045D01*
X246167Y268718D01*
X245380Y268263D01*
X244737Y267620D01*
X244283Y266833D01*
X244047Y265955D01*
Y265045D01*
X244283Y264167D01*
X244737Y263380D01*
X245380Y262737D01*
X246167Y262282D01*
X247045Y262047D01*
X247955D01*
X248833Y262282D01*
X249620Y262737D01*
X250263Y263380D01*
X250717Y264167D01*
X250953Y265045D01*
Y265955D01*
X250717Y266833D01*
X250263Y267620D01*
X249620Y268263D01*
X248833Y268718D01*
X247955Y268953D01*
D02*
G37*
G36*
X172343Y252026D02*
X169474D01*
Y249158D01*
X172343D01*
Y252026D01*
D02*
G37*
G36*
X154526D02*
X151657D01*
Y249158D01*
X154526D01*
Y252026D01*
D02*
G37*
G36*
X205846Y240687D02*
X201659D01*
Y238665D01*
X205846D01*
Y240687D01*
D02*
G37*
G36*
X201159D02*
X196972D01*
Y238665D01*
X201159D01*
Y240687D01*
D02*
G37*
G36*
X132222Y234409D02*
X130201D01*
Y230222D01*
X132222D01*
Y234409D01*
D02*
G37*
G36*
Y229722D02*
X130201D01*
Y225535D01*
X132222D01*
Y229722D01*
D02*
G37*
G36*
X133793Y220417D02*
X132284D01*
Y218750D01*
X133793D01*
Y220417D01*
D02*
G37*
G36*
Y218250D02*
X132284D01*
Y216583D01*
X133793D01*
Y218250D01*
D02*
G37*
G36*
X137260Y213429D02*
X135199D01*
Y211250D01*
X137260D01*
Y213429D01*
D02*
G37*
G36*
X134699D02*
X132638D01*
Y211250D01*
X134699D01*
Y213429D01*
D02*
G37*
G36*
X137260Y210750D02*
X135199D01*
Y208571D01*
X137260D01*
Y210750D01*
D02*
G37*
G36*
X134699D02*
X132638D01*
Y208571D01*
X134699D01*
Y210750D01*
D02*
G37*
G36*
X186500Y206020D02*
X169421D01*
X169031Y205942D01*
X168700Y205721D01*
X165688Y202709D01*
X161406D01*
Y197772D01*
X167917D01*
Y202054D01*
X169843Y203980D01*
X186078D01*
X187480Y202578D01*
Y185781D01*
X186331Y184631D01*
X185831Y184838D01*
Y188713D01*
X184520D01*
Y190291D01*
X185917D01*
Y195228D01*
X179405Y195228D01*
X179276Y195675D01*
Y196200D01*
X180847Y197772D01*
X185917D01*
Y202709D01*
X179405D01*
Y199214D01*
X177756Y197564D01*
X177256Y197771D01*
Y198969D01*
X176304D01*
X176008Y199469D01*
X176250Y200052D01*
Y200948D01*
X175908Y201775D01*
X175275Y202408D01*
X174448Y202750D01*
X173552D01*
X172725Y202408D01*
X172092Y201775D01*
X171750Y200948D01*
Y200052D01*
X171992Y199469D01*
X171696Y198969D01*
X170744D01*
Y194032D01*
X176436D01*
X176628Y193570D01*
X169779Y186721D01*
X169558Y186390D01*
X169480Y186000D01*
Y178591D01*
X169018Y178400D01*
X167831Y179587D01*
Y182571D01*
X163169D01*
Y178146D01*
X166389D01*
X168654Y175880D01*
X163573Y170799D01*
X163396Y170535D01*
X163334Y170222D01*
X163334Y170222D01*
Y159087D01*
X163334Y159087D01*
X163396Y158775D01*
X163573Y158510D01*
X167534Y154549D01*
X167799Y154372D01*
X168111Y154310D01*
X168150Y153831D01*
Y151988D01*
X171988D01*
Y148150D01*
X174797D01*
Y150323D01*
X175297D01*
Y148150D01*
X175510D01*
X175718Y147650D01*
X168891Y140823D01*
X168714Y140558D01*
X168652Y140246D01*
X168652Y140246D01*
Y134780D01*
X168652Y134780D01*
X168714Y134468D01*
X168891Y134204D01*
X170733Y132362D01*
X170493Y131947D01*
X170268Y131105D01*
Y130233D01*
X170493Y129391D01*
X170929Y128636D01*
X171546Y128020D01*
X172301Y127584D01*
X173143Y127358D01*
X174015D01*
X174857Y127584D01*
X175612Y128020D01*
X176228Y128636D01*
X176664Y129391D01*
X176890Y130233D01*
Y131105D01*
X176664Y131947D01*
X176228Y132702D01*
X175612Y133319D01*
X174857Y133755D01*
X174015Y133980D01*
X173143D01*
X172301Y133755D01*
X171886Y133515D01*
X170283Y135118D01*
Y136629D01*
X170783Y136763D01*
X170929Y136510D01*
X171546Y135894D01*
X172301Y135458D01*
X173143Y135232D01*
X174015D01*
X174857Y135458D01*
X175612Y135894D01*
X176228Y136510D01*
X176664Y137265D01*
X176890Y138108D01*
Y138979D01*
X176664Y139821D01*
X176228Y140576D01*
X175612Y141193D01*
X175083Y141498D01*
X175029Y142059D01*
X179561Y146591D01*
X179561Y146591D01*
X179738Y146855D01*
X179800Y147168D01*
X179800Y147168D01*
Y148150D01*
X184012D01*
Y150865D01*
X185680D01*
X185680Y150865D01*
X185691Y150867D01*
X187558Y149000D01*
X186707Y148149D01*
X186452Y148255D01*
X185557D01*
X184730Y147912D01*
X184098Y147279D01*
X183755Y146452D01*
Y145557D01*
X184034Y144884D01*
X183791Y144384D01*
X181107D01*
X180522Y144267D01*
X180026Y143936D01*
X177919Y141828D01*
X177587Y141332D01*
X177471Y140747D01*
Y135090D01*
X177587Y134505D01*
X177919Y134009D01*
X180261Y131667D01*
X180110Y131105D01*
Y130919D01*
X183171D01*
Y133980D01*
X182985D01*
X182424Y133830D01*
X180670Y135584D01*
X180708Y135867D01*
X181237Y136045D01*
X181388Y135894D01*
X182143Y135458D01*
X182985Y135232D01*
X183857D01*
X184699Y135458D01*
X185454Y135894D01*
X186071Y136510D01*
X186507Y137265D01*
X186630Y137728D01*
X188016D01*
X188016Y137728D01*
X188328Y137790D01*
X188592Y137967D01*
X194294Y143668D01*
X194294Y143668D01*
X194471Y143933D01*
X194533Y144245D01*
Y151298D01*
X194533Y151298D01*
X194471Y151611D01*
X194294Y151875D01*
X194294Y151875D01*
X190545Y155624D01*
X190281Y155801D01*
X189969Y155863D01*
X189968Y155863D01*
X187850D01*
Y159862D01*
Y164012D01*
X184012D01*
Y166697D01*
X186999Y169684D01*
X189902D01*
X190093Y169226D01*
X190726Y168593D01*
X191552Y168250D01*
X192448D01*
X193274Y168593D01*
X193907Y169226D01*
X194250Y170052D01*
Y170948D01*
X193907Y171774D01*
X193274Y172407D01*
X192448Y172750D01*
X191552D01*
X190726Y172407D01*
X190093Y171774D01*
X189902Y171316D01*
X186661D01*
X186661Y171316D01*
X186349Y171254D01*
X186084Y171077D01*
X186084Y171077D01*
X183199Y168191D01*
X183195Y168192D01*
X183030Y168735D01*
X188980Y174684D01*
X190134D01*
X190726Y174092D01*
X191552Y173750D01*
X192448D01*
X193274Y174092D01*
X193907Y174725D01*
X194250Y175552D01*
Y176448D01*
X193907Y177275D01*
X193274Y177908D01*
X192448Y178250D01*
X191552D01*
X190726Y177908D01*
X190093Y177275D01*
X189750Y176448D01*
Y176316D01*
X188642D01*
X188642Y176316D01*
X188330Y176254D01*
X188065Y176077D01*
X180454Y168466D01*
X180277Y168201D01*
X180215Y167889D01*
X179736Y167850D01*
X172681D01*
X172490Y168312D01*
X182323Y178146D01*
X185831D01*
Y181247D01*
X189221Y184637D01*
X189442Y184968D01*
X189520Y185358D01*
Y203000D01*
X189442Y203390D01*
X189221Y203721D01*
X187221Y205721D01*
X186890Y205942D01*
X186500Y206020D01*
D02*
G37*
G36*
X167917Y195228D02*
X161406D01*
Y190291D01*
X164480D01*
Y188713D01*
X163169D01*
Y184287D01*
X167831D01*
Y188713D01*
X166520D01*
Y190291D01*
X167917D01*
Y195228D01*
D02*
G37*
G36*
X281028Y183870D02*
X278219D01*
Y180864D01*
X281028D01*
Y183870D01*
D02*
G37*
G36*
X277719D02*
X274909D01*
Y180864D01*
X277719D01*
Y183870D01*
D02*
G37*
G36*
X255278D02*
X252469D01*
Y180864D01*
X255278D01*
Y183870D01*
D02*
G37*
G36*
X281028Y180364D02*
X278219D01*
Y177358D01*
X281028D01*
Y180364D01*
D02*
G37*
G36*
X277719D02*
X274909D01*
Y177358D01*
X277719D01*
Y180364D01*
D02*
G37*
G36*
X258587Y183870D02*
X255778D01*
Y180614D01*
Y177358D01*
X258587D01*
Y179130D01*
X263469D01*
Y183870D01*
X258587D01*
Y183870D01*
D02*
G37*
G36*
X255278Y180364D02*
X252469D01*
Y177358D01*
X255278D01*
Y180364D01*
D02*
G37*
G36*
X315429Y164311D02*
X313250D01*
Y162250D01*
X315429D01*
Y164311D01*
D02*
G37*
G36*
X312750D02*
X310571D01*
Y162250D01*
X312750D01*
Y164311D01*
D02*
G37*
G36*
X315429Y161750D02*
X313250D01*
Y159689D01*
X315429D01*
Y161750D01*
D02*
G37*
G36*
X312750D02*
X310571D01*
Y159689D01*
X312750D01*
Y161750D01*
D02*
G37*
G36*
X183857Y133980D02*
X183671D01*
Y130919D01*
X186732D01*
Y131105D01*
X186507Y131947D01*
X186071Y132702D01*
X185454Y133319D01*
X184699Y133755D01*
X183857Y133980D01*
D02*
G37*
G36*
X186732Y130419D02*
X183671D01*
Y127358D01*
X183857D01*
X184699Y127584D01*
X185454Y128020D01*
X186071Y128636D01*
X186507Y129391D01*
X186732Y130233D01*
Y130419D01*
D02*
G37*
G36*
X183171D02*
X180110D01*
Y130233D01*
X180336Y129391D01*
X180772Y128636D01*
X181388Y128020D01*
X182143Y127584D01*
X182985Y127358D01*
X183171D01*
Y130419D01*
D02*
G37*
G36*
X304256Y129146D02*
X301250D01*
Y125156D01*
X304256D01*
Y129146D01*
D02*
G37*
G36*
X300750D02*
X297744D01*
Y125156D01*
X300750D01*
Y129146D01*
D02*
G37*
G36*
X304256Y124656D02*
X301250D01*
Y120666D01*
X304256D01*
Y124656D01*
D02*
G37*
G36*
X300750D02*
X297744D01*
Y120666D01*
X300750D01*
Y124656D01*
D02*
G37*
G36*
X202926Y125512D02*
X201475D01*
X200073Y125136D01*
X198817Y124410D01*
X197790Y123384D01*
X197065Y122127D01*
X196689Y120726D01*
Y119274D01*
X197065Y117873D01*
X197790Y116616D01*
X198817Y115589D01*
X200073Y114864D01*
X201475Y114488D01*
X202926D01*
X204328Y114864D01*
X205585Y115589D01*
X206611Y116616D01*
X207337Y117873D01*
X207713Y119274D01*
Y120726D01*
X207337Y122127D01*
X206611Y123384D01*
X205585Y124410D01*
X204328Y125136D01*
X202926Y125512D01*
D02*
G37*
G36*
X155525D02*
X154074D01*
X152672Y125136D01*
X151415Y124410D01*
X150389Y123384D01*
X149663Y122127D01*
X149287Y120726D01*
Y119274D01*
X149663Y117873D01*
X150389Y116616D01*
X151415Y115589D01*
X152672Y114864D01*
X154074Y114488D01*
X155525D01*
X156927Y114864D01*
X158184Y115589D01*
X159210Y116616D01*
X159935Y117873D01*
X160311Y119274D01*
Y120726D01*
X159935Y122127D01*
X159210Y123384D01*
X158184Y124410D01*
X156927Y125136D01*
X155525Y125512D01*
D02*
G37*
%LPD*%
G36*
X352947Y433458D02*
X353338Y433380D01*
X382700D01*
X382700Y429900D01*
X382295Y429670D01*
X355974D01*
X352465Y433179D01*
X352784Y433567D01*
X352947Y433458D01*
D02*
G37*
G36*
X197242Y445913D02*
X195109Y443780D01*
X192728D01*
Y440220D01*
X196605D01*
X196796Y439758D01*
X195109Y438071D01*
X192728D01*
Y435486D01*
X192266Y435294D01*
X190742Y436819D01*
Y442883D01*
X190804Y442924D01*
X194891Y447012D01*
X197242D01*
Y445913D01*
D02*
G37*
G36*
X188703Y436397D02*
X188780Y436006D01*
X189001Y435675D01*
X215730Y408947D01*
Y405089D01*
X215230Y404800D01*
X215013Y404925D01*
X214999Y404996D01*
X214778Y405326D01*
X213781Y406323D01*
X213450Y406544D01*
X213060Y406622D01*
X203639D01*
X203248Y406544D01*
X202918Y406323D01*
X193350Y396756D01*
X193280Y396651D01*
X190148Y393520D01*
X189600D01*
Y394050D01*
X182963D01*
X181525Y395488D01*
X181716Y395950D01*
X189600D01*
Y399050D01*
X182963D01*
X181525Y400488D01*
X181716Y400950D01*
X189600D01*
Y404050D01*
X180800D01*
X180529Y404438D01*
Y409571D01*
X181311D01*
Y414429D01*
X180529D01*
Y422471D01*
X183347D01*
X183726Y422092D01*
X184552Y421750D01*
X185448D01*
X186275Y422092D01*
X186907Y422725D01*
X187250Y423553D01*
Y424447D01*
X186907Y425275D01*
X186275Y425908D01*
X185448Y426250D01*
X184552D01*
X183726Y425908D01*
X183347Y425529D01*
X180529D01*
Y427650D01*
X180413Y428235D01*
X180081Y428731D01*
X178113Y430700D01*
X179613Y432200D01*
X180550D01*
Y441000D01*
X178366D01*
X178175Y441462D01*
X179189Y442477D01*
X188703D01*
Y436397D01*
D02*
G37*
%LPC*%
G36*
X185550Y441000D02*
X182450D01*
Y432200D01*
X185550D01*
Y441000D01*
D02*
G37*
%LPD*%
G36*
X266593Y400726D02*
X267226Y400093D01*
X268052Y399750D01*
X268587D01*
X303471Y364866D01*
Y354249D01*
X299974Y350752D01*
X299642Y350256D01*
X299526Y349670D01*
Y339035D01*
X297602D01*
Y331964D01*
X295953Y330314D01*
X295453Y330521D01*
Y339035D01*
X293529D01*
Y354965D01*
X299980D01*
Y363839D01*
X293274D01*
Y367593D01*
X293274Y367593D01*
X293907Y368226D01*
X294250Y369052D01*
Y369948D01*
X293907Y370775D01*
X293274Y371408D01*
X292448Y371750D01*
X291552D01*
X290725Y371408D01*
X290092Y370775D01*
X289750Y369948D01*
Y369052D01*
X290092Y368226D01*
X290725Y367593D01*
X290725Y367593D01*
Y363839D01*
X284020D01*
Y360931D01*
X281417D01*
X280832Y360815D01*
X280336Y360483D01*
X273266Y353413D01*
X270571D01*
Y352632D01*
X267260D01*
X267029Y352821D01*
Y366016D01*
X266913Y366601D01*
X266581Y367097D01*
X245929Y387750D01*
Y390209D01*
X241071D01*
Y387750D01*
X238929Y385608D01*
X238429Y385815D01*
Y388406D01*
X240722Y390699D01*
X240998Y391113D01*
X241095Y391600D01*
Y391689D01*
X243250D01*
Y394000D01*
Y396311D01*
X241095D01*
Y397293D01*
X244528Y400726D01*
X266593D01*
X266593Y400726D01*
D02*
G37*
G36*
X191453Y323632D02*
Y301339D01*
X190201D01*
Y301339D01*
X189744D01*
Y301339D01*
X188492D01*
Y317325D01*
X188414Y317715D01*
X188193Y318046D01*
X179692Y326547D01*
X179870Y327046D01*
X179871Y327047D01*
X181453D01*
Y332979D01*
X181915Y333170D01*
X191453Y323632D01*
D02*
G37*
G36*
X186453Y316902D02*
Y301339D01*
X185201D01*
Y301339D01*
X184744D01*
Y301339D01*
X183492D01*
Y316028D01*
X183414Y316418D01*
X183193Y316749D01*
X181055Y318886D01*
X181218Y319167D01*
X181453Y320045D01*
Y320955D01*
X181365Y321284D01*
X181813Y321542D01*
X186453Y316902D01*
D02*
G37*
G36*
X196883Y264073D02*
X196972Y263665D01*
Y263209D01*
X196972D01*
Y258665D01*
X196972D01*
Y258209D01*
X196972D01*
Y253665D01*
X196972D01*
Y253209D01*
X196972D01*
Y248665D01*
X196972D01*
Y248209D01*
X196972D01*
Y247493D01*
X192524D01*
X192408Y247775D01*
X191774Y248408D01*
X190948Y248750D01*
X190052D01*
X189225Y248408D01*
X188770Y247952D01*
X188270Y248159D01*
Y256086D01*
X196423Y264240D01*
X196883Y264073D01*
D02*
G37*
G36*
X283949Y156620D02*
X271277Y143948D01*
X270666Y144044D01*
X270563Y144199D01*
X269591Y145170D01*
X269750Y145552D01*
Y146448D01*
X269408Y147274D01*
X268775Y147907D01*
X267948Y148250D01*
X267052D01*
X266226Y147907D01*
X265593Y147274D01*
X265250Y146448D01*
Y145552D01*
X265593Y144726D01*
X266226Y144093D01*
X267052Y143750D01*
X267406D01*
X268387Y142770D01*
Y140524D01*
X267587D01*
X267406Y140949D01*
Y141311D01*
X263256D01*
Y140948D01*
X263075Y140524D01*
X262756Y140524D01*
X261250D01*
Y137071D01*
X260750D01*
Y140524D01*
X258925Y140524D01*
X258744Y140948D01*
Y141311D01*
X254594D01*
Y141311D01*
X254413D01*
Y141311D01*
X253613D01*
Y153257D01*
X253516Y153745D01*
X253240Y154159D01*
X250778Y156620D01*
X250985Y157120D01*
X283742D01*
X283949Y156620D01*
D02*
G37*
G36*
X247385Y230313D02*
Y156937D01*
X247482Y156449D01*
X247758Y156035D01*
X251064Y152729D01*
Y141311D01*
X250264D01*
Y134405D01*
X254413D01*
Y134405D01*
X254594D01*
Y134405D01*
X255395D01*
Y127840D01*
X252946Y125392D01*
X252484Y125583D01*
Y128593D01*
X249228D01*
Y128843D01*
X248978D01*
Y133083D01*
X245997D01*
Y230994D01*
X246497Y231201D01*
X247385Y230313D01*
D02*
G37*
G36*
X232225Y230937D02*
Y125242D01*
X231726Y125035D01*
X230774Y125986D01*
Y231680D01*
X231275Y231888D01*
X232225Y230937D01*
D02*
G37*
G36*
X239725Y230901D02*
Y124813D01*
X239226Y124606D01*
X238774Y125057D01*
Y231000D01*
X238738Y231181D01*
X239199Y231427D01*
X239725Y230901D01*
D02*
G37*
G36*
X236226Y230472D02*
Y124777D01*
X235725Y124570D01*
X234774Y125521D01*
Y231216D01*
X235275Y231423D01*
X236226Y230472D01*
D02*
G37*
G36*
X243448Y230714D02*
Y124626D01*
X242948Y124419D01*
X242274Y125092D01*
Y231181D01*
X242775Y231388D01*
X243448Y230714D01*
D02*
G37*
G36*
X267406Y134405D02*
X267587Y133980D01*
Y133618D01*
X270755D01*
X270947Y133156D01*
X257418Y119627D01*
X255029D01*
X254822Y120127D01*
X266232Y131537D01*
X266508Y131951D01*
X266605Y132439D01*
Y134405D01*
X267406D01*
D02*
G37*
%LPC*%
G36*
X245929Y396311D02*
X243750D01*
Y394250D01*
X245929D01*
Y396311D01*
D02*
G37*
G36*
Y393750D02*
X243750D01*
Y391689D01*
X245929D01*
Y393750D01*
D02*
G37*
G36*
X252484Y133083D02*
X249478D01*
Y129093D01*
X252484D01*
Y133083D01*
D02*
G37*
%LPD*%
G36*
X179191Y192906D02*
X179405Y192777D01*
Y190291D01*
X182480D01*
Y188713D01*
X181169D01*
Y184287D01*
X185280D01*
X185487Y183787D01*
X184271Y182571D01*
X181169D01*
Y179299D01*
X179802Y177932D01*
X179302Y178139D01*
Y181319D01*
X179761Y181509D01*
X180394Y182142D01*
X180736Y182969D01*
Y183864D01*
X180394Y184691D01*
X179761Y185324D01*
X178934Y185667D01*
X178039D01*
X177212Y185324D01*
X176579Y184691D01*
X176236Y183864D01*
Y182969D01*
X176579Y182142D01*
X177212Y181509D01*
X177670Y181319D01*
Y178118D01*
X175816Y176263D01*
X175316Y176470D01*
Y177902D01*
X175775Y178093D01*
X176408Y178726D01*
X176750Y179552D01*
Y180448D01*
X176408Y181274D01*
X175775Y181907D01*
X174948Y182250D01*
X174052D01*
X173225Y181907D01*
X172592Y181274D01*
X172250Y180448D01*
Y179552D01*
X172592Y178726D01*
X173225Y178093D01*
X173684Y177902D01*
Y176395D01*
X165465Y168176D01*
X164965Y168383D01*
Y169885D01*
X170667Y175586D01*
X170890Y175631D01*
X171221Y175852D01*
X171442Y176183D01*
X171520Y176573D01*
Y185578D01*
X178905Y192964D01*
X179191Y192906D01*
D02*
G37*
D12*
X188016Y138543D02*
X193717Y144245D01*
X183421Y138543D02*
X188016D01*
X193717Y144245D02*
Y151298D01*
X189969Y155047D02*
X193717Y151298D01*
X175047Y150323D02*
Y155047D01*
X178000Y158000D01*
X186661Y170500D02*
X192000D01*
X185677Y155047D02*
X189969D01*
X191500Y175500D02*
X192000Y176000D01*
X188642Y175500D02*
X191500D01*
X182921Y166760D02*
X186661Y170500D01*
X181031Y167889D02*
X188642Y175500D01*
X181031Y165755D02*
Y167889D01*
X180953Y165677D02*
X181031Y165755D01*
X182921Y165677D02*
Y166760D01*
X174500Y176057D02*
Y180000D01*
X182921Y151390D02*
X183212Y151680D01*
X185680D01*
X182921Y150323D02*
Y151390D01*
X185680Y151680D02*
X186000Y152000D01*
X180953Y150323D02*
X182921D01*
X185709Y153079D02*
X186000Y152788D01*
X185677Y153079D02*
X185709D01*
X186000Y152000D02*
Y152788D01*
X176971Y150278D02*
X177016Y150323D01*
X169468Y140246D02*
X176971Y147750D01*
Y150278D01*
X169468Y134780D02*
Y140246D01*
Y134780D02*
X173579Y130669D01*
X174071Y142254D02*
X178984Y147168D01*
X173579Y138543D02*
X174071Y139036D01*
Y142254D01*
X178984Y147168D02*
Y150323D01*
X170323Y167299D02*
X183382Y180358D01*
X170323Y162921D02*
Y167299D01*
X183382Y180358D02*
X183500D01*
X167350Y161792D02*
X168111Y161031D01*
X178486Y177780D02*
Y182938D01*
X167350Y166644D02*
X178486Y177780D01*
X167350Y161792D02*
Y166644D01*
X165750Y161129D02*
Y167306D01*
X164150Y159087D02*
Y170222D01*
X165750Y167306D02*
X174500Y176057D01*
X164150Y170222D02*
X170500Y176573D01*
X164150Y159087D02*
X168111Y155125D01*
X170245D01*
X170323Y155047D01*
X165750Y161129D02*
X167817Y159062D01*
X170245D01*
X170323Y158984D01*
X168111Y161031D02*
X170245D01*
X170323Y160953D01*
D15*
X186005Y146005D02*
X188740Y148740D01*
X190240D01*
X191000Y149500D01*
X280750Y302750D02*
X348750D01*
X280500Y303000D02*
X280750Y302750D01*
X348750D02*
X349000Y302500D01*
X258250Y302750D02*
X258500Y303000D01*
X210750Y302750D02*
X258250D01*
X210500Y302500D02*
X210750Y302750D01*
X227000Y266000D02*
Y299500D01*
Y266000D02*
X237500Y255500D01*
X188500Y149500D02*
X191000D01*
X148000Y282000D02*
Y296374D01*
X147472Y296902D02*
X148000Y296374D01*
X187250Y256508D02*
X195972Y265231D01*
X198786Y291144D02*
X199545D01*
X195972Y288330D02*
X198786Y291144D01*
X192472Y296902D02*
Y324054D01*
X199545Y291144D02*
X202500Y294099D01*
Y322500D01*
X181574Y334953D02*
X192472Y324054D01*
X202500Y322500D02*
X224250Y344250D01*
Y380126D01*
X508040Y478217D02*
X510823Y481000D01*
X515500D01*
X505331Y478217D02*
X508040D01*
X504020Y476905D02*
X505331Y478217D01*
X504020Y476000D02*
Y476905D01*
X172022Y287522D02*
X172500Y288000D01*
X170522Y287522D02*
X172022D01*
X170414Y287414D02*
X170522Y287522D01*
X167472Y289528D02*
X169586Y287414D01*
X170414D01*
X167472Y289528D02*
Y296902D01*
X243849Y418192D02*
X260850Y435193D01*
Y443850D01*
X401525Y440150D02*
X403000Y438675D01*
Y430125D02*
Y438675D01*
X398875Y426000D02*
X403000Y430125D01*
X435989Y483107D02*
Y483989D01*
X434000Y480500D02*
Y481118D01*
X435989Y483107D01*
Y483989D02*
X437500Y485500D01*
X465000D02*
X470000D01*
X460000Y480500D02*
X465000Y485500D01*
X437500D02*
X442594D01*
X172472Y219028D02*
X172500Y219000D01*
Y213500D02*
Y219000D01*
X172472Y219028D02*
Y229972D01*
X525291Y477311D02*
Y479886D01*
X523980Y476000D02*
X525291Y477311D01*
Y479886D02*
X530906Y485500D01*
X497811Y479575D02*
X503500Y485264D01*
X497811Y477311D02*
Y479575D01*
X496500Y476000D02*
X497811Y477311D01*
X503500Y485264D02*
Y485500D01*
X468980Y476000D02*
X470017Y477037D01*
Y479612D02*
X475906Y485500D01*
X470017Y477037D02*
Y479612D01*
X442791Y477311D02*
Y479791D01*
X441480Y476000D02*
X442791Y477311D01*
Y479791D02*
X448500Y485500D01*
X314500Y402500D02*
Y433900D01*
X319500Y402500D02*
Y433900D01*
X324500Y402500D02*
Y433900D01*
X329500Y402500D02*
Y421500D01*
X334000Y426000D01*
X177500Y210000D02*
Y229945D01*
X182500Y218000D02*
Y229945D01*
X182472Y229972D02*
X182500Y229945D01*
X186500Y205000D02*
X188500Y203000D01*
X169421Y205000D02*
X186500D01*
X164661Y200240D02*
X169421Y205000D01*
X167472Y222472D02*
Y229972D01*
X167000Y222000D02*
X167472Y222472D01*
X188500Y185358D02*
Y203000D01*
X183500Y180358D02*
X188500Y185358D01*
X174000Y196500D02*
Y200500D01*
X137000Y297374D02*
Y308500D01*
Y297374D02*
X137472Y296902D01*
X197086Y470750D02*
X203917D01*
X196500Y471336D02*
Y471500D01*
Y471336D02*
X197086Y470750D01*
X203917D02*
X204093Y470925D01*
X213744D01*
X142500Y296929D02*
Y308500D01*
X142472Y296902D02*
X142500Y296929D01*
X202500Y474000D02*
X202978Y473522D01*
X203978D01*
X204000Y473500D01*
X204575Y474075D02*
X213744D01*
X204000Y473500D02*
X204575Y474075D01*
X195972Y265231D02*
Y288330D01*
X219000Y394000D02*
X219500Y394500D01*
X221415D01*
X226957Y389119D02*
Y389457D01*
X213060Y375398D02*
X214057Y376395D01*
Y379933D01*
X214250Y380126D01*
X197618Y387500D02*
X209720Y375398D01*
X213060D01*
X194071Y396000D02*
Y396035D01*
X203639Y405602D01*
X190571Y392500D02*
X194071Y396000D01*
X203639Y405602D02*
X213060D01*
X226957Y389457D02*
X229250Y391750D01*
Y400874D01*
X224000Y392000D02*
X226750Y394750D01*
Y400874D01*
X223500Y392000D02*
X224000D01*
X221415Y394500D02*
X224057Y397143D01*
Y400681D02*
X224250Y400874D01*
X224057Y397143D02*
Y400681D01*
X197500Y387500D02*
X197618D01*
X205118Y387398D02*
X209661Y382854D01*
X211443D01*
X211750Y382547D01*
Y380126D02*
Y382547D01*
X205000Y387398D02*
X205118D01*
X192000Y287000D02*
X193972Y288972D01*
Y289158D01*
X192000Y287000D02*
Y287000D01*
X187250Y230195D02*
X187472Y229972D01*
X187250Y230195D02*
Y256508D01*
X196201Y291387D02*
Y295630D01*
X193972Y289158D02*
X196201Y291387D01*
X334000Y426000D02*
X398875D01*
X391414Y439089D02*
X392475Y440150D01*
X401525D01*
X355552Y428650D02*
X391525D01*
X392585Y429711D01*
X344552Y439650D02*
X355552Y428650D01*
X316450Y438625D02*
X319975Y442150D01*
X326450Y438550D02*
Y438625D01*
X327475Y439650D01*
X345588Y442150D02*
X353338Y434400D01*
X392585Y429785D02*
X394500Y431700D01*
X319975Y442150D02*
X345588D01*
X392585Y429711D02*
Y429785D01*
X327475Y439650D02*
X344552D01*
X353338Y434400D02*
X384500D01*
X170500Y186000D02*
X178256Y193756D01*
X170500Y176573D02*
Y186000D01*
X228192Y418192D02*
X243849D01*
X219443Y409443D02*
X228192Y418192D01*
X219443Y401067D02*
Y409443D01*
X213060Y405602D02*
X214057Y404605D01*
Y401067D02*
Y404605D01*
Y401067D02*
X214250Y400874D01*
X185200Y392500D02*
X190571D01*
X219250Y400874D02*
X219443Y401067D01*
X216750Y400874D02*
Y409369D01*
X189722Y436397D02*
X216750Y409369D01*
X189722Y436397D02*
Y444006D01*
X168000Y330500D02*
X172453Y334953D01*
X181574D01*
X178844Y325953D02*
X187472Y317325D01*
X166250Y325953D02*
X178844D01*
X162453Y329750D02*
X166250Y325953D01*
X158750Y329750D02*
X162453D01*
X158000Y330500D02*
X158750Y329750D01*
X187472Y296902D02*
Y317325D01*
X182472Y296902D02*
Y316028D01*
X178000Y320500D02*
X182472Y316028D01*
X177472Y296902D02*
Y311028D01*
X168000Y320500D02*
X177472Y311028D01*
X172472Y296902D02*
Y306028D01*
X158000Y320500D02*
X172472Y306028D01*
X186000Y152000D02*
X188500Y149500D01*
X169404Y176573D02*
X170500D01*
X178486Y183417D02*
X178964Y182938D01*
X152500Y287500D02*
Y296874D01*
X151500Y288000D02*
X152000Y287500D01*
X152500D01*
X152472Y296902D02*
X152500Y296874D01*
X165618Y180358D02*
X169404Y176573D01*
X178256Y193756D02*
Y196622D01*
X181874Y200240D02*
X182661D01*
X178256Y196622D02*
X181874Y200240D01*
X196201Y295630D02*
X197472Y296902D01*
X141051Y226386D02*
X142472Y227807D01*
X141051Y211000D02*
Y226386D01*
X142472Y227807D02*
Y229972D01*
X141051Y210882D02*
Y211000D01*
X164661Y192760D02*
X165500Y191921D01*
Y186500D02*
Y191921D01*
X182661Y192760D02*
X183500Y191921D01*
Y186500D02*
Y191921D01*
X141051Y210882D02*
X153744Y198189D01*
X155213Y196500D02*
X156000D01*
X153744Y197968D02*
Y198189D01*
Y197968D02*
X155213Y196500D01*
X165500Y180358D02*
X165618D01*
X137500Y218500D02*
Y229945D01*
X229250Y380126D02*
X229376Y380000D01*
X232500D01*
X221943Y380319D02*
Y383857D01*
X223258Y385172D02*
X233157D01*
X235882Y387898D01*
X221750Y380126D02*
X221943Y380319D01*
X235882Y387898D02*
X236000D01*
X221943Y383857D02*
X223258Y385172D01*
D54*
X531500Y476000D02*
D03*
X523980D02*
D03*
X496500D02*
D03*
X504020D02*
D03*
X468980D02*
D03*
X476500D02*
D03*
X441480D02*
D03*
X449000D02*
D03*
D55*
X169224Y266724D02*
D03*
Y252276D02*
D03*
Y259500D02*
D03*
X154776Y266724D02*
D03*
Y252276D02*
D03*
Y259500D02*
D03*
X162000Y266724D02*
D03*
Y252276D02*
D03*
Y259500D02*
D03*
D56*
X201409Y240937D02*
D03*
Y245937D02*
D03*
Y250937D02*
D03*
Y255937D02*
D03*
Y260937D02*
D03*
Y285937D02*
D03*
Y280937D02*
D03*
Y275937D02*
D03*
Y270937D02*
D03*
Y265937D02*
D03*
D57*
X132472Y296902D02*
D03*
X137472D02*
D03*
X142472D02*
D03*
X147472D02*
D03*
X152472D02*
D03*
X157472D02*
D03*
X162472D02*
D03*
X167472D02*
D03*
X172472D02*
D03*
X177472D02*
D03*
X182472D02*
D03*
X187472D02*
D03*
X192472D02*
D03*
X197472D02*
D03*
X132472Y229972D02*
D03*
X137472D02*
D03*
X142472D02*
D03*
X147472D02*
D03*
X152472D02*
D03*
X157472D02*
D03*
X162472D02*
D03*
X167472D02*
D03*
X172472D02*
D03*
X177472D02*
D03*
X182472D02*
D03*
X187472D02*
D03*
X192472D02*
D03*
X197472D02*
D03*
D58*
X165800Y402500D02*
D03*
Y397500D02*
D03*
Y392500D02*
D03*
Y387500D02*
D03*
X185200D02*
D03*
Y392500D02*
D03*
Y397500D02*
D03*
Y402500D02*
D03*
D59*
X173079Y150323D02*
D03*
X175047D02*
D03*
X177016D02*
D03*
X178984D02*
D03*
X180953D02*
D03*
X182921D02*
D03*
Y165677D02*
D03*
X180953D02*
D03*
X178984D02*
D03*
X177016D02*
D03*
X175047D02*
D03*
X173079D02*
D03*
D60*
X185677Y153079D02*
D03*
Y155047D02*
D03*
Y157016D02*
D03*
Y158984D02*
D03*
Y160953D02*
D03*
Y162921D02*
D03*
X170323D02*
D03*
Y160953D02*
D03*
Y158984D02*
D03*
Y157016D02*
D03*
Y155047D02*
D03*
Y153079D02*
D03*
D61*
X178000Y158000D02*
D03*
D62*
X519102Y448000D02*
D03*
X513000D02*
D03*
X141051Y211000D02*
D03*
X134949D02*
D03*
X179000Y412000D02*
D03*
X172898D02*
D03*
X219500Y465000D02*
D03*
X213398D02*
D03*
X177898Y467000D02*
D03*
X184000D02*
D03*
X254000D02*
D03*
X247898D02*
D03*
D63*
X164661Y192760D02*
D03*
Y200240D02*
D03*
X156000Y196500D02*
D03*
X174000D02*
D03*
X182661Y200240D02*
D03*
Y192760D02*
D03*
D64*
X165500Y180358D02*
D03*
Y186500D02*
D03*
X183500D02*
D03*
Y180358D02*
D03*
X155500Y404642D02*
D03*
Y398500D02*
D03*
Y390642D02*
D03*
Y384500D02*
D03*
D65*
X313000Y162000D02*
D03*
Y155898D02*
D03*
X273000Y351102D02*
D03*
Y345000D02*
D03*
X310500Y344500D02*
D03*
Y350602D02*
D03*
X205000Y387398D02*
D03*
Y393500D02*
D03*
X197500Y387500D02*
D03*
Y393602D02*
D03*
X243500Y387898D02*
D03*
Y394000D02*
D03*
X236000Y387898D02*
D03*
Y394000D02*
D03*
X377500Y450000D02*
D03*
Y443898D02*
D03*
X307500Y449602D02*
D03*
Y443500D02*
D03*
X161500Y443398D02*
D03*
Y449500D02*
D03*
X231500Y449000D02*
D03*
Y442898D02*
D03*
D66*
X292000Y334598D02*
D03*
X282945D02*
D03*
X301055D02*
D03*
X136500Y382598D02*
D03*
X127445D02*
D03*
X145555D02*
D03*
D67*
X292000Y359402D02*
D03*
X136500Y407402D02*
D03*
D68*
X265500Y349500D02*
D03*
Y346043D02*
D03*
X318000Y346272D02*
D03*
Y349728D02*
D03*
X191000Y146043D02*
D03*
Y149500D02*
D03*
D69*
X137500Y218500D02*
D03*
X134043D02*
D03*
D70*
X229250Y400874D02*
D03*
X226750D02*
D03*
X224250D02*
D03*
X221750D02*
D03*
X219250D02*
D03*
X216750D02*
D03*
X214250D02*
D03*
X211750D02*
D03*
Y380126D02*
D03*
X214250D02*
D03*
X216750D02*
D03*
X219250D02*
D03*
X221750D02*
D03*
X224250D02*
D03*
X226750D02*
D03*
X229250D02*
D03*
D71*
X314500Y433900D02*
D03*
Y458100D02*
D03*
X319500Y433900D02*
D03*
X324500D02*
D03*
X319500Y458100D02*
D03*
X324500D02*
D03*
X329500Y433900D02*
D03*
Y458100D02*
D03*
X384500Y434400D02*
D03*
Y458600D02*
D03*
X389500Y434400D02*
D03*
X394500D02*
D03*
X389500Y458600D02*
D03*
X394500D02*
D03*
X399500Y434400D02*
D03*
Y458600D02*
D03*
D72*
X213744Y474075D02*
D03*
Y470925D02*
D03*
X219256D02*
D03*
Y474075D02*
D03*
D73*
X195000Y436291D02*
D03*
Y442000D02*
D03*
Y454500D02*
D03*
Y448791D02*
D03*
X265500Y448500D02*
D03*
Y454209D02*
D03*
Y442000D02*
D03*
Y436291D02*
D03*
D74*
X184000Y456000D02*
D03*
X179000D02*
D03*
X174000D02*
D03*
X169000D02*
D03*
Y436600D02*
D03*
X174000D02*
D03*
X179000D02*
D03*
X184000D02*
D03*
X254500Y436300D02*
D03*
X249500D02*
D03*
X244500D02*
D03*
X239500D02*
D03*
Y455700D02*
D03*
X244500D02*
D03*
X249500D02*
D03*
X254500D02*
D03*
D75*
X525000Y485500D02*
D03*
X530906D02*
D03*
X470000D02*
D03*
X475906D02*
D03*
X442594D02*
D03*
X448500D02*
D03*
D76*
X497122D02*
D03*
X503500D02*
D03*
D77*
X301000Y124906D02*
D03*
X249228Y128843D02*
D03*
D78*
X282654Y137858D02*
D03*
X278323Y139433D02*
D03*
X273992Y137858D02*
D03*
X269661Y137071D02*
D03*
X265331Y137858D02*
D03*
X261000Y137071D02*
D03*
X256669Y137858D02*
D03*
X252339D02*
D03*
D79*
X277969Y180614D02*
D03*
X255528D02*
D03*
D80*
X261000Y181500D02*
D03*
D81*
X181107Y142854D02*
X185207D01*
X179000Y140747D02*
X181107Y142854D01*
X186143Y141919D02*
X187419D01*
X179000Y135090D02*
Y140747D01*
X185207Y142854D02*
X186143Y141919D01*
X179000Y135090D02*
X183421Y130669D01*
X136500Y382598D02*
Y407402D01*
X116500Y378500D02*
X120500Y374500D01*
X143000D02*
X145333Y376833D01*
X120500Y374500D02*
X143000D01*
X116500Y378500D02*
Y401647D01*
X145333Y382376D02*
X145555Y382598D01*
X145333Y376833D02*
Y382376D01*
X116500Y401647D02*
X145553Y430700D01*
X201713Y431787D02*
X202000Y431500D01*
X199996Y431787D02*
X201713D01*
X195492Y436291D02*
X199996Y431787D01*
X195000Y436291D02*
X195492D01*
X265250Y436041D02*
X265500Y436291D01*
X265250Y432250D02*
Y436041D01*
X265000Y432000D02*
X265250Y432250D01*
X174500Y397500D02*
X177350D01*
X165800D02*
X174500D01*
X212500Y320500D02*
X278886D01*
X292000Y333614D01*
X212000Y321000D02*
X212500Y320500D01*
X189250Y144451D02*
X190842Y146043D01*
X189250Y143750D02*
Y144451D01*
X190842Y146043D02*
X191000D01*
X187419Y141919D02*
X189250Y143750D01*
X137486Y229959D02*
Y239986D01*
Y229959D02*
X137500Y229945D01*
X137486Y239986D02*
X137500Y240000D01*
X292000Y333614D02*
Y334598D01*
X301055Y349670D02*
X305000Y353615D01*
X368080Y346272D02*
X450808Y429000D01*
X305000Y353615D02*
Y365500D01*
X268500Y402000D02*
X305000Y365500D01*
X301055Y335583D02*
Y349670D01*
X249200Y443850D02*
X260850D01*
X264728Y447728D02*
Y448220D01*
X265008Y448500D02*
X265500D01*
X244500Y439150D02*
X249200Y443850D01*
X260850D02*
X264728Y447728D01*
Y448220D02*
X265008Y448500D01*
X265992Y436291D02*
X272272Y442571D01*
Y453316D01*
X394500Y458600D02*
Y474443D01*
X397500Y477443D01*
Y478500D01*
X386500Y471550D02*
X389500Y468550D01*
Y458600D02*
Y468550D01*
X386500Y471550D02*
Y478500D01*
X324500Y475443D02*
X326500Y477443D01*
Y478500D01*
X324500Y458100D02*
Y475443D01*
X316500Y470174D02*
X319500Y467174D01*
Y458100D02*
Y467174D01*
X316500Y470174D02*
Y478500D01*
X179000Y424500D02*
Y427650D01*
Y412000D02*
Y424500D01*
X179500Y424000D02*
X185000D01*
X175950Y430700D02*
X179000Y427650D01*
X145553Y430700D02*
X167122D01*
X179000Y400850D02*
Y412000D01*
Y400850D02*
X182350Y397500D01*
X185200D01*
X177350D02*
X182350Y392500D01*
X185200D01*
X254000Y467118D02*
X254464Y466654D01*
X258934D02*
X272272Y453316D01*
X254464Y466654D02*
X258934D01*
X265500Y436291D02*
X265992D01*
Y454209D02*
X269272Y450929D01*
Y445280D02*
Y450929D01*
X265992Y442000D02*
X269272Y445280D01*
X260787Y454209D02*
X265500D01*
X265992D01*
X231500Y436522D02*
Y442898D01*
Y436522D02*
X237622Y430400D01*
X246450D01*
X249500Y433450D01*
Y436300D01*
X244500D02*
Y439150D01*
X265500Y442000D02*
X265992D01*
X249500Y452850D02*
Y455700D01*
Y452850D02*
X252550Y449800D01*
X256378D01*
X260787Y454209D01*
X244500Y455700D02*
Y458550D01*
X247898Y461948D02*
Y467000D01*
X244500Y458550D02*
X247898Y461948D01*
X254000Y467118D02*
X256500Y469618D01*
Y478500D01*
X246500Y468516D02*
X247898Y467118D01*
X246500Y468516D02*
Y478500D01*
X247898Y467000D02*
Y467118D01*
X195772Y436571D02*
X201772Y442571D01*
X179000Y433750D02*
Y436600D01*
X175950Y430700D02*
X179000Y433750D01*
X167122Y430700D02*
X175950D01*
X161500Y436322D02*
X167122Y430700D01*
X161500Y436322D02*
Y443398D01*
X188380Y467000D02*
X201772Y453608D01*
X195492Y454500D02*
X198772Y451221D01*
X195492Y442000D02*
X198772Y445280D01*
Y451221D01*
X195000Y454500D02*
X195492D01*
X201772Y442571D02*
Y453608D01*
X195000Y442000D02*
X195492D01*
X177898Y466882D02*
Y467000D01*
X174000Y456000D02*
Y462984D01*
X177898Y466882D01*
X174000Y436600D02*
Y439450D01*
X178556Y444006D01*
X189722D01*
X194508Y448791D01*
X195000D01*
X179000Y453150D02*
Y456000D01*
Y453150D02*
X182050Y450100D01*
X185878D01*
X188053Y452275D01*
Y452325D01*
X190228Y454500D02*
X195000D01*
X188053Y452325D02*
X190228Y454500D01*
X184000Y467000D02*
X188380D01*
X177199Y467699D02*
X177898Y467000D01*
X177199Y467699D02*
Y477801D01*
X176500Y478500D02*
X177199Y477801D01*
X186500Y477443D02*
Y478500D01*
X184000Y467000D02*
Y474943D01*
X186500Y477443D01*
X162950Y392500D02*
X165800D01*
X155500Y390642D02*
X161092D01*
X162950Y392500D01*
X155500Y390642D02*
Y398500D01*
X139260Y404642D02*
X155500D01*
X136500Y407402D02*
X139260Y404642D01*
X519102Y442602D02*
Y448000D01*
X450808Y429000D02*
X505500D01*
X519102Y442602D01*
X318000Y346272D02*
X368080D01*
X537189Y448000D02*
X567189Y418000D01*
X519102Y448000D02*
X537189D01*
X265500Y349500D02*
Y366016D01*
Y349500D02*
X265657D01*
X232500Y380000D02*
X235484D01*
X243382Y387898D01*
X243500D01*
X243618D02*
X265500Y366016D01*
X243500Y387898D02*
X243618D01*
X267260Y351102D02*
X273000D01*
X265657Y349500D02*
X267260Y351102D01*
X273118D02*
X281417Y359402D01*
X292000D01*
X273000Y351102D02*
X273118D01*
X292000Y334598D02*
Y359402D01*
X303667Y337785D02*
X310382Y344500D01*
X312390Y346272D02*
X318000D01*
D82*
X219500Y465000D02*
X219750Y464750D01*
X219378Y465122D02*
X219500Y465000D01*
X219750Y459250D02*
Y464750D01*
Y459250D02*
X220000Y459000D01*
X238144Y270703D02*
X301055Y333614D01*
X238144Y266144D02*
Y270703D01*
X301055Y333614D02*
Y334598D01*
Y335583D01*
X237500Y265500D02*
X238144Y266144D01*
X233822Y250797D02*
X252797D01*
X257500Y255500D01*
X219947Y264673D02*
X233822Y250797D01*
X269661Y138720D02*
X270486Y137896D01*
X267500Y145459D02*
X269661Y143297D01*
X267500Y145459D02*
Y146000D01*
X269661Y138720D02*
Y143297D01*
X489498Y476000D02*
X493964Y471533D01*
X476500Y476000D02*
X489498D01*
X463022Y471533D02*
X472939D01*
X476500Y475095D02*
Y476000D01*
X472939Y471533D02*
X476500Y475095D01*
X458555Y476000D02*
X463022Y471533D01*
X519102Y447882D02*
Y448000D01*
X307000Y376000D02*
X352057D01*
X423873Y447816D02*
Y449967D01*
X449000Y475095D02*
Y476000D01*
X423873Y449967D02*
X449000Y475095D01*
X352057Y376000D02*
X423873Y447816D01*
X531500Y475095D02*
Y476000D01*
X527939Y471533D02*
X531500Y475095D01*
X493964Y471533D02*
X527939D01*
X449000Y476000D02*
X458555D01*
X377618Y450000D02*
X382968Y455350D01*
X383950D02*
X384500Y455900D01*
Y458600D01*
X382968Y455350D02*
X383950D01*
X377500Y450000D02*
X377618D01*
X307817Y449801D02*
X312866Y454850D01*
X307817Y449801D02*
X377301D01*
X295102Y449602D02*
X307500D01*
X307618D02*
X307817Y449801D01*
X307500Y449602D02*
X307618D01*
X194976Y224285D02*
X215785D01*
X193494Y225767D02*
Y228951D01*
X215785Y224285D02*
X220000Y228500D01*
X193494Y225767D02*
X194976Y224285D01*
X192472Y229972D02*
X193494Y228951D01*
X211959Y231500D02*
X212500D01*
X210431Y229972D02*
X211959Y231500D01*
X197472Y229972D02*
X210431D01*
X219256Y470925D02*
X219378Y470803D01*
Y465122D02*
Y470803D01*
X389500Y437100D02*
X391414Y439014D01*
Y439089D01*
X389500Y434400D02*
Y437100D01*
X324500Y436600D02*
X326450Y438550D01*
X324500Y433900D02*
Y436600D01*
X394500Y431700D02*
Y434400D01*
X314500Y433900D02*
Y436600D01*
X316450Y438550D02*
Y438625D01*
X314500Y436600D02*
X316450Y438550D01*
X292000Y359402D02*
Y369500D01*
Y445500D02*
Y446500D01*
X295102Y449602D01*
X312866Y454850D02*
X313950D01*
X314500Y455400D01*
Y458100D01*
X377301Y449801D02*
X377500Y450000D01*
X202431Y284915D02*
X205615D01*
X219947Y270583D01*
X201409Y285937D02*
X202431Y284915D01*
X219947Y264673D02*
Y270583D01*
X201128Y246218D02*
X201409Y245937D01*
X190781Y246218D02*
X201128D01*
X190500Y246500D02*
X190781Y246218D01*
X229500Y125458D02*
Y231929D01*
Y125458D02*
X241605Y113352D01*
X260024D02*
X279998Y133326D01*
Y133825D01*
X241605Y113352D02*
X260024D01*
X279998Y133825D02*
X282654Y136480D01*
Y137858D01*
X210492Y250937D02*
X229500Y231929D01*
X201409Y250937D02*
X210492D01*
X270486Y141355D02*
X285029Y155898D01*
X313000D01*
X233500Y124994D02*
X242641Y115852D01*
X258989D01*
X277498Y134362D01*
Y138608D01*
X278323Y139433D01*
X233500Y124994D02*
Y231465D01*
X241000Y124565D02*
Y231429D01*
X207096Y272404D02*
X248659Y230840D01*
X244712Y120852D02*
X253745D01*
X237500Y124529D02*
X243677Y118352D01*
X248659Y156937D02*
X252339Y153257D01*
X245748Y123352D02*
X252709D01*
X241000Y124565D02*
X244712Y120852D01*
X244723Y124378D02*
Y231242D01*
X248659Y156937D02*
Y230840D01*
X237500Y124529D02*
Y231000D01*
X206049Y269915D02*
X244723Y231242D01*
X243677Y118352D02*
X257945D01*
X207514Y264915D02*
X241000Y231429D01*
X208000Y260500D02*
X237500Y231000D01*
X201409Y255937D02*
X209028D01*
X233500Y231465D01*
X203575Y275937D02*
X205053Y274459D01*
X202431Y264915D02*
X207514D01*
X201846Y260500D02*
X208000D01*
X201409Y265937D02*
X202431Y264915D01*
Y269915D02*
X206049D01*
X205053Y274459D02*
X206071D01*
X207096Y272404D02*
Y273433D01*
X206071Y274459D02*
X207096Y273433D01*
X201409Y275937D02*
X203575D01*
X201409Y270937D02*
X202431Y269915D01*
X201409Y260937D02*
X201846Y260500D01*
X253745Y120852D02*
X265331Y132439D01*
X273167Y133574D02*
Y137033D01*
X257945Y118352D02*
X273167Y133574D01*
Y137033D02*
X273992Y137858D01*
X244723Y124378D02*
X245748Y123352D01*
X252709D02*
X256669Y127313D01*
X265331Y132439D02*
Y137858D01*
X252339D02*
Y153257D01*
X256669Y127313D02*
Y137858D01*
X270486Y137896D02*
Y141355D01*
X179000Y424500D02*
X179500Y424000D01*
X246000Y426000D02*
Y429950D01*
X246450Y430400D01*
X239821Y397821D02*
X244000Y402000D01*
X239821Y391600D02*
Y397821D01*
X236118Y387898D02*
X239821Y391600D01*
X236000Y387898D02*
X236118D01*
X244000Y402000D02*
X268500D01*
X303258Y337785D02*
X303667D01*
X310382Y344500D02*
X310500D01*
X301055Y335583D02*
X303258Y337785D01*
X310618Y344500D02*
X312390Y346272D01*
X310500Y344500D02*
X310618D01*
D83*
X596293Y179000D02*
X599073Y181780D01*
X600654D01*
X573504Y179000D02*
X596293D01*
X535264Y140760D02*
X573504Y179000D01*
X509034Y144534D02*
X510500Y143067D01*
X505736Y147831D02*
X509034Y144534D01*
X521913Y157413D02*
Y181780D01*
X509034Y144534D02*
X521913Y157413D01*
X535264Y140351D02*
Y140760D01*
X530500Y114500D02*
Y135587D01*
X535264Y140351D01*
X505736Y147831D02*
Y148240D01*
X510500Y114500D02*
Y143067D01*
D84*
X454000Y418000D02*
D03*
X476638D02*
D03*
X499276D02*
D03*
X521913D02*
D03*
X544551D02*
D03*
X567189D02*
D03*
X600654Y181780D02*
D03*
X521913D02*
D03*
X443173D02*
D03*
D85*
X169224Y263112D02*
D03*
Y255888D02*
D03*
X154776Y263112D02*
D03*
Y255888D02*
D03*
X162000Y263112D02*
D03*
Y255888D02*
D03*
X165612Y266724D02*
D03*
Y259500D02*
D03*
Y252276D02*
D03*
X158388Y266724D02*
D03*
Y252276D02*
D03*
Y259500D02*
D03*
D86*
X183421Y138543D02*
D03*
X173579D02*
D03*
Y130669D02*
D03*
X183421D02*
D03*
D87*
X154799Y120000D02*
D03*
X202201D02*
D03*
D88*
X530500Y114500D02*
D03*
X178000Y330500D02*
D03*
X176500Y478500D02*
D03*
X246500D02*
D03*
X316500D02*
D03*
X386500D02*
D03*
X237500Y255500D02*
D03*
D89*
X520500Y114500D02*
D03*
X510500D02*
D03*
X148000Y320500D02*
D03*
Y330500D02*
D03*
X158000Y320500D02*
D03*
Y330500D02*
D03*
X168000Y320500D02*
D03*
Y330500D02*
D03*
X178000Y320500D02*
D03*
X186500Y478500D02*
D03*
X256500D02*
D03*
X326500D02*
D03*
X397500D02*
D03*
X257500Y265500D02*
D03*
Y255500D02*
D03*
X247500Y265500D02*
D03*
Y255500D02*
D03*
X237500Y265500D02*
D03*
D90*
X505736Y148240D02*
D03*
X535264Y140760D02*
D03*
D91*
X186005Y146005D02*
D03*
X282000Y350000D02*
D03*
X296500Y346000D02*
D03*
X336000Y327000D02*
D03*
X300500Y313000D02*
D03*
X288000Y173000D02*
D03*
X213000Y156000D02*
D03*
X211000Y182500D02*
D03*
X199500Y204000D02*
D03*
X210500Y238500D02*
D03*
X179000Y241000D02*
D03*
X169000Y276500D02*
D03*
X197000Y348500D02*
D03*
Y365500D02*
D03*
X163500Y357000D02*
D03*
X213000Y390000D02*
D03*
X147000Y393500D02*
D03*
X129000Y397000D02*
D03*
X122500Y392000D02*
D03*
X202000Y431500D02*
D03*
X265000Y432000D02*
D03*
X174500Y397500D02*
D03*
X220000Y459000D02*
D03*
X280500Y303000D02*
D03*
X258500D02*
D03*
X227000Y299500D02*
D03*
X260500Y152000D02*
D03*
X248500Y150000D02*
D03*
X180000Y156000D02*
D03*
X176000Y160000D02*
D03*
X267500Y146000D02*
D03*
X192000Y170500D02*
D03*
X137500Y240000D02*
D03*
X148000Y282000D02*
D03*
X212000Y321000D02*
D03*
X515500Y481000D02*
D03*
X349000Y302500D02*
D03*
X210500D02*
D03*
X172500Y288000D02*
D03*
X307000Y376000D02*
D03*
X434000Y480500D02*
D03*
X460000D02*
D03*
X172500Y213500D02*
D03*
X192000Y176000D02*
D03*
X324500Y402500D02*
D03*
X319500D02*
D03*
X314500D02*
D03*
X329500D02*
D03*
X177500Y210000D02*
D03*
X182500Y218000D02*
D03*
X167000Y222000D02*
D03*
X174000Y200500D02*
D03*
X220000Y228500D02*
D03*
X212500Y231500D02*
D03*
X137000Y308500D02*
D03*
X196500Y471500D02*
D03*
X142500Y308500D02*
D03*
X202500Y474000D02*
D03*
X219000Y394000D02*
D03*
X226957Y389119D02*
D03*
X223500Y392000D02*
D03*
X292000Y369500D02*
D03*
Y445500D02*
D03*
X190500Y246500D02*
D03*
X174500Y180000D02*
D03*
X185000Y424000D02*
D03*
X246000Y426000D02*
D03*
X268500Y402000D02*
D03*
X178486Y183417D02*
D03*
X152500Y287500D02*
D03*
X192000Y287000D02*
D03*
M02*
