G04*
G04 #@! TF.GenerationSoftware,Altium Limited,Altium Designer,22.10.1 (41)*
G04*
G04 Layer_Physical_Order=2*
G04 Layer_Color=16711680*
%FSLAX25Y25*%
%MOIN*%
G70*
G04*
G04 #@! TF.SameCoordinates,AD521441-6981-4C9A-977E-8A670088B7DC*
G04*
G04*
G04 #@! TF.FilePolarity,Positive*
G04*
G01*
G75*
%ADD15C,0.01000*%
%ADD81C,0.02000*%
%ADD82C,0.01500*%
%ADD83C,0.04000*%
%ADD84C,0.09843*%
%ADD85C,0.03000*%
%ADD86C,0.05622*%
%ADD87C,0.09055*%
%ADD88R,0.05906X0.05906*%
%ADD89C,0.05906*%
%ADD90C,0.05512*%
%ADD91C,0.03500*%
G36*
X649197Y251000D02*
X386000Y251000D01*
Y100803D01*
X100803D01*
Y499197D01*
X649197D01*
Y251000D01*
D02*
G37*
%LPC*%
G36*
X397955Y481953D02*
X397045D01*
X396167Y481717D01*
X395380Y481263D01*
X394737Y480620D01*
X394283Y479833D01*
X394047Y478955D01*
Y478045D01*
X394283Y477167D01*
X394737Y476380D01*
X395380Y475737D01*
X396167Y475282D01*
X397045Y475047D01*
X397955D01*
X398833Y475282D01*
X399620Y475737D01*
X400263Y476380D01*
X400717Y477167D01*
X400953Y478045D01*
Y478955D01*
X400717Y479833D01*
X400263Y480620D01*
X399620Y481263D01*
X398833Y481717D01*
X397955Y481953D01*
D02*
G37*
G36*
X389953D02*
X383047D01*
Y475047D01*
X389953D01*
Y481953D01*
D02*
G37*
G36*
X326955D02*
X326045D01*
X325167Y481717D01*
X324380Y481263D01*
X323737Y480620D01*
X323283Y479833D01*
X323047Y478955D01*
Y478045D01*
X323283Y477167D01*
X323737Y476380D01*
X324380Y475737D01*
X325167Y475282D01*
X326045Y475047D01*
X326955D01*
X327833Y475282D01*
X328620Y475737D01*
X329263Y476380D01*
X329717Y477167D01*
X329953Y478045D01*
Y478955D01*
X329717Y479833D01*
X329263Y480620D01*
X328620Y481263D01*
X327833Y481717D01*
X326955Y481953D01*
D02*
G37*
G36*
X319953D02*
X313047D01*
Y475047D01*
X319953D01*
Y481953D01*
D02*
G37*
G36*
X256955D02*
X256045D01*
X255167Y481717D01*
X254380Y481263D01*
X253737Y480620D01*
X253282Y479833D01*
X253047Y478955D01*
Y478045D01*
X253282Y477167D01*
X253737Y476380D01*
X254380Y475737D01*
X255167Y475282D01*
X256045Y475047D01*
X256955D01*
X257833Y475282D01*
X258620Y475737D01*
X259263Y476380D01*
X259717Y477167D01*
X259953Y478045D01*
Y478955D01*
X259717Y479833D01*
X259263Y480620D01*
X258620Y481263D01*
X257833Y481717D01*
X256955Y481953D01*
D02*
G37*
G36*
X249953D02*
X243047D01*
Y475047D01*
X249953D01*
Y481953D01*
D02*
G37*
G36*
X186955D02*
X186045D01*
X185167Y481717D01*
X184380Y481263D01*
X183737Y480620D01*
X183282Y479833D01*
X183047Y478955D01*
Y478045D01*
X183282Y477167D01*
X183737Y476380D01*
X184380Y475737D01*
X185167Y475282D01*
X186045Y475047D01*
X186955D01*
X187833Y475282D01*
X188620Y475737D01*
X189263Y476380D01*
X189717Y477167D01*
X189953Y478045D01*
Y478955D01*
X189717Y479833D01*
X189263Y480620D01*
X188620Y481263D01*
X187833Y481717D01*
X186955Y481953D01*
D02*
G37*
G36*
X179953D02*
X173047D01*
Y475047D01*
X179953D01*
Y481953D01*
D02*
G37*
G36*
X202948Y476250D02*
X202052D01*
X201225Y475908D01*
X200592Y475275D01*
X200250Y474447D01*
Y473553D01*
X200356Y473298D01*
X199208Y472150D01*
X198671Y472221D01*
X198623Y472255D01*
X198407Y472775D01*
X197775Y473408D01*
X196948Y473750D01*
X196052D01*
X195226Y473408D01*
X194592Y472775D01*
X194250Y471947D01*
Y471053D01*
X194356Y470797D01*
X136279Y412721D01*
X136058Y412390D01*
X135980Y412000D01*
Y310513D01*
X135725Y310407D01*
X135092Y309774D01*
X134750Y308948D01*
Y308052D01*
X135092Y307225D01*
X135725Y306592D01*
X136552Y306250D01*
X137448D01*
X138275Y306592D01*
X138908Y307225D01*
X139250Y308052D01*
Y308948D01*
X138908Y309774D01*
X138275Y310407D01*
X138020Y310513D01*
Y411578D01*
X195798Y469356D01*
X196052Y469250D01*
X196697D01*
X196904Y468750D01*
X142279Y414125D01*
X142058Y413794D01*
X141980Y413404D01*
Y310720D01*
X141226Y310407D01*
X140593Y309774D01*
X140250Y308948D01*
Y308052D01*
X140593Y307225D01*
X141226Y306592D01*
X142052Y306250D01*
X142948D01*
X143774Y306592D01*
X144407Y307225D01*
X144750Y308052D01*
Y308948D01*
X144407Y309774D01*
X144020Y310162D01*
Y412982D01*
X200471Y469433D01*
X200692Y469764D01*
X200770Y470154D01*
Y470828D01*
X201798Y471856D01*
X202052Y471750D01*
X202948D01*
X203774Y472092D01*
X204408Y472725D01*
X204750Y473553D01*
Y474447D01*
X204408Y475275D01*
X203774Y475908D01*
X202948Y476250D01*
D02*
G37*
G36*
X265448Y434250D02*
X264552D01*
X263725Y433908D01*
X263092Y433275D01*
X262989Y433025D01*
X203658D01*
X203274Y433407D01*
X202448Y433750D01*
X201552D01*
X200726Y433407D01*
X200093Y432774D01*
X200093Y432774D01*
X178000D01*
X177512Y432678D01*
X177099Y432401D01*
X167099Y422401D01*
X166823Y421988D01*
X166726Y421500D01*
Y404000D01*
X166823Y403512D01*
X167099Y403099D01*
X172250Y397948D01*
X172250Y397948D01*
Y397052D01*
X172592Y396226D01*
X173225Y395592D01*
X174052Y395250D01*
X174948D01*
X175775Y395592D01*
X176408Y396226D01*
X176750Y397052D01*
Y397948D01*
X176408Y398775D01*
X175775Y399408D01*
X174948Y399750D01*
X174052D01*
X174052Y399750D01*
X169274Y404528D01*
Y420972D01*
X178528Y430226D01*
X200093D01*
X200093Y430226D01*
X200726Y429593D01*
X201552Y429250D01*
X202448D01*
X203274Y429593D01*
X203907Y430226D01*
X204011Y430476D01*
X263342D01*
X263725Y430092D01*
X264552Y429750D01*
X265448D01*
X266274Y430092D01*
X266908Y430725D01*
X267250Y431553D01*
Y432447D01*
X266908Y433275D01*
X266274Y433908D01*
X265448Y434250D01*
D02*
G37*
G36*
X246448Y428250D02*
X245552D01*
X244725Y427908D01*
X244092Y427275D01*
X243750Y426447D01*
Y425553D01*
X243735Y425529D01*
X186653D01*
X186275Y425908D01*
X185448Y426250D01*
X184552D01*
X183726Y425908D01*
X183092Y425275D01*
X182750Y424447D01*
Y423553D01*
X183092Y422725D01*
X183726Y422092D01*
X184552Y421750D01*
X185448D01*
X186275Y422092D01*
X186653Y422471D01*
X245866D01*
X266250Y402087D01*
Y401552D01*
X266593Y400726D01*
X267226Y400093D01*
X268052Y399750D01*
X268948D01*
X269775Y400093D01*
X270408Y400726D01*
X270750Y401552D01*
Y402448D01*
X270408Y403274D01*
X269775Y403907D01*
X268948Y404250D01*
X268413D01*
X247916Y424747D01*
X248250Y425553D01*
Y426447D01*
X247907Y427275D01*
X247274Y427908D01*
X246448Y428250D01*
D02*
G37*
G36*
X477352Y423421D02*
X476888D01*
Y418250D01*
X482059D01*
Y418714D01*
X481690Y420092D01*
X480976Y421329D01*
X479966Y422338D01*
X478730Y423052D01*
X477352Y423421D01*
D02*
G37*
G36*
X476388D02*
X475924D01*
X474545Y423052D01*
X473309Y422338D01*
X472300Y421329D01*
X471586Y420092D01*
X471216Y418714D01*
Y418250D01*
X476388D01*
Y423421D01*
D02*
G37*
G36*
X567903D02*
X566475D01*
X565097Y423052D01*
X563860Y422338D01*
X562851Y421329D01*
X562137Y420092D01*
X561768Y418714D01*
Y417286D01*
X562137Y415907D01*
X562851Y414671D01*
X563860Y413662D01*
X565097Y412948D01*
X566475Y412579D01*
X567903D01*
X569281Y412948D01*
X570518Y413662D01*
X571527Y414671D01*
X572241Y415907D01*
X572610Y417286D01*
Y418714D01*
X572241Y420092D01*
X571527Y421329D01*
X570518Y422338D01*
X569281Y423052D01*
X567903Y423421D01*
D02*
G37*
G36*
X545265D02*
X543837D01*
X542459Y423052D01*
X541222Y422338D01*
X540213Y421329D01*
X539499Y420092D01*
X539130Y418714D01*
Y417286D01*
X539499Y415907D01*
X540213Y414671D01*
X541222Y413662D01*
X542459Y412948D01*
X543837Y412579D01*
X545265D01*
X546644Y412948D01*
X547880Y413662D01*
X548889Y414671D01*
X549603Y415907D01*
X549972Y417286D01*
Y418714D01*
X549603Y420092D01*
X548889Y421329D01*
X547880Y422338D01*
X546644Y423052D01*
X545265Y423421D01*
D02*
G37*
G36*
X522627D02*
X521200D01*
X519821Y423052D01*
X518585Y422338D01*
X517575Y421329D01*
X516862Y420092D01*
X516492Y418714D01*
Y417286D01*
X516862Y415907D01*
X517575Y414671D01*
X518585Y413662D01*
X519821Y412948D01*
X521200Y412579D01*
X522627D01*
X524006Y412948D01*
X525242Y413662D01*
X526252Y414671D01*
X526965Y415907D01*
X527335Y417286D01*
Y418714D01*
X526965Y420092D01*
X526252Y421329D01*
X525242Y422338D01*
X524006Y423052D01*
X522627Y423421D01*
D02*
G37*
G36*
X499989D02*
X498562D01*
X497183Y423052D01*
X495947Y422338D01*
X494938Y421329D01*
X494224Y420092D01*
X493854Y418714D01*
Y417286D01*
X494224Y415907D01*
X494938Y414671D01*
X495947Y413662D01*
X497183Y412948D01*
X498562Y412579D01*
X499989D01*
X501368Y412948D01*
X502604Y413662D01*
X503614Y414671D01*
X504327Y415907D01*
X504697Y417286D01*
Y418714D01*
X504327Y420092D01*
X503614Y421329D01*
X502604Y422338D01*
X501368Y423052D01*
X499989Y423421D01*
D02*
G37*
G36*
X482059Y417750D02*
X476888D01*
Y412579D01*
X477352D01*
X478730Y412948D01*
X479966Y413662D01*
X480976Y414671D01*
X481690Y415907D01*
X482059Y417286D01*
Y417750D01*
D02*
G37*
G36*
X476388D02*
X471216D01*
Y417286D01*
X471586Y415907D01*
X472300Y414671D01*
X473309Y413662D01*
X474545Y412948D01*
X475924Y412579D01*
X476388D01*
Y417750D01*
D02*
G37*
G36*
X454714Y423421D02*
X453286D01*
X451907Y423052D01*
X450671Y422338D01*
X449662Y421329D01*
X448948Y420092D01*
X448579Y418714D01*
Y417286D01*
X448948Y415907D01*
X449662Y414671D01*
X450671Y413662D01*
X451907Y412948D01*
X453286Y412579D01*
X454714D01*
X456093Y412948D01*
X457329Y413662D01*
X458338Y414671D01*
X459052Y415907D01*
X459421Y417286D01*
Y418714D01*
X459052Y420092D01*
X458338Y421329D01*
X457329Y422338D01*
X456093Y423052D01*
X454714Y423421D01*
D02*
G37*
G36*
X220448Y461250D02*
X219552D01*
X218725Y460908D01*
X218092Y460275D01*
X217750Y459447D01*
Y458553D01*
X218092Y457725D01*
X218725Y457093D01*
X219552Y456750D01*
X220448D01*
X220448Y456750D01*
X232599Y444599D01*
X233012Y444322D01*
X233500Y444226D01*
X290092D01*
X290092Y444226D01*
X290725Y443593D01*
X290725Y443593D01*
Y371408D01*
X290725Y371408D01*
X290092Y370775D01*
X289750Y369948D01*
Y369052D01*
X290092Y368226D01*
X290725Y367593D01*
X291552Y367250D01*
X292448D01*
X293274Y367593D01*
X293907Y368226D01*
X293907Y368226D01*
X300500D01*
X300988Y368322D01*
X301401Y368599D01*
X306552Y373750D01*
X306552Y373750D01*
X307448D01*
X308275Y374093D01*
X308908Y374726D01*
X309250Y375552D01*
Y376448D01*
X308908Y377274D01*
X308275Y377907D01*
X307448Y378250D01*
X306552D01*
X305726Y377907D01*
X305093Y377274D01*
X304750Y376448D01*
Y375552D01*
X304750Y375552D01*
X299972Y370775D01*
X293907D01*
X293907Y370775D01*
X293274Y371408D01*
X293274Y371408D01*
Y443593D01*
X293274Y443593D01*
X293907Y444226D01*
X294250Y445052D01*
Y445948D01*
X293907Y446774D01*
X293274Y447407D01*
X292448Y447750D01*
X291552D01*
X290725Y447407D01*
X290092Y446774D01*
X290092Y446774D01*
X234028D01*
X222250Y458552D01*
X222250Y458553D01*
Y459447D01*
X221907Y460275D01*
X221274Y460908D01*
X220448Y461250D01*
D02*
G37*
G36*
X148455Y333953D02*
X148250D01*
Y330750D01*
X151453D01*
Y330955D01*
X151217Y331833D01*
X150763Y332620D01*
X150120Y333263D01*
X149333Y333717D01*
X148455Y333953D01*
D02*
G37*
G36*
X147750D02*
X147545D01*
X146667Y333717D01*
X145880Y333263D01*
X145237Y332620D01*
X144782Y331833D01*
X144547Y330955D01*
Y330750D01*
X147750D01*
Y333953D01*
D02*
G37*
G36*
X168455D02*
X167545D01*
X166667Y333717D01*
X165880Y333263D01*
X165237Y332620D01*
X164783Y331833D01*
X164547Y330955D01*
Y330045D01*
X164783Y329167D01*
X165237Y328380D01*
X165880Y327737D01*
X166667Y327283D01*
X167545Y327047D01*
X168455D01*
X169333Y327283D01*
X170120Y327737D01*
X170763Y328380D01*
X171218Y329167D01*
X171453Y330045D01*
Y330955D01*
X171218Y331833D01*
X170763Y332620D01*
X170120Y333263D01*
X169333Y333717D01*
X168455Y333953D01*
D02*
G37*
G36*
X158455D02*
X157545D01*
X156667Y333717D01*
X155880Y333263D01*
X155237Y332620D01*
X154782Y331833D01*
X154547Y330955D01*
Y330045D01*
X154782Y329167D01*
X155237Y328380D01*
X155880Y327737D01*
X156667Y327283D01*
X157545Y327047D01*
X158455D01*
X159333Y327283D01*
X160120Y327737D01*
X160763Y328380D01*
X161217Y329167D01*
X161453Y330045D01*
Y330955D01*
X161217Y331833D01*
X160763Y332620D01*
X160120Y333263D01*
X159333Y333717D01*
X158455Y333953D01*
D02*
G37*
G36*
X151453Y330250D02*
X148250D01*
Y327047D01*
X148455D01*
X149333Y327283D01*
X150120Y327737D01*
X150763Y328380D01*
X151217Y329167D01*
X151453Y330045D01*
Y330250D01*
D02*
G37*
G36*
X147750D02*
X144547D01*
Y330045D01*
X144782Y329167D01*
X145237Y328380D01*
X145880Y327737D01*
X146667Y327283D01*
X147545Y327047D01*
X147750D01*
Y330250D01*
D02*
G37*
G36*
X181453Y333953D02*
X174547D01*
Y329210D01*
X171966Y326629D01*
X171634Y326132D01*
X171518Y325547D01*
Y322312D01*
X171018Y322178D01*
X170763Y322620D01*
X170120Y323263D01*
X169333Y323717D01*
X168455Y323953D01*
X167545D01*
X166667Y323717D01*
X165880Y323263D01*
X165237Y322620D01*
X164783Y321833D01*
X164547Y320955D01*
Y320045D01*
X164783Y319167D01*
X165237Y318380D01*
X165880Y317737D01*
X166667Y317283D01*
X167545Y317047D01*
X168455D01*
X168765Y317130D01*
X169023Y316682D01*
X157871Y305529D01*
X154500D01*
X153915Y305413D01*
X153419Y305081D01*
X136419Y288081D01*
X136087Y287585D01*
X135971Y287000D01*
Y241653D01*
X135592Y241274D01*
X135250Y240448D01*
Y239552D01*
X135592Y238725D01*
X135971Y238347D01*
Y178500D01*
X136087Y177915D01*
X136419Y177419D01*
X169419Y144419D01*
X169915Y144087D01*
X170500Y143971D01*
X180255D01*
X180840Y144087D01*
X181336Y144419D01*
X181393Y144475D01*
X184352D01*
X184730Y144097D01*
X185557Y143755D01*
X186452D01*
X186973Y143971D01*
X266000D01*
X266351Y144041D01*
X267052Y143750D01*
X267948D01*
X268775Y144093D01*
X269408Y144726D01*
X269750Y145552D01*
Y146448D01*
X269408Y147274D01*
X268775Y147907D01*
X267948Y148250D01*
X267052D01*
X266226Y147907D01*
X265593Y147274D01*
X265548Y147168D01*
X265419Y147081D01*
X265367Y147029D01*
X188016D01*
X187912Y147279D01*
X187279Y147912D01*
X186452Y148255D01*
X185557D01*
X184730Y147912D01*
X184352Y147534D01*
X180760D01*
X180175Y147418D01*
X179678Y147086D01*
X179621Y147029D01*
X171133D01*
X139029Y179133D01*
Y238347D01*
X139408Y238725D01*
X139750Y239552D01*
Y240448D01*
X139408Y241274D01*
X139029Y241653D01*
Y286367D01*
X155133Y302471D01*
X158504D01*
X159090Y302587D01*
X159586Y302919D01*
X174129Y317461D01*
X174460Y317958D01*
X174574Y318529D01*
X174608Y318550D01*
X175077Y318658D01*
X175237Y318380D01*
X175880Y317737D01*
X176667Y317283D01*
X177545Y317047D01*
X178455D01*
X179333Y317283D01*
X180120Y317737D01*
X180763Y318380D01*
X181218Y319167D01*
X181453Y320045D01*
Y320955D01*
X181218Y321833D01*
X180763Y322620D01*
X180120Y323263D01*
X179333Y323717D01*
X178455Y323953D01*
X177545D01*
X176667Y323717D01*
X175880Y323263D01*
X175237Y322620D01*
X175077Y322342D01*
X174577Y322476D01*
Y324914D01*
X176710Y327047D01*
X179290D01*
X186419Y319919D01*
X186915Y319587D01*
X187500Y319471D01*
X210347D01*
X210725Y319092D01*
X211552Y318750D01*
X212448D01*
X213275Y319092D01*
X213908Y319725D01*
X214250Y320552D01*
Y321448D01*
X213908Y322274D01*
X213275Y322907D01*
X212448Y323250D01*
X211552D01*
X210725Y322907D01*
X210347Y322529D01*
X188134D01*
X181453Y329210D01*
Y333953D01*
D02*
G37*
G36*
X158455Y323953D02*
X157545D01*
X156667Y323717D01*
X155880Y323263D01*
X155237Y322620D01*
X154782Y321833D01*
X154547Y320955D01*
Y320045D01*
X154782Y319167D01*
X155237Y318380D01*
X155880Y317737D01*
X156667Y317283D01*
X157545Y317047D01*
X158455D01*
X159333Y317283D01*
X160120Y317737D01*
X160763Y318380D01*
X161217Y319167D01*
X161453Y320045D01*
Y320955D01*
X161217Y321833D01*
X160763Y322620D01*
X160120Y323263D01*
X159333Y323717D01*
X158455Y323953D01*
D02*
G37*
G36*
X148455D02*
X147545D01*
X146667Y323717D01*
X145880Y323263D01*
X145237Y322620D01*
X144782Y321833D01*
X144547Y320955D01*
Y320045D01*
X144782Y319167D01*
X145237Y318380D01*
X145880Y317737D01*
X146667Y317283D01*
X147545Y317047D01*
X148455D01*
X149333Y317283D01*
X150120Y317737D01*
X150763Y318380D01*
X151217Y319167D01*
X151453Y320045D01*
Y320955D01*
X151217Y321833D01*
X150763Y322620D01*
X150120Y323263D01*
X149333Y323717D01*
X148455Y323953D01*
D02*
G37*
G36*
X515947Y483250D02*
X515053D01*
X514225Y482907D01*
X513592Y482274D01*
X513250Y481448D01*
Y480552D01*
X513592Y479726D01*
X514225Y479093D01*
X514480Y478987D01*
Y476422D01*
X495578Y457520D01*
X458500D01*
X458110Y457442D01*
X457779Y457221D01*
X352779Y352221D01*
X352558Y351890D01*
X352480Y351500D01*
Y312997D01*
X352112Y312699D01*
X351676Y312886D01*
Y353235D01*
X460721Y462279D01*
X460942Y462610D01*
X461020Y463000D01*
Y478487D01*
X461274Y478592D01*
X461907Y479225D01*
X462250Y480053D01*
Y480947D01*
X461907Y481775D01*
X461274Y482408D01*
X460448Y482750D01*
X459552D01*
X458726Y482408D01*
X458092Y481775D01*
X457750Y480947D01*
Y480053D01*
X458092Y479225D01*
X458726Y478592D01*
X458980Y478487D01*
Y463422D01*
X349936Y354378D01*
X349715Y354047D01*
X349637Y353657D01*
Y313312D01*
X349520Y313233D01*
X349020Y313500D01*
Y355078D01*
X434721Y440779D01*
X434942Y441110D01*
X435020Y441500D01*
Y478487D01*
X435275Y478592D01*
X435908Y479225D01*
X436250Y480053D01*
Y480947D01*
X435908Y481775D01*
X435275Y482408D01*
X434447Y482750D01*
X433553D01*
X432725Y482408D01*
X432093Y481775D01*
X431750Y480947D01*
Y480053D01*
X432093Y479225D01*
X432725Y478592D01*
X432980Y478487D01*
Y441922D01*
X347279Y356221D01*
X347058Y355890D01*
X346980Y355500D01*
Y313109D01*
X331020Y297148D01*
X330520Y297355D01*
Y400487D01*
X330774Y400593D01*
X331407Y401226D01*
X331750Y402052D01*
Y402948D01*
X331407Y403774D01*
X330774Y404408D01*
X329948Y404750D01*
X329052D01*
X328225Y404408D01*
X327592Y403774D01*
X327250Y402948D01*
Y402052D01*
X327592Y401226D01*
X328225Y400593D01*
X328480Y400487D01*
Y297437D01*
X326020Y294976D01*
X325520Y295183D01*
Y400487D01*
X325775Y400593D01*
X326408Y401226D01*
X326750Y402052D01*
Y402948D01*
X326408Y403774D01*
X325775Y404408D01*
X324948Y404750D01*
X324052D01*
X323225Y404408D01*
X322592Y403774D01*
X322250Y402948D01*
Y402052D01*
X322592Y401226D01*
X323225Y400593D01*
X323480Y400487D01*
Y295266D01*
X321020Y292805D01*
X320520Y293012D01*
Y400487D01*
X320775Y400593D01*
X321408Y401226D01*
X321750Y402052D01*
Y402948D01*
X321408Y403774D01*
X320775Y404408D01*
X319948Y404750D01*
X319052D01*
X318226Y404408D01*
X317593Y403774D01*
X317250Y402948D01*
Y402052D01*
X317593Y401226D01*
X318226Y400593D01*
X318480Y400487D01*
Y293094D01*
X316020Y290633D01*
X315520Y290840D01*
Y400487D01*
X315774Y400593D01*
X316407Y401226D01*
X316750Y402052D01*
Y402948D01*
X316407Y403774D01*
X315774Y404408D01*
X314948Y404750D01*
X314052D01*
X313226Y404408D01*
X312593Y403774D01*
X312250Y402948D01*
Y402052D01*
X312593Y401226D01*
X313226Y400593D01*
X313480Y400487D01*
Y290922D01*
X242078Y219520D01*
X193922D01*
X190721Y222721D01*
X190390Y222942D01*
X190000Y223020D01*
X169013D01*
X168907Y223274D01*
X168274Y223907D01*
X167448Y224250D01*
X166552D01*
X165726Y223907D01*
X165093Y223274D01*
X164750Y222448D01*
Y221552D01*
X165093Y220725D01*
X165726Y220093D01*
X166552Y219750D01*
X167448D01*
X168274Y220093D01*
X168907Y220725D01*
X169013Y220980D01*
X189578D01*
X191039Y219520D01*
X190831Y219020D01*
X184513D01*
X184407Y219274D01*
X183774Y219907D01*
X182948Y220250D01*
X182052D01*
X181226Y219907D01*
X180593Y219274D01*
X180250Y218448D01*
Y217552D01*
X180593Y216725D01*
X181226Y216092D01*
X182052Y215750D01*
X182948D01*
X183774Y216092D01*
X184407Y216725D01*
X184513Y216980D01*
X190749D01*
X191951Y215779D01*
X192281Y215558D01*
X192672Y215480D01*
X242988D01*
X243195Y214980D01*
X242735Y214520D01*
X174513D01*
X174407Y214774D01*
X173775Y215407D01*
X172948Y215750D01*
X172052D01*
X171226Y215407D01*
X170592Y214774D01*
X170250Y213948D01*
Y213052D01*
X170592Y212226D01*
X171226Y211593D01*
X172052Y211250D01*
X172948D01*
X173775Y211593D01*
X174407Y212226D01*
X174513Y212480D01*
X176302D01*
X176402Y211980D01*
X176225Y211908D01*
X175593Y211275D01*
X175250Y210448D01*
Y209552D01*
X175593Y208726D01*
X176225Y208092D01*
X177052Y207750D01*
X177948D01*
X178774Y208092D01*
X179408Y208726D01*
X179513Y208980D01*
X222831D01*
X223039Y208480D01*
X192702Y178144D01*
X192448Y178250D01*
X191552D01*
X190726Y177908D01*
X190093Y177275D01*
X189750Y176448D01*
Y175552D01*
X190093Y174725D01*
X190726Y174092D01*
X191552Y173750D01*
X192448D01*
X193274Y174092D01*
X193907Y174725D01*
X194250Y175552D01*
Y176448D01*
X194144Y176702D01*
X224422Y206980D01*
X242973D01*
X243181Y206480D01*
X208220Y171520D01*
X194013D01*
X193907Y171774D01*
X193274Y172407D01*
X192448Y172750D01*
X191552D01*
X190726Y172407D01*
X190093Y171774D01*
X189750Y170948D01*
Y170052D01*
X190093Y169226D01*
X190726Y168593D01*
X191552Y168250D01*
X192448D01*
X193274Y168593D01*
X193907Y169226D01*
X194013Y169480D01*
X208642D01*
X209032Y169558D01*
X209363Y169779D01*
X347480Y307896D01*
X347980Y307689D01*
Y304513D01*
X347726Y304408D01*
X347093Y303774D01*
X346750Y302948D01*
Y302052D01*
X347093Y301225D01*
X347726Y300592D01*
X348552Y300250D01*
X349448D01*
X350274Y300592D01*
X350907Y301225D01*
X351250Y302052D01*
Y302948D01*
X350907Y303774D01*
X350274Y304408D01*
X350020Y304513D01*
Y307607D01*
X354221Y311808D01*
X354442Y312139D01*
X354520Y312529D01*
Y351078D01*
X458922Y455480D01*
X496000D01*
X496390Y455558D01*
X496721Y455779D01*
X516221Y475279D01*
X516442Y475610D01*
X516520Y476000D01*
Y478987D01*
X516775Y479093D01*
X517408Y479726D01*
X517750Y480552D01*
Y481448D01*
X517408Y482274D01*
X516775Y482907D01*
X515947Y483250D01*
D02*
G37*
G36*
X280948Y305250D02*
X280052D01*
X279225Y304907D01*
X278592Y304275D01*
X278487Y304020D01*
X260513D01*
X260407Y304275D01*
X259774Y304907D01*
X258948Y305250D01*
X258052D01*
X257225Y304907D01*
X256592Y304275D01*
X256250Y303448D01*
Y302552D01*
X256592Y301726D01*
X257225Y301093D01*
X258052Y300750D01*
X258948D01*
X259774Y301093D01*
X260407Y301726D01*
X260513Y301980D01*
X278487D01*
X278592Y301726D01*
X279225Y301093D01*
X280052Y300750D01*
X280948D01*
X281774Y301093D01*
X282407Y301726D01*
X282750Y302552D01*
Y303448D01*
X282407Y304275D01*
X281774Y304907D01*
X280948Y305250D01*
D02*
G37*
G36*
X210948Y304750D02*
X210052D01*
X209226Y304408D01*
X208593Y303774D01*
X208487Y303520D01*
X187000D01*
X186610Y303442D01*
X186279Y303221D01*
X173203Y290144D01*
X172948Y290250D01*
X172052D01*
X171226Y289908D01*
X170592Y289275D01*
X170250Y288448D01*
Y287552D01*
X170592Y286725D01*
X171226Y286092D01*
X172052Y285750D01*
X172948D01*
X173775Y286092D01*
X174407Y286725D01*
X174750Y287552D01*
Y288448D01*
X174644Y288703D01*
X187422Y301480D01*
X208487D01*
X208593Y301225D01*
X209226Y300592D01*
X210052Y300250D01*
X210948D01*
X211774Y300592D01*
X212407Y301225D01*
X212750Y302052D01*
Y302948D01*
X212407Y303774D01*
X211774Y304408D01*
X210948Y304750D01*
D02*
G37*
G36*
X219448Y396250D02*
X218552D01*
X217725Y395907D01*
X217092Y395274D01*
X216750Y394448D01*
Y393552D01*
X217092Y392725D01*
X217725Y392092D01*
X217980Y391987D01*
Y294000D01*
X218058Y293610D01*
X218279Y293279D01*
X244445Y267113D01*
X244283Y266833D01*
X244047Y265955D01*
Y265045D01*
X244283Y264167D01*
X244445Y263886D01*
X241530Y260972D01*
X201953D01*
X201563Y260895D01*
X201232Y260674D01*
X189693Y249135D01*
X189472Y248804D01*
X189408Y248483D01*
X189225Y248408D01*
X188593Y247775D01*
X188250Y246948D01*
Y246052D01*
X188593Y245226D01*
X189225Y244592D01*
X190052Y244250D01*
X190948D01*
X191774Y244592D01*
X192408Y245226D01*
X192750Y246052D01*
Y246948D01*
X192408Y247775D01*
X191812Y248370D01*
X202375Y258933D01*
X234047D01*
Y253489D01*
X213870Y233312D01*
X213774Y233407D01*
X212948Y233750D01*
X212052D01*
X211226Y233407D01*
X210593Y232774D01*
X210250Y231948D01*
Y231052D01*
X210593Y230225D01*
X211226Y229592D01*
X212052Y229250D01*
X212948D01*
X213774Y229592D01*
X214407Y230225D01*
X214750Y231052D01*
Y231308D01*
X235489Y252047D01*
X240953D01*
Y258933D01*
X241953D01*
X242343Y259011D01*
X242674Y259232D01*
X245886Y262445D01*
X246167Y262282D01*
X247045Y262047D01*
X247955D01*
X248833Y262282D01*
X249620Y262737D01*
X250263Y263380D01*
X250717Y264167D01*
X250953Y265045D01*
Y265955D01*
X250717Y266833D01*
X250263Y267620D01*
X249620Y268263D01*
X248833Y268718D01*
X247955Y268953D01*
X247045D01*
X246167Y268718D01*
X245886Y268555D01*
X220020Y294422D01*
Y391987D01*
X220274Y392092D01*
X220788Y392606D01*
X221010Y392530D01*
X221250Y392361D01*
Y391552D01*
X221480Y390996D01*
Y298500D01*
X221480Y298500D01*
X221558Y298110D01*
X221779Y297779D01*
X250549Y269009D01*
X250549Y269009D01*
X251748Y267810D01*
Y263190D01*
X247718Y259160D01*
X247580Y258953D01*
X247045D01*
X246167Y258717D01*
X245380Y258263D01*
X244737Y257620D01*
X244283Y256833D01*
X244047Y255955D01*
Y255045D01*
X244283Y254167D01*
X244353Y254045D01*
X220879Y230571D01*
X220448Y230750D01*
X219552D01*
X218725Y230408D01*
X218092Y229774D01*
X217750Y228948D01*
Y228052D01*
X218092Y227225D01*
X218725Y226592D01*
X219552Y226250D01*
X220448D01*
X221274Y226592D01*
X221907Y227225D01*
X222250Y228052D01*
Y228948D01*
X222218Y229026D01*
X245728Y252536D01*
X246167Y252283D01*
X247045Y252047D01*
X247955D01*
X248833Y252283D01*
X249620Y252737D01*
X250263Y253380D01*
X250717Y254167D01*
X250953Y255045D01*
Y255955D01*
X250717Y256833D01*
X250263Y257620D01*
X249662Y258221D01*
X253489Y262047D01*
X253710Y262378D01*
X253787Y262768D01*
Y264084D01*
X254282Y264167D01*
X254737Y263380D01*
X255380Y262737D01*
X256167Y262282D01*
X257045Y262047D01*
X257250D01*
Y265500D01*
Y268953D01*
X257045D01*
X256167Y268718D01*
X255380Y268263D01*
X254737Y267620D01*
X254282Y266833D01*
X253787Y266916D01*
Y268232D01*
X253710Y268623D01*
X253489Y268953D01*
X251991Y270451D01*
X251991Y270451D01*
X223520Y298922D01*
Y389750D01*
X223948D01*
X224303Y389897D01*
X224560Y389687D01*
X224707Y389523D01*
Y388672D01*
X225049Y387845D01*
X225682Y387212D01*
X225937Y387106D01*
Y301495D01*
X225726Y301408D01*
X225093Y300775D01*
X224750Y299948D01*
Y299052D01*
X225093Y298225D01*
X225726Y297592D01*
X226552Y297250D01*
X227448D01*
X228274Y297592D01*
X228907Y298225D01*
X229250Y299052D01*
Y299948D01*
X228907Y300775D01*
X228274Y301408D01*
X227977Y301531D01*
Y387106D01*
X228232Y387212D01*
X228864Y387845D01*
X229207Y388672D01*
Y389567D01*
X228864Y390394D01*
X228232Y391027D01*
X227404Y391369D01*
X226509D01*
X226154Y391222D01*
X225897Y391432D01*
X225750Y391596D01*
Y392448D01*
X225408Y393274D01*
X224775Y393907D01*
X223948Y394250D01*
X223052D01*
X222225Y393907D01*
X221712Y393394D01*
X221490Y393470D01*
X221250Y393639D01*
Y394448D01*
X220907Y395274D01*
X220274Y395907D01*
X219448Y396250D01*
D02*
G37*
G36*
X152948Y289750D02*
X152052D01*
X151225Y289407D01*
X150593Y288774D01*
X150487Y288520D01*
X148904D01*
X148514Y288442D01*
X148183Y288221D01*
X144029Y284067D01*
X143808Y283736D01*
X143730Y283346D01*
Y209750D01*
X143808Y209360D01*
X144029Y209029D01*
X172356Y180702D01*
X172250Y180448D01*
Y179552D01*
X172592Y178726D01*
X173225Y178093D01*
X174052Y177750D01*
X174948D01*
X175775Y178093D01*
X176408Y178726D01*
X176750Y179552D01*
Y180448D01*
X176408Y181274D01*
X175775Y181907D01*
X174948Y182250D01*
X174052D01*
X173798Y182144D01*
X145770Y210172D01*
Y280341D01*
X146270Y280548D01*
X146725Y280093D01*
X146980Y279987D01*
Y211669D01*
X147058Y211279D01*
X147279Y210948D01*
X161374Y196853D01*
X161705Y196632D01*
X162095Y196554D01*
X163907D01*
X176342Y184119D01*
X176236Y183864D01*
Y182969D01*
X176579Y182142D01*
X177212Y181509D01*
X178039Y181167D01*
X178934D01*
X179761Y181509D01*
X180394Y182142D01*
X180736Y182969D01*
Y183864D01*
X180394Y184691D01*
X179761Y185324D01*
X178934Y185667D01*
X178039D01*
X177784Y185561D01*
X165050Y198295D01*
X164719Y198516D01*
X164329Y198593D01*
X162518D01*
X149020Y212092D01*
Y279987D01*
X149275Y280093D01*
X149908Y280726D01*
X150250Y281552D01*
Y282448D01*
X149908Y283275D01*
X149275Y283908D01*
X148448Y284250D01*
X147803D01*
X147596Y284750D01*
X149326Y286480D01*
X150487D01*
X150593Y286226D01*
X151225Y285593D01*
X152052Y285250D01*
X152948D01*
X153774Y285593D01*
X154408Y286226D01*
X154750Y287052D01*
Y287948D01*
X154408Y288774D01*
X153774Y289407D01*
X152948Y289750D01*
D02*
G37*
G36*
X192448Y289250D02*
X191552D01*
X190726Y288908D01*
X190093Y288275D01*
X189750Y287448D01*
Y286552D01*
X189856Y286297D01*
X184279Y280721D01*
X184058Y280390D01*
X183980Y280000D01*
Y259422D01*
X157279Y232721D01*
X157058Y232390D01*
X156980Y232000D01*
Y222000D01*
X157058Y221610D01*
X157279Y221279D01*
X173127Y205431D01*
Y205372D01*
X173058Y205268D01*
X172980Y204878D01*
Y202513D01*
X172725Y202408D01*
X172092Y201775D01*
X171750Y200948D01*
Y200052D01*
X172092Y199225D01*
X172725Y198592D01*
X173552Y198250D01*
X174448D01*
X175275Y198592D01*
X175908Y199225D01*
X176250Y200052D01*
Y200948D01*
X175908Y201775D01*
X175275Y202408D01*
X175020Y202513D01*
Y204531D01*
X175089Y204634D01*
X175167Y205025D01*
Y205853D01*
X175089Y206243D01*
X174868Y206574D01*
X159020Y222422D01*
Y231578D01*
X185721Y258279D01*
X185942Y258610D01*
X186020Y259000D01*
Y279578D01*
X191297Y284856D01*
X191552Y284750D01*
X192448D01*
X193274Y285092D01*
X193907Y285725D01*
X194250Y286552D01*
Y287448D01*
X193907Y288275D01*
X193274Y288908D01*
X192448Y289250D01*
D02*
G37*
G36*
X166010Y268724D02*
X165862D01*
Y266974D01*
X167612D01*
Y267122D01*
X167308Y267857D01*
X166745Y268420D01*
X166010Y268724D01*
D02*
G37*
G36*
X158786D02*
X158638D01*
Y266974D01*
X160388D01*
Y267122D01*
X160083Y267857D01*
X159521Y268420D01*
X158786Y268724D01*
D02*
G37*
G36*
X165362D02*
X165214D01*
X164479Y268420D01*
X163917Y267857D01*
X163612Y267122D01*
Y266974D01*
X165362D01*
Y268724D01*
D02*
G37*
G36*
X158138D02*
X157990D01*
X157255Y268420D01*
X156692Y267857D01*
X156388Y267122D01*
Y266974D01*
X158138D01*
Y268724D01*
D02*
G37*
G36*
X257955Y268953D02*
X257750D01*
Y265750D01*
X260953D01*
Y265955D01*
X260718Y266833D01*
X260263Y267620D01*
X259620Y268263D01*
X258833Y268718D01*
X257955Y268953D01*
D02*
G37*
G36*
X167612Y266474D02*
X165862D01*
Y264724D01*
X166010D01*
X166745Y265029D01*
X167308Y265592D01*
X167612Y266327D01*
Y266474D01*
D02*
G37*
G36*
X165362D02*
X163612D01*
Y266327D01*
X163917Y265592D01*
X164479Y265029D01*
X165214Y264724D01*
X165362D01*
Y266474D01*
D02*
G37*
G36*
X160388D02*
X158638D01*
Y264724D01*
X158786D01*
X159521Y265029D01*
X160083Y265592D01*
X160388Y266327D01*
Y266474D01*
D02*
G37*
G36*
X158138D02*
X156388D01*
Y266327D01*
X156692Y265592D01*
X157255Y265029D01*
X157990Y264724D01*
X158138D01*
Y266474D01*
D02*
G37*
G36*
X169622Y265112D02*
X169474D01*
Y263362D01*
X171224D01*
Y263510D01*
X170920Y264245D01*
X170357Y264808D01*
X169622Y265112D01*
D02*
G37*
G36*
X162398D02*
X162250D01*
Y263362D01*
X164000D01*
Y263510D01*
X163696Y264245D01*
X163133Y264808D01*
X162398Y265112D01*
D02*
G37*
G36*
X155173D02*
X155026D01*
Y263362D01*
X156776D01*
Y263510D01*
X156471Y264245D01*
X155909Y264808D01*
X155173Y265112D01*
D02*
G37*
G36*
X168974D02*
X168827D01*
X168091Y264808D01*
X167529Y264245D01*
X167224Y263510D01*
Y263362D01*
X168974D01*
Y265112D01*
D02*
G37*
G36*
X161750D02*
X161602D01*
X160867Y264808D01*
X160304Y264245D01*
X160000Y263510D01*
Y263362D01*
X161750D01*
Y265112D01*
D02*
G37*
G36*
X154526D02*
X154378D01*
X153643Y264808D01*
X153080Y264245D01*
X152776Y263510D01*
Y263362D01*
X154526D01*
Y265112D01*
D02*
G37*
G36*
X260953Y265250D02*
X257750D01*
Y262047D01*
X257955D01*
X258833Y262282D01*
X259620Y262737D01*
X260263Y263380D01*
X260718Y264167D01*
X260953Y265045D01*
Y265250D01*
D02*
G37*
G36*
X237955Y268953D02*
X237045D01*
X236167Y268718D01*
X235380Y268263D01*
X234737Y267620D01*
X234282Y266833D01*
X234047Y265955D01*
Y265045D01*
X234282Y264167D01*
X234737Y263380D01*
X235380Y262737D01*
X236167Y262282D01*
X237045Y262047D01*
X237955D01*
X238833Y262282D01*
X239620Y262737D01*
X240263Y263380D01*
X240718Y264167D01*
X240953Y265045D01*
Y265955D01*
X240718Y266833D01*
X240263Y267620D01*
X239620Y268263D01*
X238833Y268718D01*
X237955Y268953D01*
D02*
G37*
G36*
X171224Y262862D02*
X169474D01*
Y261112D01*
X169622D01*
X170357Y261417D01*
X170920Y261979D01*
X171224Y262714D01*
Y262862D01*
D02*
G37*
G36*
X168974D02*
X167224D01*
Y262714D01*
X167529Y261979D01*
X168091Y261417D01*
X168827Y261112D01*
X168974D01*
Y262862D01*
D02*
G37*
G36*
X164000D02*
X162250D01*
Y261112D01*
X162398D01*
X163133Y261417D01*
X163696Y261979D01*
X164000Y262714D01*
Y262862D01*
D02*
G37*
G36*
X161750D02*
X160000D01*
Y262714D01*
X160304Y261979D01*
X160867Y261417D01*
X161602Y261112D01*
X161750D01*
Y262862D01*
D02*
G37*
G36*
X156776D02*
X155026D01*
Y261112D01*
X155173D01*
X155909Y261417D01*
X156471Y261979D01*
X156776Y262714D01*
Y262862D01*
D02*
G37*
G36*
X154526D02*
X152776D01*
Y262714D01*
X153080Y261979D01*
X153643Y261417D01*
X154378Y261112D01*
X154526D01*
Y262862D01*
D02*
G37*
G36*
X166010Y261500D02*
X165862D01*
Y259750D01*
X167612D01*
Y259898D01*
X167308Y260633D01*
X166745Y261195D01*
X166010Y261500D01*
D02*
G37*
G36*
X158786D02*
X158638D01*
Y259750D01*
X160388D01*
Y259898D01*
X160083Y260633D01*
X159521Y261195D01*
X158786Y261500D01*
D02*
G37*
G36*
X165362D02*
X165214D01*
X164479Y261195D01*
X163917Y260633D01*
X163612Y259898D01*
Y259750D01*
X165362D01*
Y261500D01*
D02*
G37*
G36*
X158138D02*
X157990D01*
X157255Y261195D01*
X156692Y260633D01*
X156388Y259898D01*
Y259750D01*
X158138D01*
Y261500D01*
D02*
G37*
G36*
X167612Y259250D02*
X165862D01*
Y257500D01*
X166010D01*
X166745Y257804D01*
X167308Y258367D01*
X167612Y259102D01*
Y259250D01*
D02*
G37*
G36*
X165362D02*
X163612D01*
Y259102D01*
X163917Y258367D01*
X164479Y257804D01*
X165214Y257500D01*
X165362D01*
Y259250D01*
D02*
G37*
G36*
X160388D02*
X158638D01*
Y257500D01*
X158786D01*
X159521Y257804D01*
X160083Y258367D01*
X160388Y259102D01*
Y259250D01*
D02*
G37*
G36*
X158138D02*
X156388D01*
Y259102D01*
X156692Y258367D01*
X157255Y257804D01*
X157990Y257500D01*
X158138D01*
Y259250D01*
D02*
G37*
G36*
X169622Y257888D02*
X169474D01*
Y256138D01*
X171224D01*
Y256286D01*
X170920Y257021D01*
X170357Y257583D01*
X169622Y257888D01*
D02*
G37*
G36*
X162398D02*
X162250D01*
Y256138D01*
X164000D01*
Y256286D01*
X163696Y257021D01*
X163133Y257583D01*
X162398Y257888D01*
D02*
G37*
G36*
X155173D02*
X155026D01*
Y256138D01*
X156776D01*
Y256286D01*
X156471Y257021D01*
X155909Y257583D01*
X155173Y257888D01*
D02*
G37*
G36*
X168974D02*
X168827D01*
X168091Y257583D01*
X167529Y257021D01*
X167224Y256286D01*
Y256138D01*
X168974D01*
Y257888D01*
D02*
G37*
G36*
X161750D02*
X161602D01*
X160867Y257583D01*
X160304Y257021D01*
X160000Y256286D01*
Y256138D01*
X161750D01*
Y257888D01*
D02*
G37*
G36*
X154526D02*
X154378D01*
X153643Y257583D01*
X153080Y257021D01*
X152776Y256286D01*
Y256138D01*
X154526D01*
Y257888D01*
D02*
G37*
G36*
X171224Y255638D02*
X169474D01*
Y253888D01*
X169622D01*
X170357Y254192D01*
X170920Y254755D01*
X171224Y255490D01*
Y255638D01*
D02*
G37*
G36*
X168974D02*
X167224D01*
Y255490D01*
X167529Y254755D01*
X168091Y254192D01*
X168827Y253888D01*
X168974D01*
Y255638D01*
D02*
G37*
G36*
X164000D02*
X162250D01*
Y253888D01*
X162398D01*
X163133Y254192D01*
X163696Y254755D01*
X164000Y255490D01*
Y255638D01*
D02*
G37*
G36*
X161750D02*
X160000D01*
Y255490D01*
X160304Y254755D01*
X160867Y254192D01*
X161602Y253888D01*
X161750D01*
Y255638D01*
D02*
G37*
G36*
X156776D02*
X155026D01*
Y253888D01*
X155173D01*
X155909Y254192D01*
X156471Y254755D01*
X156776Y255490D01*
Y255638D01*
D02*
G37*
G36*
X154526D02*
X152776D01*
Y255490D01*
X153080Y254755D01*
X153643Y254192D01*
X154378Y253888D01*
X154526D01*
Y255638D01*
D02*
G37*
G36*
X166010Y254276D02*
X165862D01*
Y252526D01*
X167612D01*
Y252673D01*
X167308Y253409D01*
X166745Y253971D01*
X166010Y254276D01*
D02*
G37*
G36*
X158786D02*
X158638D01*
Y252526D01*
X160388D01*
Y252673D01*
X160083Y253409D01*
X159521Y253971D01*
X158786Y254276D01*
D02*
G37*
G36*
X165362D02*
X165214D01*
X164479Y253971D01*
X163917Y253409D01*
X163612Y252673D01*
Y252526D01*
X165362D01*
Y254276D01*
D02*
G37*
G36*
X158138D02*
X157990D01*
X157255Y253971D01*
X156692Y253409D01*
X156388Y252673D01*
Y252526D01*
X158138D01*
Y254276D01*
D02*
G37*
G36*
X257955Y258953D02*
X257045D01*
X256167Y258717D01*
X255380Y258263D01*
X254737Y257620D01*
X254282Y256833D01*
X254047Y255955D01*
Y255045D01*
X254282Y254167D01*
X254737Y253380D01*
X255380Y252737D01*
X256167Y252283D01*
X257045Y252047D01*
X257955D01*
X258833Y252283D01*
X259620Y252737D01*
X260263Y253380D01*
X260718Y254167D01*
X260953Y255045D01*
Y255955D01*
X260718Y256833D01*
X260263Y257620D01*
X259620Y258263D01*
X258833Y258717D01*
X257955Y258953D01*
D02*
G37*
G36*
X167612Y252026D02*
X165862D01*
Y250276D01*
X166010D01*
X166745Y250580D01*
X167308Y251143D01*
X167612Y251878D01*
Y252026D01*
D02*
G37*
G36*
X165362D02*
X163612D01*
Y251878D01*
X163917Y251143D01*
X164479Y250580D01*
X165214Y250276D01*
X165362D01*
Y252026D01*
D02*
G37*
G36*
X160388D02*
X158638D01*
Y250276D01*
X158786D01*
X159521Y250580D01*
X160083Y251143D01*
X160388Y251878D01*
Y252026D01*
D02*
G37*
G36*
X158138D02*
X156388D01*
Y251878D01*
X156692Y251143D01*
X157255Y250580D01*
X157990Y250276D01*
X158138D01*
Y252026D01*
D02*
G37*
G36*
X265134Y175407D02*
X256866D01*
X256483Y175249D01*
X256325Y174866D01*
Y167258D01*
X250410D01*
X250027Y167099D01*
X249868Y166717D01*
Y157661D01*
X250027Y157279D01*
X250410Y157120D01*
X284661D01*
X285044Y157279D01*
X285203Y157661D01*
Y166717D01*
X285044Y167099D01*
X284661Y167258D01*
X265675D01*
Y174866D01*
X265517Y175249D01*
X265134Y175407D01*
D02*
G37*
G36*
X183857Y141854D02*
X182985D01*
X182143Y141629D01*
X181388Y141193D01*
X180772Y140576D01*
X180336Y139821D01*
X180110Y138979D01*
Y138108D01*
X180336Y137265D01*
X180772Y136510D01*
X181388Y135894D01*
X182143Y135458D01*
X182985Y135232D01*
X183857D01*
X184699Y135458D01*
X185454Y135894D01*
X186071Y136510D01*
X186507Y137265D01*
X186732Y138108D01*
Y138979D01*
X186507Y139821D01*
X186071Y140576D01*
X185454Y141193D01*
X184699Y141629D01*
X183857Y141854D01*
D02*
G37*
G36*
X174015D02*
X173143D01*
X172301Y141629D01*
X171546Y141193D01*
X170929Y140576D01*
X170493Y139821D01*
X170268Y138979D01*
Y138108D01*
X170493Y137265D01*
X170929Y136510D01*
X171546Y135894D01*
X172301Y135458D01*
X173143Y135232D01*
X174015D01*
X174857Y135458D01*
X175612Y135894D01*
X176228Y136510D01*
X176664Y137265D01*
X176890Y138108D01*
Y138979D01*
X176664Y139821D01*
X176228Y140576D01*
X175612Y141193D01*
X174857Y141629D01*
X174015Y141854D01*
D02*
G37*
G36*
X183857Y133980D02*
X183671D01*
Y130919D01*
X186732D01*
Y131105D01*
X186507Y131947D01*
X186071Y132702D01*
X185454Y133319D01*
X184699Y133755D01*
X183857Y133980D01*
D02*
G37*
G36*
X183171D02*
X182985D01*
X182143Y133755D01*
X181388Y133319D01*
X180772Y132702D01*
X180336Y131947D01*
X180110Y131105D01*
Y130919D01*
X183171D01*
Y133980D01*
D02*
G37*
G36*
X186732Y130419D02*
X183671D01*
Y127358D01*
X183857D01*
X184699Y127584D01*
X185454Y128020D01*
X186071Y128636D01*
X186507Y129391D01*
X186732Y130233D01*
Y130419D01*
D02*
G37*
G36*
X183171D02*
X180110D01*
Y130233D01*
X180336Y129391D01*
X180772Y128636D01*
X181388Y128020D01*
X182143Y127584D01*
X182985Y127358D01*
X183171D01*
Y130419D01*
D02*
G37*
G36*
X174015Y133980D02*
X173143D01*
X172301Y133755D01*
X171546Y133319D01*
X170929Y132702D01*
X170493Y131947D01*
X170268Y131105D01*
Y130233D01*
X170493Y129391D01*
X170929Y128636D01*
X171546Y128020D01*
X172301Y127584D01*
X173143Y127358D01*
X174015D01*
X174857Y127584D01*
X175612Y128020D01*
X176228Y128636D01*
X176664Y129391D01*
X176890Y130233D01*
Y131105D01*
X176664Y131947D01*
X176228Y132702D01*
X175612Y133319D01*
X174857Y133755D01*
X174015Y133980D01*
D02*
G37*
G36*
X202926Y125512D02*
X201475D01*
X200073Y125136D01*
X198817Y124410D01*
X197790Y123384D01*
X197065Y122127D01*
X196689Y120726D01*
Y119274D01*
X197065Y117873D01*
X197790Y116616D01*
X198817Y115589D01*
X200073Y114864D01*
X201475Y114488D01*
X202926D01*
X204328Y114864D01*
X205585Y115589D01*
X206611Y116616D01*
X207337Y117873D01*
X207713Y119274D01*
Y120726D01*
X207337Y122127D01*
X206611Y123384D01*
X205585Y124410D01*
X204328Y125136D01*
X202926Y125512D01*
D02*
G37*
G36*
X155525D02*
X154074D01*
X152672Y125136D01*
X151415Y124410D01*
X150389Y123384D01*
X149663Y122127D01*
X149287Y120726D01*
Y119274D01*
X149663Y117873D01*
X150389Y116616D01*
X151415Y115589D01*
X152672Y114864D01*
X154074Y114488D01*
X155525D01*
X156927Y114864D01*
X158184Y115589D01*
X159210Y116616D01*
X159935Y117873D01*
X160311Y119274D01*
Y120726D01*
X159935Y122127D01*
X159210Y123384D01*
X158184Y124410D01*
X156927Y125136D01*
X155525Y125512D01*
D02*
G37*
%LPD*%
G36*
X243024Y211980D02*
X242063Y211020D01*
X179513D01*
X179408Y211275D01*
X178774Y211908D01*
X178598Y211980D01*
X178698Y212480D01*
X242817D01*
X243024Y211980D01*
D02*
G37*
D15*
X314500Y290500D02*
Y402500D01*
X242500Y218500D02*
X314500Y290500D01*
X258500Y303000D02*
X280500D01*
X226957Y299543D02*
Y389119D01*
Y299543D02*
X227000Y299500D01*
X251270Y269730D02*
X252768Y268232D01*
X251270Y269730D02*
X251270D01*
X219000Y294000D02*
Y394000D01*
X222500Y298500D02*
Y391000D01*
X222500Y298500D02*
X251270Y269730D01*
X219000Y294000D02*
X247500Y265500D01*
X252768Y266115D02*
Y268232D01*
X222500Y391000D02*
X223500Y392000D01*
X192000Y170500D02*
X208642D01*
X144750Y209750D02*
Y283346D01*
X148904Y287500D01*
X148000Y211669D02*
Y282000D01*
X148904Y287500D02*
X152500D01*
X144750Y209750D02*
X174500Y180000D01*
X148000Y211669D02*
X162095Y197574D01*
X496000Y456500D02*
X515500Y476000D01*
Y481000D01*
X458500Y456500D02*
X496000D01*
X353500Y351500D02*
X458500Y456500D01*
X353500Y312529D02*
Y351500D01*
X349000Y302500D02*
Y308030D01*
X353500Y312529D01*
X208642Y170500D02*
X350657Y312515D01*
Y353657D01*
X224000Y208000D02*
X243314D01*
X348000Y312686D01*
Y355500D01*
X434000Y441500D01*
X350657Y353657D02*
X460000Y463000D01*
X187000Y302500D02*
X210500D01*
X172500Y288000D02*
X187000Y302500D01*
X434000Y441500D02*
Y480500D01*
X460000Y463000D02*
Y480500D01*
X192000Y176000D02*
X224000Y208000D01*
X172500Y213500D02*
X243157D01*
X319500Y292672D02*
Y402500D01*
X192672Y216500D02*
X243328D01*
X243157Y213500D02*
X324500Y294843D01*
X243328Y216500D02*
X319500Y292672D01*
X193500Y218500D02*
X242500D01*
X324500Y294843D02*
Y402500D01*
X177500Y210000D02*
X242485D01*
X329500Y297015D01*
Y402500D01*
X191172Y218000D02*
X192672Y216500D01*
X182500Y218000D02*
X191172D01*
X190000Y222000D02*
X193500Y218500D01*
X174000Y200500D02*
Y204878D01*
X174147Y205025D01*
X158000Y222000D02*
Y232000D01*
Y222000D02*
X174147Y205853D01*
Y205025D02*
Y205853D01*
X167000Y222000D02*
X190000D01*
X220000Y228500D02*
X220250D01*
X248189Y256439D01*
X248439D01*
Y258439D01*
X213978Y231978D02*
X237500Y255500D01*
X212978Y231978D02*
X213978D01*
X212500Y231500D02*
X212978Y231978D01*
X158000Y232000D02*
X185000Y259000D01*
Y280000D01*
X137000Y308500D02*
Y412000D01*
X196500Y471500D01*
X199750Y470154D02*
Y471250D01*
X143000Y413404D02*
X199750Y470154D01*
Y471250D02*
X202500Y474000D01*
X143000Y309000D02*
Y413404D01*
X142500Y308500D02*
X143000Y309000D01*
X248439Y258439D02*
X252768Y262768D01*
Y266115D01*
X241953Y259953D02*
X247500Y265500D01*
X201953Y259953D02*
X241953D01*
X190414Y246586D02*
Y248414D01*
X201953Y259953D01*
X190414Y246586D02*
X190500Y246500D01*
X164329Y197574D02*
X178486Y183417D01*
X162095Y197574D02*
X164329D01*
X185000Y280000D02*
X192000Y287000D01*
D81*
X180760Y146005D02*
X186005D01*
X170500Y145500D02*
X180255D01*
X180760Y146005D01*
X266000Y145500D02*
X266500Y146000D01*
X267500D01*
X185500Y145500D02*
X266000D01*
X137500Y178500D02*
X170500Y145500D01*
X137500Y178500D02*
Y240000D01*
Y287000D01*
X154500Y304000D01*
X173047Y318543D02*
Y325547D01*
X178000Y330500D01*
X158504Y304000D02*
X173047Y318543D01*
X154500Y304000D02*
X158504D01*
X187500Y321000D02*
X212000D01*
X178000Y330500D02*
X187500Y321000D01*
X246500Y424000D02*
X268500Y402000D01*
X185000Y424000D02*
X246500D01*
D82*
X178000Y431500D02*
X202000D01*
X202250Y431750D01*
X264750D01*
X265000Y432000D01*
X168000Y421500D02*
X178000Y431500D01*
X168000Y404000D02*
Y421500D01*
Y404000D02*
X174500Y397500D01*
X220000Y459000D02*
X233500Y445500D01*
X292000D01*
X300500Y369500D02*
X307000Y376000D01*
X292000Y369500D02*
X300500D01*
X292000D02*
Y445500D01*
D83*
X520500Y114500D02*
Y129500D01*
X480500Y139843D02*
X482843Y137500D01*
X512500D02*
X520500Y129500D01*
X480500Y139843D02*
Y144453D01*
X482843Y137500D02*
X512500D01*
X443173Y181780D02*
X480500Y144453D01*
D84*
X454000Y418000D02*
D03*
X476638D02*
D03*
X499276D02*
D03*
X521913D02*
D03*
X544551D02*
D03*
X567189D02*
D03*
X600654Y181780D02*
D03*
X521913D02*
D03*
X443173D02*
D03*
D85*
X169224Y263112D02*
D03*
Y255888D02*
D03*
X154776Y263112D02*
D03*
Y255888D02*
D03*
X162000Y263112D02*
D03*
Y255888D02*
D03*
X165612Y266724D02*
D03*
Y259500D02*
D03*
Y252276D02*
D03*
X158388Y266724D02*
D03*
Y252276D02*
D03*
Y259500D02*
D03*
D86*
X183421Y138543D02*
D03*
X173579D02*
D03*
Y130669D02*
D03*
X183421D02*
D03*
D87*
X154799Y120000D02*
D03*
X202201D02*
D03*
D88*
X530500Y114500D02*
D03*
X178000Y330500D02*
D03*
X176500Y478500D02*
D03*
X246500D02*
D03*
X316500D02*
D03*
X386500D02*
D03*
X237500Y255500D02*
D03*
D89*
X520500Y114500D02*
D03*
X510500D02*
D03*
X148000Y320500D02*
D03*
Y330500D02*
D03*
X158000Y320500D02*
D03*
Y330500D02*
D03*
X168000Y320500D02*
D03*
Y330500D02*
D03*
X178000Y320500D02*
D03*
X186500Y478500D02*
D03*
X256500D02*
D03*
X326500D02*
D03*
X397500D02*
D03*
X257500Y265500D02*
D03*
Y255500D02*
D03*
X247500Y265500D02*
D03*
Y255500D02*
D03*
X237500Y265500D02*
D03*
D90*
X505736Y148240D02*
D03*
X535264Y140760D02*
D03*
D91*
X186005Y146005D02*
D03*
X282000Y350000D02*
D03*
X296500Y346000D02*
D03*
X336000Y327000D02*
D03*
X300500Y313000D02*
D03*
X288000Y173000D02*
D03*
X213000Y156000D02*
D03*
X211000Y182500D02*
D03*
X199500Y204000D02*
D03*
X210500Y238500D02*
D03*
X179000Y241000D02*
D03*
X169000Y276500D02*
D03*
X197000Y348500D02*
D03*
Y365500D02*
D03*
X163500Y357000D02*
D03*
X213000Y390000D02*
D03*
X147000Y393500D02*
D03*
X129000Y397000D02*
D03*
X122500Y392000D02*
D03*
X202000Y431500D02*
D03*
X265000Y432000D02*
D03*
X174500Y397500D02*
D03*
X220000Y459000D02*
D03*
X280500Y303000D02*
D03*
X258500D02*
D03*
X227000Y299500D02*
D03*
X260500Y152000D02*
D03*
X248500Y150000D02*
D03*
X180000Y156000D02*
D03*
X176000Y160000D02*
D03*
X267500Y146000D02*
D03*
X192000Y170500D02*
D03*
X137500Y240000D02*
D03*
X148000Y282000D02*
D03*
X212000Y321000D02*
D03*
X515500Y481000D02*
D03*
X349000Y302500D02*
D03*
X210500D02*
D03*
X172500Y288000D02*
D03*
X307000Y376000D02*
D03*
X434000Y480500D02*
D03*
X460000D02*
D03*
X172500Y213500D02*
D03*
X192000Y176000D02*
D03*
X324500Y402500D02*
D03*
X319500D02*
D03*
X314500D02*
D03*
X329500D02*
D03*
X177500Y210000D02*
D03*
X182500Y218000D02*
D03*
X167000Y222000D02*
D03*
X174000Y200500D02*
D03*
X220000Y228500D02*
D03*
X212500Y231500D02*
D03*
X137000Y308500D02*
D03*
X196500Y471500D02*
D03*
X142500Y308500D02*
D03*
X202500Y474000D02*
D03*
X219000Y394000D02*
D03*
X226957Y389119D02*
D03*
X223500Y392000D02*
D03*
X292000Y369500D02*
D03*
Y445500D02*
D03*
X190500Y246500D02*
D03*
X174500Y180000D02*
D03*
X185000Y424000D02*
D03*
X246000Y426000D02*
D03*
X268500Y402000D02*
D03*
X178486Y183417D02*
D03*
X152500Y287500D02*
D03*
X192000Y287000D02*
D03*
M02*
