G04*
G04 #@! TF.GenerationSoftware,Altium Limited,Altium Designer,22.10.1 (41)*
G04*
G04 Layer_Color=32768*
%FSLAX25Y25*%
%MOIN*%
G70*
G04*
G04 #@! TF.SameCoordinates,B0F90622-4776-4CE2-9B4D-1A44F7B6D03D*
G04*
G04*
G04 #@! TF.FilePolarity,Positive*
G04*
G01*
G75*
%ADD93C,0.00197*%
D93*
X534295Y472299D02*
Y479701D01*
X521185Y472299D02*
Y479701D01*
X534295D01*
X521185Y472299D02*
X534295D01*
X126803Y224854D02*
X206528D01*
Y302020D01*
X126803D02*
X206528D01*
X126803Y224854D02*
Y302020D01*
X153894Y142638D02*
X203106D01*
Y124921D02*
Y142638D01*
Y124921D02*
X207043D01*
Y115079D02*
Y124921D01*
X203106Y115079D02*
X207043D01*
X203106Y78661D02*
Y115079D01*
X153894Y78661D02*
X203106D01*
X153894D02*
Y115079D01*
X149957D02*
X153894D01*
X149957D02*
Y124921D01*
X153894D01*
Y142638D01*
X489004Y156508D02*
X551996D01*
X489004Y132492D02*
Y156508D01*
X551996Y132492D02*
Y156508D01*
X489004Y132492D02*
X551996D01*
X510205Y450913D02*
X521898D01*
X510205Y445087D02*
X521898D01*
Y450913D01*
X510205Y445087D02*
Y450913D01*
X162685Y177661D02*
X168315D01*
X162685Y189197D02*
X168315D01*
Y177661D02*
Y189197D01*
X162685Y177661D02*
Y189197D01*
X180685Y177661D02*
Y189197D01*
X186315Y177661D02*
Y189197D01*
X180685D02*
X186315D01*
X180685Y177661D02*
X186315D01*
X310087Y164795D02*
X315913D01*
X310087Y153102D02*
X315913D01*
X310087D02*
Y164795D01*
X315913Y153102D02*
Y164795D01*
X278220Y364717D02*
X305780D01*
Y329283D02*
Y364717D01*
X278220Y329283D02*
X305780D01*
X278220D02*
Y364717D01*
X263106Y343803D02*
Y351740D01*
X267894Y343803D02*
Y351740D01*
X263106D02*
X267894D01*
X263106Y343803D02*
X267894D01*
X270087Y342205D02*
Y353898D01*
X275913Y342205D02*
Y353898D01*
X270087D02*
X275913D01*
X270087Y342205D02*
X275913D01*
X320394Y344032D02*
Y351969D01*
X315606Y344032D02*
Y351969D01*
Y344032D02*
X320394D01*
X315606Y351969D02*
X320394D01*
X313413Y341705D02*
Y353398D01*
X307587Y341705D02*
Y353398D01*
Y341705D02*
X313413D01*
X307587Y353398D02*
X313413D01*
X207913Y384602D02*
Y396295D01*
X202087Y384602D02*
Y396295D01*
Y384602D02*
X207913D01*
X202087Y396295D02*
X207913D01*
X200413Y384705D02*
Y396398D01*
X194587Y384705D02*
Y396398D01*
Y384705D02*
X200413D01*
X194587Y396398D02*
X200413D01*
X131803Y220894D02*
X139740D01*
X131803Y216106D02*
X139740D01*
Y220894D01*
X131803Y216106D02*
Y220894D01*
X132154Y213913D02*
X143846D01*
X132154Y208087D02*
X143846D01*
Y213913D01*
X132154Y208087D02*
Y213913D01*
X188606Y143803D02*
X193394D01*
X188606Y151740D02*
X193394D01*
Y143803D02*
Y151740D01*
X188606Y143803D02*
Y151740D01*
X246413Y385102D02*
Y396795D01*
X240587Y385102D02*
Y396795D01*
Y385102D02*
X246413D01*
X240587Y396795D02*
X246413D01*
X238913Y385102D02*
Y396795D01*
X233087Y385102D02*
Y396795D01*
Y385102D02*
X238913D01*
X233087Y396795D02*
X238913D01*
X170102Y414913D02*
X181795D01*
X170102Y409087D02*
X181795D01*
Y414913D01*
X170102Y409087D02*
Y414913D01*
X231287Y375913D02*
Y405087D01*
X209713Y375913D02*
Y405087D01*
X231287D01*
X209713Y375913D02*
X231287D01*
X122720Y412717D02*
X150280D01*
Y377283D02*
Y412717D01*
X122720Y377283D02*
X150280D01*
X122720D02*
Y412717D01*
X152685Y395803D02*
Y407339D01*
X158315Y395803D02*
Y407339D01*
X152685D02*
X158315D01*
X152685Y395803D02*
X158315D01*
X152685Y393339D02*
X158315D01*
X152685Y381803D02*
X158315D01*
X152685D02*
Y393339D01*
X158315Y381803D02*
Y393339D01*
X374587Y441102D02*
Y452795D01*
X380413Y441102D02*
Y452795D01*
X374587D02*
X380413D01*
X374587Y441102D02*
X380413D01*
X304587Y440705D02*
Y452398D01*
X310413Y440705D02*
Y452398D01*
X304587D02*
X310413D01*
X304587Y440705D02*
X310413D01*
X210602Y467913D02*
X222295D01*
X210602Y462087D02*
X222295D01*
Y467913D01*
X210602Y462087D02*
Y467913D01*
X211776Y468563D02*
Y476437D01*
Y468563D02*
X221224D01*
Y476437D01*
X211776D02*
X221224D01*
X192244Y434028D02*
X197756D01*
Y444264D01*
X192244D02*
X197756D01*
X192244Y434028D02*
Y444264D01*
Y456764D02*
X197756D01*
X192244Y446528D02*
Y456764D01*
Y446528D02*
X197756D01*
Y456764D01*
X175102Y464087D02*
X186795D01*
X175102Y469913D02*
X186795D01*
X175102Y464087D02*
Y469913D01*
X186795Y464087D02*
Y469913D01*
X164413Y440602D02*
Y452295D01*
X158587Y440602D02*
Y452295D01*
Y440602D02*
X164413D01*
X158587Y452295D02*
X164413D01*
X228587Y451795D02*
X234413D01*
X228587Y440102D02*
X234413D01*
X228587D02*
Y451795D01*
X234413Y440102D02*
Y451795D01*
X268256Y446236D02*
Y456472D01*
X262744Y446236D02*
X268256D01*
X262744D02*
Y456472D01*
X268256D01*
X262744Y434028D02*
Y444264D01*
X268256D01*
Y434028D02*
Y444264D01*
X262744Y434028D02*
X268256D01*
X256795Y464087D02*
Y469913D01*
X245102Y464087D02*
Y469913D01*
X256795D01*
X245102Y464087D02*
X256795D01*
X522244Y482941D02*
X533661D01*
X522244D02*
Y488059D01*
X533661D01*
Y482941D02*
Y488059D01*
X493705Y472299D02*
X506815D01*
X493705Y479701D02*
X506815D01*
X493705Y472299D02*
Y479701D01*
X506815Y472299D02*
Y479701D01*
X494543Y482685D02*
Y488315D01*
X506079D01*
Y482685D02*
Y488315D01*
X494543Y482685D02*
X506079D01*
X466185Y472299D02*
X479295D01*
X466185Y479701D02*
X479295D01*
X466185Y472299D02*
Y479701D01*
X479295Y472299D02*
Y479701D01*
X467244Y482941D02*
X478661D01*
X467244D02*
Y488059D01*
X478661D01*
Y482941D02*
Y488059D01*
X439839Y482941D02*
X451256D01*
X439839D02*
Y488059D01*
X451256D01*
Y482941D02*
Y488059D01*
X438685Y472299D02*
X451795D01*
X438685Y479701D02*
X451795D01*
X438685Y472299D02*
Y479701D01*
X451795Y472299D02*
Y479701D01*
X245488Y100496D02*
Y184354D01*
Y100496D02*
X304740D01*
Y184354D01*
X245488D02*
X304740D01*
M02*
