G04*
G04 #@! TF.GenerationSoftware,Altium Limited,Altium Designer,22.10.1 (41)*
G04*
G04 Layer_Color=16711935*
%FSLAX25Y25*%
%MOIN*%
G70*
G04*
G04 #@! TF.SameCoordinates,AD521441-6981-4C9A-977E-8A670088B7DC*
G04*
G04*
G04 #@! TF.FilePolarity,Negative*
G04*
G01*
G75*
%ADD46C,0.10433*%
%ADD47C,0.03591*%
%ADD48C,0.06213*%
%ADD49C,0.09646*%
%ADD50R,0.06496X0.06496*%
%ADD51C,0.06496*%
%ADD52C,0.06102*%
%ADD53C,0.04091*%
D46*
X454000Y418000D02*
D03*
X476638D02*
D03*
X499276D02*
D03*
X521913D02*
D03*
X544551D02*
D03*
X567189D02*
D03*
X600654Y181780D02*
D03*
X521913D02*
D03*
X443173D02*
D03*
D47*
X169224Y263112D02*
D03*
Y255888D02*
D03*
X154776Y263112D02*
D03*
Y255888D02*
D03*
X162000Y263112D02*
D03*
Y255888D02*
D03*
X165612Y266724D02*
D03*
Y259500D02*
D03*
Y252276D02*
D03*
X158388Y266724D02*
D03*
Y252276D02*
D03*
Y259500D02*
D03*
D48*
X183421Y138543D02*
D03*
X173579D02*
D03*
Y130669D02*
D03*
X183421D02*
D03*
D49*
X154799Y120000D02*
D03*
X202201D02*
D03*
D50*
X530500Y114500D02*
D03*
X178000Y330500D02*
D03*
X176500Y478500D02*
D03*
X246500D02*
D03*
X316500D02*
D03*
X386500D02*
D03*
X237500Y255500D02*
D03*
D51*
X520500Y114500D02*
D03*
X510500D02*
D03*
X148000Y320500D02*
D03*
Y330500D02*
D03*
X158000Y320500D02*
D03*
Y330500D02*
D03*
X168000Y320500D02*
D03*
Y330500D02*
D03*
X178000Y320500D02*
D03*
X186500Y478500D02*
D03*
X256500D02*
D03*
X326500D02*
D03*
X397500D02*
D03*
X257500Y265500D02*
D03*
Y255500D02*
D03*
X247500Y265500D02*
D03*
Y255500D02*
D03*
X237500Y265500D02*
D03*
D52*
X505736Y148240D02*
D03*
X535264Y140760D02*
D03*
D53*
X186005Y146005D02*
D03*
X282000Y350000D02*
D03*
X296500Y346000D02*
D03*
X336000Y327000D02*
D03*
X300500Y313000D02*
D03*
X288000Y173000D02*
D03*
X213000Y156000D02*
D03*
X211000Y182500D02*
D03*
X199500Y204000D02*
D03*
X210500Y238500D02*
D03*
X179000Y241000D02*
D03*
X169000Y276500D02*
D03*
X197000Y348500D02*
D03*
Y365500D02*
D03*
X163500Y357000D02*
D03*
X213000Y390000D02*
D03*
X147000Y393500D02*
D03*
X129000Y397000D02*
D03*
X122500Y392000D02*
D03*
X202000Y431500D02*
D03*
X265000Y432000D02*
D03*
X174500Y397500D02*
D03*
X220000Y459000D02*
D03*
X280500Y303000D02*
D03*
X258500D02*
D03*
X227000Y299500D02*
D03*
X260500Y152000D02*
D03*
X248500Y150000D02*
D03*
X180000Y156000D02*
D03*
X176000Y160000D02*
D03*
X267500Y146000D02*
D03*
X192000Y170500D02*
D03*
X137500Y240000D02*
D03*
X148000Y282000D02*
D03*
X212000Y321000D02*
D03*
X515500Y481000D02*
D03*
X349000Y302500D02*
D03*
X210500D02*
D03*
X172500Y288000D02*
D03*
X307000Y376000D02*
D03*
X434000Y480500D02*
D03*
X460000D02*
D03*
X172500Y213500D02*
D03*
X192000Y176000D02*
D03*
X324500Y402500D02*
D03*
X319500D02*
D03*
X314500D02*
D03*
X329500D02*
D03*
X177500Y210000D02*
D03*
X182500Y218000D02*
D03*
X167000Y222000D02*
D03*
X174000Y200500D02*
D03*
X220000Y228500D02*
D03*
X212500Y231500D02*
D03*
X137000Y308500D02*
D03*
X196500Y471500D02*
D03*
X142500Y308500D02*
D03*
X202500Y474000D02*
D03*
X219000Y394000D02*
D03*
X226957Y389119D02*
D03*
X223500Y392000D02*
D03*
X292000Y369500D02*
D03*
Y445500D02*
D03*
X190500Y246500D02*
D03*
X174500Y180000D02*
D03*
X185000Y424000D02*
D03*
X246000Y426000D02*
D03*
X268500Y402000D02*
D03*
X178486Y183417D02*
D03*
X152500Y287500D02*
D03*
X192000Y287000D02*
D03*
M02*
